<?xml version="1.0" encoding="UTF-8"?> <svg xmlns="http://www.w3.org/2000/svg" width="1440" height="901" viewBox="0 0 1440 901" fill="none"> <g opacity="0.4" filter="url(#filter0_f_24_6790)"> <path d="M895.57 39.8829C895.57 37.077 895.57 35.674 896.442 34.8023C897.313 33.9307 898.716 33.9307 901.522 33.9307H998.725C1001.53 33.9307 1002.93 33.9307 1003.81 34.8023C1004.68 35.674 1004.68 37.077 1004.68 39.8829V68.3155C1004.68 69.2508 1004.68 69.7184 1004.39 70.009C1004.1 70.2996 1003.63 70.2996 1002.69 70.2996H992.444C989.639 70.2996 988.236 70.2996 987.364 71.1712C986.492 72.0429 986.492 73.4459 986.492 76.2517V88.5933C986.492 91.3992 986.492 92.8021 987.364 93.6738C988.236 94.5455 989.639 94.5455 992.444 94.5455H1002.69C1003.63 94.5455 1004.1 94.5455 1004.39 94.836C1004.68 95.1266 1004.68 95.5942 1004.68 96.5295V124.962C1004.68 127.768 1004.68 129.171 1003.81 130.043C1002.93 130.914 1001.53 130.914 998.725 130.914H901.522C898.716 130.914 897.313 130.914 896.442 130.043C895.57 129.171 895.57 127.768 895.57 124.962V96.5295C895.57 95.5942 895.57 95.1266 895.861 94.836C896.151 94.5455 896.619 94.5455 897.554 94.5455H907.802C910.608 94.5455 912.011 94.5455 912.883 93.6738C913.755 92.8021 913.755 91.3992 913.755 88.5933V76.2518C913.755 73.4459 913.755 72.0429 912.883 71.1712C912.011 70.2996 910.608 70.2996 907.802 70.2996H897.554C896.619 70.2996 896.151 70.2996 895.861 70.009C895.57 69.7184 895.57 69.2508 895.57 68.3155V39.8829Z" stroke="url(#paint0_linear_24_6790)" stroke-width="1.98407"></path> <path d="M947.434 74.4715C948.453 71.8349 948.963 70.5166 949.79 70.3339C950.008 70.2858 950.233 70.2858 950.451 70.3339C951.279 70.5166 951.788 71.8349 952.807 74.4715C953.387 75.9709 953.677 76.7206 954.219 77.2305C954.371 77.3735 954.536 77.5009 954.712 77.6108C955.338 78.0028 956.121 78.0755 957.685 78.2209C960.334 78.4671 961.658 78.5902 962.063 79.3738C962.147 79.5361 962.204 79.7118 962.231 79.8937C962.365 80.7716 961.392 81.6909 959.445 83.5293L958.904 84.0398C957.994 84.8993 957.538 85.3291 957.275 85.8654C957.117 86.1871 957.011 86.5336 956.962 86.891C956.879 87.4867 957.012 88.1101 957.279 89.357L957.374 89.8025C957.852 92.0386 958.091 93.1566 957.793 93.7062C957.525 94.1998 957.031 94.5159 956.486 94.5429C955.879 94.573 955.023 93.8495 953.312 92.4027C952.185 91.4494 951.621 90.9728 950.996 90.7866C950.424 90.6165 949.817 90.6165 949.246 90.7866C948.62 90.9728 948.056 91.4494 946.929 92.4027C945.218 93.8495 944.363 94.573 943.755 94.5429C943.21 94.5159 942.716 94.1998 942.448 93.7062C942.15 93.1566 942.389 92.0386 942.867 89.8025L942.962 89.357C943.229 88.1101 943.362 87.4867 943.279 86.891C943.23 86.5336 943.124 86.1871 942.966 85.8654C942.703 85.3291 942.248 84.8993 941.337 84.0398L940.797 83.5293C938.849 81.6909 937.876 80.7716 938.01 79.8937C938.038 79.7118 938.095 79.5361 938.178 79.3738C938.583 78.5902 939.907 78.4671 942.556 78.2209C944.12 78.0755 944.903 78.0028 945.529 77.6108C945.705 77.5009 945.87 77.3735 946.022 77.2305C946.565 76.7206 946.854 75.9709 947.434 74.4715Z" fill="url(#paint1_linear_24_6790)" stroke="url(#paint2_linear_24_6790)" stroke-width="0.992033"></path> <path d="M42.3684 586.108L41.8828 585.234L42.3684 586.108ZM42.3684 525.667L41.8828 526.541L42.3684 525.667ZM42.8541 524.793L95.6778 554.139L94.7065 555.888L41.8828 526.541L42.8541 524.793ZM95.6778 557.636L42.8541 586.983L41.8828 585.234L94.7065 555.888L95.6778 557.636ZM42.7742 526.017V585.759H40.7742V526.017H42.7742ZM42.8541 586.983C41.9209 587.501 40.7742 586.826 40.7742 585.759H42.7742C42.7742 585.301 42.2827 585.012 41.8828 585.234L42.8541 586.983ZM95.6778 554.139C97.0494 554.901 97.0494 556.874 95.6778 557.636L94.7065 555.888L94.7065 555.888L95.6778 554.139ZM41.8828 526.541C42.2827 526.763 42.7742 526.474 42.7742 526.017H40.7742C40.7742 524.949 41.9209 524.274 42.8541 524.793L41.8828 526.541Z" fill="url(#paint3_linear_24_6790)"></path> <path d="M115.098 586.439L115.098 525.337" stroke="url(#paint4_linear_24_6790)" stroke-width="2" stroke-linecap="round"></path> <path d="M139.538 586.439L139.538 525.337" stroke="url(#paint5_linear_24_6790)" stroke-width="2" stroke-linecap="round"></path> <path d="M855.926 274.489L855.441 273.615L855.926 274.489ZM855.926 214.048L855.441 214.922L855.926 214.048ZM856.412 213.174L909.236 242.52L908.264 244.269L855.441 214.922L856.412 213.174ZM909.236 246.017L856.412 275.363L855.441 273.615L908.264 244.269L909.236 246.017ZM856.332 214.398V274.14H854.332V214.398H856.332ZM856.412 275.363C855.479 275.882 854.332 275.207 854.332 274.14H856.332C856.332 273.682 855.841 273.393 855.441 273.615L856.412 275.363ZM909.236 242.52C910.607 243.282 910.607 245.255 909.236 246.017L908.264 244.269L908.264 244.269L909.236 242.52ZM855.441 214.922C855.841 215.144 856.332 214.855 856.332 214.398H854.332C854.332 213.33 855.479 212.655 856.412 213.174L855.441 214.922Z" fill="url(#paint6_linear_24_6790)"></path> <path d="M928.655 274.82L928.655 213.718" stroke="url(#paint7_linear_24_6790)" stroke-width="2" stroke-linecap="round"></path> <path d="M953.096 274.82L953.096 213.718" stroke="url(#paint8_linear_24_6790)" stroke-width="2" stroke-linecap="round"></path> <path d="M1361.57 144.508H1335.01C1333.13 144.508 1332.19 144.508 1331.6 145.094C1331.01 145.68 1331.01 146.623 1331.01 148.508V170.18C1331.01 172.438 1331.01 173.566 1331.75 174.166C1332.48 174.766 1333.59 174.545 1335.8 174.102L1358.35 169.592C1359.89 169.284 1360.66 169.13 1361.11 168.578C1361.57 168.025 1361.57 167.24 1361.57 165.67V86.6861C1361.57 85.1163 1361.57 84.3314 1362.02 83.7785C1362.47 83.2255 1363.24 83.0716 1364.78 82.7637L1417.88 72.1434C1420.1 71.7007 1421.2 71.4793 1421.93 72.0794C1422.67 72.6796 1422.67 73.8083 1422.67 76.0657V101.737M1422.67 132.288V153.45C1422.67 155.019 1422.67 155.804 1422.21 156.357C1421.76 156.91 1420.99 157.064 1419.45 157.372L1396.9 161.882C1394.69 162.325 1393.58 162.546 1392.85 161.946C1392.12 161.346 1392.12 160.217 1392.12 157.96V136.288C1392.12 134.403 1392.12 133.46 1392.7 132.874C1393.29 132.288 1394.23 132.288 1396.12 132.288H1422.67ZM1422.67 132.288V101.737M1422.67 101.737L1361.57 113.958" stroke="url(#paint9_linear_24_6790)" stroke-width="2"></path> <path d="M571.329 806.405H544.778C542.893 806.405 541.95 806.405 541.364 806.991C540.778 807.577 540.778 808.519 540.778 810.405V832.077C540.778 834.334 540.778 835.463 541.51 836.063C542.242 836.663 543.349 836.442 545.563 835.999L568.114 831.489C569.653 831.181 570.423 831.027 570.876 830.474C571.329 829.921 571.329 829.136 571.329 827.566V748.583C571.329 747.013 571.329 746.228 571.783 745.675C572.236 745.122 573.006 744.968 574.545 744.66L627.646 734.04C629.86 733.597 630.967 733.376 631.699 733.976C632.431 734.576 632.431 735.705 632.431 737.962V763.634M632.431 794.185V815.346C632.431 816.916 632.431 817.701 631.978 818.254C631.524 818.807 630.755 818.961 629.215 819.268L606.665 823.779C604.451 824.221 603.344 824.443 602.612 823.843C601.88 823.242 601.88 822.114 601.88 819.856V798.185C601.88 796.299 601.88 795.356 602.466 794.77C603.052 794.185 603.994 794.185 605.88 794.185H632.431ZM632.431 794.185V763.634M632.431 763.634L571.329 775.854" stroke="url(#paint10_linear_24_6790)" stroke-width="2"></path> <rect x="1102.44" y="745.304" width="24.4406" height="42.7711" rx="3" stroke="url(#paint11_linear_24_6790)" stroke-width="2" stroke-linejoin="round"></rect> <rect x="1029.12" y="745.304" width="24.4407" height="42.7711" rx="3" stroke="url(#paint12_linear_24_6790)" stroke-width="2" stroke-linejoin="round"></rect> <path d="M1029.12 751.414V769.744" stroke="url(#paint13_linear_24_6790)" stroke-width="2" stroke-linecap="round" stroke-linejoin="round"></path> <path d="M1126.88 751.414V769.744" stroke="url(#paint14_linear_24_6790)" stroke-width="2" stroke-linecap="round" stroke-linejoin="round"></path> <path d="M1126.88 751.413C1126.88 736.829 1121.73 722.841 1112.56 712.528C1103.4 702.216 1090.96 696.422 1078 696.422C1065.04 696.422 1052.6 702.216 1043.44 712.528C1034.27 722.841 1029.12 736.829 1029.12 751.413" stroke="url(#paint15_linear_24_6790)" stroke-width="2" stroke-linecap="round" stroke-linejoin="round"></path> <path d="M42.6535 151.526C47.4597 139.544 49.8629 133.553 53.9953 133.553C58.1278 133.553 60.5309 139.544 65.3372 151.526L65.561 152.084C68.2763 158.853 69.634 162.238 72.401 164.295C75.168 166.353 78.8002 166.678 86.0647 167.328L87.378 167.446C99.2672 168.511 105.212 169.043 106.484 172.825C107.756 176.607 103.341 180.624 94.5117 188.657L91.5649 191.338C87.0952 195.404 84.8604 197.437 83.8188 200.102C83.6245 200.599 83.463 201.109 83.3352 201.627C82.6506 204.405 83.305 207.354 84.6139 213.254L85.0213 215.09C87.4267 225.931 88.6294 231.352 86.5294 233.69C85.7447 234.564 84.7249 235.193 83.592 235.502C80.5601 236.329 76.2556 232.822 67.6467 225.807C61.9937 221.201 59.1673 218.897 55.9221 218.379C54.6457 218.175 53.345 218.175 52.0685 218.379C48.8234 218.897 45.9969 221.201 40.344 225.807C31.7351 232.822 27.4306 236.329 24.3987 235.502C23.2658 235.193 22.2459 234.564 21.4612 233.69C19.3613 231.352 20.564 225.931 22.9694 215.09L23.3768 213.254C24.6857 207.354 25.3401 204.405 24.6554 201.627C24.5277 201.109 24.3662 200.599 24.1719 200.102C23.1303 197.437 20.8954 195.404 16.4258 191.338L13.479 188.657C4.64955 180.624 0.234826 176.607 1.50683 172.825C2.77884 169.043 8.72346 168.511 20.6127 167.446L21.926 167.328C29.1905 166.678 32.8227 166.353 35.5897 164.295C38.3567 162.238 39.7143 158.853 42.4296 152.084L42.6535 151.526Z" stroke="url(#paint16_linear_24_6790)" stroke-width="2"></path> <path d="M1374.66 727.752C1379.47 715.77 1381.87 709.779 1386 709.779C1390.14 709.779 1392.54 715.77 1397.35 727.752L1397.57 728.31C1400.28 735.08 1401.64 738.464 1404.41 740.521C1407.18 742.579 1410.81 742.904 1418.07 743.555L1419.39 743.672C1431.28 744.737 1437.22 745.269 1438.49 749.051C1439.76 752.833 1435.35 756.85 1426.52 764.883L1423.57 767.564C1419.1 771.63 1416.87 773.664 1415.83 776.328C1415.63 776.825 1415.47 777.335 1415.34 777.853C1414.66 780.631 1415.31 783.581 1416.62 789.48L1417.03 791.316C1419.44 802.157 1420.64 807.578 1418.54 809.916C1417.75 810.79 1416.73 811.419 1415.6 811.728C1412.57 812.555 1408.26 809.048 1399.66 802.033C1394 797.427 1391.18 795.123 1387.93 794.605C1386.65 794.401 1385.35 794.401 1384.08 794.605C1380.83 795.123 1378.01 797.427 1372.35 802.033C1363.74 809.048 1359.44 812.555 1356.41 811.728C1355.27 811.419 1354.25 810.79 1353.47 809.916C1351.37 807.578 1352.57 802.157 1354.98 791.316L1355.39 789.48C1356.69 783.581 1357.35 780.631 1356.66 777.853C1356.54 777.335 1356.37 776.825 1356.18 776.328C1355.14 773.664 1352.9 771.63 1348.43 767.564L1345.49 764.883C1336.66 756.85 1332.24 752.833 1333.52 749.051C1334.79 745.269 1340.73 744.737 1352.62 743.672L1353.93 743.555C1361.2 742.904 1364.83 742.579 1367.6 740.521C1370.37 738.464 1371.72 735.08 1374.44 728.31L1374.66 727.752Z" stroke="url(#paint17_linear_24_6790)" stroke-width="2"></path> <rect x="145.648" y="830.846" width="12.2203" height="12.2203" rx="1" fill="url(#paint18_linear_24_6790)"></rect> <rect x="108.987" y="812.516" width="12.2203" height="36.661" rx="1" fill="url(#paint19_linear_24_6790)"></rect> <rect x="133.428" y="824.736" width="12.2203" height="36.661" rx="1" transform="rotate(90 133.428 824.736)" fill="url(#paint20_linear_24_6790)"></rect> <rect x="163.98" y="818.626" width="12.2203" height="12.2203" rx="1" fill="url(#paint21_linear_24_6790)"></rect> <path d="M151.758 794.185V785.088C151.758 783.588 151.758 782.838 151.335 782.295C150.911 781.753 150.183 781.571 148.728 781.207L130.347 776.612C128.892 776.248 128.165 776.066 127.741 775.524C127.318 774.981 127.318 774.231 127.318 772.731V757.524" stroke="url(#paint22_linear_24_6790)" stroke-width="2" stroke-linecap="round"></path> <path d="M84.5466 830.847C84.5466 815.212 84.5466 807.394 88.3346 802.009C89.3098 800.623 90.4473 799.382 91.7182 798.318C96.6548 794.186 103.821 794.186 118.153 794.186H160.924C175.256 794.186 182.421 794.186 187.358 798.318C188.629 799.382 189.766 800.623 190.742 802.009C194.53 807.394 194.53 815.212 194.53 830.847C194.53 846.481 194.53 854.299 190.742 859.684C189.766 861.07 188.629 862.311 187.358 863.375C182.421 867.508 175.256 867.508 160.924 867.508H118.153C103.821 867.508 96.6548 867.508 91.7182 863.375C90.4473 862.311 89.3098 861.07 88.3346 859.684C84.5466 854.299 84.5466 846.481 84.5466 830.847Z" stroke="url(#paint23_linear_24_6790)" stroke-width="2"></path> <rect x="1386" y="484.364" width="12.2203" height="12.2203" rx="1" fill="url(#paint24_linear_24_6790)"></rect> <rect x="1349.34" y="466.034" width="12.2203" height="36.661" rx="1" fill="url(#paint25_linear_24_6790)"></rect> <rect x="1373.79" y="478.254" width="12.2203" height="36.661" rx="1" transform="rotate(90 1373.79 478.254)" fill="url(#paint26_linear_24_6790)"></rect> <rect x="1404.34" y="472.145" width="12.2203" height="12.2203" rx="1" fill="url(#paint27_linear_24_6790)"></rect> <path d="M1392.12 447.703V438.606C1392.12 437.106 1392.12 436.356 1391.69 435.814C1391.27 435.271 1390.54 435.089 1389.09 434.726L1370.7 430.13C1369.25 429.767 1368.52 429.585 1368.1 429.042C1367.67 428.5 1367.67 427.75 1367.67 426.25V411.042" stroke="url(#paint28_linear_24_6790)" stroke-width="2" stroke-linecap="round"></path> <path d="M1324.9 484.365C1324.9 468.73 1324.9 460.913 1328.69 455.528C1329.67 454.141 1330.8 452.9 1332.08 451.836C1337.01 447.704 1344.18 447.704 1358.51 447.704H1401.28C1415.61 447.704 1422.78 447.704 1427.72 451.836C1428.99 452.9 1430.12 454.141 1431.1 455.528C1434.89 460.913 1434.89 468.73 1434.89 484.365C1434.89 500 1434.89 507.817 1431.1 513.203C1430.12 514.589 1428.99 515.83 1427.72 516.894C1422.78 521.026 1415.61 521.026 1401.28 521.026H1358.51C1344.18 521.026 1337.01 521.026 1332.08 516.894C1330.8 515.83 1329.67 514.589 1328.69 513.203C1324.9 507.817 1324.9 500 1324.9 484.365Z" stroke="url(#paint29_linear_24_6790)" stroke-width="2"></path> <rect x="546.888" y="114.086" width="12.2203" height="12.2203" rx="1" fill="url(#paint30_linear_24_6790)"></rect> <rect x="510.228" y="95.7559" width="12.2203" height="36.661" rx="1" fill="url(#paint31_linear_24_6790)"></rect> <rect x="534.668" y="107.976" width="12.2203" height="36.661" rx="1" transform="rotate(90 534.668 107.976)" fill="url(#paint32_linear_24_6790)"></rect> <rect x="565.22" y="101.866" width="12.2203" height="12.2203" rx="1" fill="url(#paint33_linear_24_6790)"></rect> <path d="M552.998 77.4251V68.3279C552.998 66.828 552.998 66.0781 552.575 65.5355C552.151 64.993 551.424 64.8111 549.969 64.4473L531.588 59.8521C530.132 59.4883 529.405 59.3064 528.981 58.7639C528.558 58.2214 528.558 57.4714 528.558 55.9715V40.7642" stroke="url(#paint34_linear_24_6790)" stroke-width="2" stroke-linecap="round"></path> <path d="M485.787 114.087C485.787 98.452 485.787 90.6346 489.575 85.2493C490.55 83.8629 491.688 82.6219 492.958 81.5581C497.895 77.4258 505.061 77.4258 519.393 77.4258H562.164C576.496 77.4258 583.662 77.4258 588.598 81.5581C589.869 82.6219 591.007 83.8629 591.982 85.2493C595.77 90.6346 595.77 98.452 595.77 114.087C595.77 129.722 595.77 137.539 591.982 142.924C591.007 144.311 589.869 145.552 588.598 146.615C583.662 150.748 576.496 150.748 562.164 150.748H519.393C505.061 150.748 497.895 150.748 492.958 146.615C491.688 145.552 490.55 144.311 489.575 142.924C485.787 137.539 485.787 129.722 485.787 114.087Z" stroke="url(#paint35_linear_24_6790)" stroke-width="2"></path> </g> <defs> <filter id="filter0_f_24_6790" x="-28.3262" y="0.685059" width="1496.65" height="900.263" filterUnits="userSpaceOnUse" color-interpolation-filters="sRGB"> <feFlood flood-opacity="0" result="BackgroundImageFix"></feFlood> <feBlend mode="normal" in="SourceGraphic" in2="BackgroundImageFix" result="shape"></feBlend> <feGaussianBlur stdDeviation="4.5" result="effect1_foregroundBlur_24_6790"></feGaussianBlur> </filter> <linearGradient id="paint0_linear_24_6790" x1="895.57" y1="33.9307" x2="1021.31" y2="98.5281" gradientUnits="userSpaceOnUse"> <stop stop-color="#00CAE7"></stop> <stop offset="0.482292" stop-color="#897BFF"></stop> <stop offset="1" stop-color="#EB00FF"></stop> </linearGradient> <linearGradient id="paint1_linear_24_6790" x1="937.998" y1="70.2979" x2="967.221" y2="83.6426" gradientUnits="userSpaceOnUse"> <stop stop-color="#00CAE7"></stop> <stop offset="0.482292" stop-color="#897BFF"></stop> <stop offset="1" stop-color="#EB00FF"></stop> </linearGradient> <linearGradient id="paint2_linear_24_6790" x1="937.998" y1="70.2979" x2="967.221" y2="83.6426" gradientUnits="userSpaceOnUse"> <stop stop-color="#00CAE7"></stop> <stop offset="0.482292" stop-color="#897BFF"></stop> <stop offset="1" stop-color="#EB00FF"></stop> </linearGradient> <linearGradient id="paint3_linear_24_6790" x1="96.7656" y1="525.337" x2="28.2373" y2="553.5" gradientUnits="userSpaceOnUse"> <stop stop-color="#00CAE7"></stop> <stop offset="0.482292" stop-color="#897BFF"></stop> <stop offset="1" stop-color="#EB00FF"></stop> </linearGradient> <linearGradient id="paint4_linear_24_6790" x1="115.098" y1="586.439" x2="118.283" y2="586.325" gradientUnits="userSpaceOnUse"> <stop stop-color="#00CAE7"></stop> <stop offset="0.482292" stop-color="#897BFF"></stop> <stop offset="1" stop-color="#EB00FF"></stop> </linearGradient> <linearGradient id="paint5_linear_24_6790" x1="139.538" y1="586.439" x2="142.724" y2="586.325" gradientUnits="userSpaceOnUse"> <stop stop-color="#00CAE7"></stop> <stop offset="0.482292" stop-color="#897BFF"></stop> <stop offset="1" stop-color="#EB00FF"></stop> </linearGradient> <linearGradient id="paint6_linear_24_6790" x1="910.323" y1="213.718" x2="841.795" y2="241.881" gradientUnits="userSpaceOnUse"> <stop stop-color="#00CAE7"></stop> <stop offset="0.482292" stop-color="#897BFF"></stop> <stop offset="1" stop-color="#EB00FF"></stop> </linearGradient> <linearGradient id="paint7_linear_24_6790" x1="928.655" y1="274.82" x2="931.841" y2="274.706" gradientUnits="userSpaceOnUse"> <stop stop-color="#00CAE7"></stop> <stop offset="0.482292" stop-color="#897BFF"></stop> <stop offset="1" stop-color="#EB00FF"></stop> </linearGradient> <linearGradient id="paint8_linear_24_6790" x1="953.096" y1="274.82" x2="956.282" y2="274.706" gradientUnits="userSpaceOnUse"> <stop stop-color="#00CAE7"></stop> <stop offset="0.482292" stop-color="#897BFF"></stop> <stop offset="1" stop-color="#EB00FF"></stop> </linearGradient> <linearGradient id="paint9_linear_24_6790" x1="1331.01" y1="71.1865" x2="1445.87" y2="117.465" gradientUnits="userSpaceOnUse"> <stop stop-color="#00CAE7"></stop> <stop offset="0.482292" stop-color="#897BFF"></stop> <stop offset="1" stop-color="#EB00FF"></stop> </linearGradient> <linearGradient id="paint10_linear_24_6790" x1="540.778" y1="733.083" x2="655.637" y2="779.362" gradientUnits="userSpaceOnUse"> <stop stop-color="#00CAE7"></stop> <stop offset="0.482292" stop-color="#897BFF"></stop> <stop offset="1" stop-color="#EB00FF"></stop> </linearGradient> <linearGradient id="paint11_linear_24_6790" x1="1102.44" y1="745.304" x2="1135.77" y2="754.001" gradientUnits="userSpaceOnUse"> <stop stop-color="#00CAE7"></stop> <stop offset="0.482292" stop-color="#897BFF"></stop> <stop offset="1" stop-color="#EB00FF"></stop> </linearGradient> <linearGradient id="paint12_linear_24_6790" x1="1029.12" y1="745.304" x2="1062.45" y2="754.001" gradientUnits="userSpaceOnUse"> <stop stop-color="#00CAE7"></stop> <stop offset="0.482292" stop-color="#897BFF"></stop> <stop offset="1" stop-color="#EB00FF"></stop> </linearGradient> <linearGradient id="paint13_linear_24_6790" x1="1029.12" y1="751.414" x2="1030.57" y2="751.45" gradientUnits="userSpaceOnUse"> <stop stop-color="#00CAE7"></stop> <stop offset="0.482292" stop-color="#897BFF"></stop> <stop offset="1" stop-color="#EB00FF"></stop> </linearGradient> <linearGradient id="paint14_linear_24_6790" x1="1126.88" y1="751.414" x2="1128.34" y2="751.45" gradientUnits="userSpaceOnUse"> <stop stop-color="#00CAE7"></stop> <stop offset="0.482292" stop-color="#897BFF"></stop> <stop offset="1" stop-color="#EB00FF"></stop> </linearGradient> <linearGradient id="paint15_linear_24_6790" x1="1029.12" y1="806.405" x2="1151.38" y2="756.778" gradientUnits="userSpaceOnUse"> <stop stop-color="#00CAE7"></stop> <stop offset="0.482292" stop-color="#897BFF"></stop> <stop offset="1" stop-color="#EB00FF"></stop> </linearGradient> <linearGradient id="paint16_linear_24_6790" x1="1.29163" y1="133.553" x2="126.899" y2="192.787" gradientUnits="userSpaceOnUse"> <stop stop-color="#00CAE7"></stop> <stop offset="0.482292" stop-color="#897BFF"></stop> <stop offset="1" stop-color="#EB00FF"></stop> </linearGradient> <linearGradient id="paint17_linear_24_6790" x1="1333.3" y1="709.779" x2="1458.91" y2="769.013" gradientUnits="userSpaceOnUse"> <stop stop-color="#00CAE7"></stop> <stop offset="0.482292" stop-color="#897BFF"></stop> <stop offset="1" stop-color="#EB00FF"></stop> </linearGradient> <linearGradient id="paint18_linear_24_6790" x1="145.648" y1="830.846" x2="160.377" y2="837.572" gradientUnits="userSpaceOnUse"> <stop stop-color="#00CAE7"></stop> <stop offset="0.482292" stop-color="#897BFF"></stop> <stop offset="1" stop-color="#EB00FF"></stop> </linearGradient> <linearGradient id="paint19_linear_24_6790" x1="108.987" y1="812.516" x2="126.385" y2="815.164" gradientUnits="userSpaceOnUse"> <stop stop-color="#00CAE7"></stop> <stop offset="0.482292" stop-color="#897BFF"></stop> <stop offset="1" stop-color="#EB00FF"></stop> </linearGradient> <linearGradient id="paint20_linear_24_6790" x1="133.428" y1="824.736" x2="150.826" y2="827.384" gradientUnits="userSpaceOnUse"> <stop stop-color="#00CAE7"></stop> <stop offset="0.482292" stop-color="#897BFF"></stop> <stop offset="1" stop-color="#EB00FF"></stop> </linearGradient> <linearGradient id="paint21_linear_24_6790" x1="163.98" y1="818.626" x2="178.709" y2="825.352" gradientUnits="userSpaceOnUse"> <stop stop-color="#00CAE7"></stop> <stop offset="0.482292" stop-color="#897BFF"></stop> <stop offset="1" stop-color="#EB00FF"></stop> </linearGradient> <linearGradient id="paint22_linear_24_6790" x1="127.318" y1="757.524" x2="159.899" y2="767.443" gradientUnits="userSpaceOnUse"> <stop stop-color="#00CAE7"></stop> <stop offset="0.482292" stop-color="#897BFF"></stop> <stop offset="1" stop-color="#EB00FF"></stop> </linearGradient> <linearGradient id="paint23_linear_24_6790" x1="84.5466" y1="794.186" x2="193.592" y2="868.877" gradientUnits="userSpaceOnUse"> <stop stop-color="#00CAE7"></stop> <stop offset="0.482292" stop-color="#897BFF"></stop> <stop offset="1" stop-color="#EB00FF"></stop> </linearGradient> <linearGradient id="paint24_linear_24_6790" x1="1386" y1="484.364" x2="1400.73" y2="491.09" gradientUnits="userSpaceOnUse"> <stop stop-color="#00CAE7"></stop> <stop offset="0.482292" stop-color="#897BFF"></stop> <stop offset="1" stop-color="#EB00FF"></stop> </linearGradient> <linearGradient id="paint25_linear_24_6790" x1="1349.34" y1="466.034" x2="1366.74" y2="468.682" gradientUnits="userSpaceOnUse"> <stop stop-color="#00CAE7"></stop> <stop offset="0.482292" stop-color="#897BFF"></stop> <stop offset="1" stop-color="#EB00FF"></stop> </linearGradient> <linearGradient id="paint26_linear_24_6790" x1="1373.79" y1="478.254" x2="1391.18" y2="480.903" gradientUnits="userSpaceOnUse"> <stop stop-color="#00CAE7"></stop> <stop offset="0.482292" stop-color="#897BFF"></stop> <stop offset="1" stop-color="#EB00FF"></stop> </linearGradient> <linearGradient id="paint27_linear_24_6790" x1="1404.34" y1="472.145" x2="1419.07" y2="478.871" gradientUnits="userSpaceOnUse"> <stop stop-color="#00CAE7"></stop> <stop offset="0.482292" stop-color="#897BFF"></stop> <stop offset="1" stop-color="#EB00FF"></stop> </linearGradient> <linearGradient id="paint28_linear_24_6790" x1="1367.67" y1="411.042" x2="1400.26" y2="420.961" gradientUnits="userSpaceOnUse"> <stop stop-color="#00CAE7"></stop> <stop offset="0.482292" stop-color="#897BFF"></stop> <stop offset="1" stop-color="#EB00FF"></stop> </linearGradient> <linearGradient id="paint29_linear_24_6790" x1="1324.9" y1="447.704" x2="1433.95" y2="522.396" gradientUnits="userSpaceOnUse"> <stop stop-color="#00CAE7"></stop> <stop offset="0.482292" stop-color="#897BFF"></stop> <stop offset="1" stop-color="#EB00FF"></stop> </linearGradient> <linearGradient id="paint30_linear_24_6790" x1="546.888" y1="114.086" x2="561.617" y2="120.812" gradientUnits="userSpaceOnUse"> <stop stop-color="#00CAE7"></stop> <stop offset="0.482292" stop-color="#897BFF"></stop> <stop offset="1" stop-color="#EB00FF"></stop> </linearGradient> <linearGradient id="paint31_linear_24_6790" x1="510.228" y1="95.7559" x2="527.625" y2="98.404" gradientUnits="userSpaceOnUse"> <stop stop-color="#00CAE7"></stop> <stop offset="0.482292" stop-color="#897BFF"></stop> <stop offset="1" stop-color="#EB00FF"></stop> </linearGradient> <linearGradient id="paint32_linear_24_6790" x1="534.668" y1="107.976" x2="552.066" y2="110.624" gradientUnits="userSpaceOnUse"> <stop stop-color="#00CAE7"></stop> <stop offset="0.482292" stop-color="#897BFF"></stop> <stop offset="1" stop-color="#EB00FF"></stop> </linearGradient> <linearGradient id="paint33_linear_24_6790" x1="565.22" y1="101.866" x2="579.949" y2="108.592" gradientUnits="userSpaceOnUse"> <stop stop-color="#00CAE7"></stop> <stop offset="0.482292" stop-color="#897BFF"></stop> <stop offset="1" stop-color="#EB00FF"></stop> </linearGradient> <linearGradient id="paint34_linear_24_6790" x1="528.558" y1="40.7642" x2="561.139" y2="50.6829" gradientUnits="userSpaceOnUse"> <stop stop-color="#00CAE7"></stop> <stop offset="0.482292" stop-color="#897BFF"></stop> <stop offset="1" stop-color="#EB00FF"></stop> </linearGradient> <linearGradient id="paint35_linear_24_6790" x1="485.787" y1="77.4258" x2="594.832" y2="152.117" gradientUnits="userSpaceOnUse"> <stop stop-color="#00CAE7"></stop> <stop offset="0.482292" stop-color="#897BFF"></stop> <stop offset="1" stop-color="#EB00FF"></stop> </linearGradient> </defs> </svg> 