<?xml version="1.0" encoding="UTF-8"?> <svg xmlns="http://www.w3.org/2000/svg" width="295" height="153" viewBox="0 0 295 153" fill="none"> <path d="M24.5264 141.805H21.1162L7.07129 120.236H6.93066C7.11816 122.768 7.21191 125.088 7.21191 127.197V141.805H4.45215V116.105H7.82715L21.8369 137.586H21.9775C21.9541 137.27 21.9014 136.256 21.8193 134.545C21.7373 132.822 21.708 131.592 21.7314 130.854V116.105H24.5264V141.805ZM47.7822 132.154C47.7822 135.295 46.9912 137.75 45.4092 139.52C43.8271 141.277 41.6416 142.156 38.8525 142.156C37.1299 142.156 35.6006 141.752 34.2646 140.943C32.9287 140.135 31.8975 138.975 31.1709 137.463C30.4443 135.951 30.0811 134.182 30.0811 132.154C30.0811 129.014 30.8662 126.57 32.4365 124.824C34.0068 123.066 36.1865 122.188 38.9756 122.188C41.6709 122.188 43.8096 123.084 45.3916 124.877C46.9854 126.67 47.7822 129.096 47.7822 132.154ZM33.1045 132.154C33.1045 134.615 33.5967 136.49 34.5811 137.779C35.5654 139.068 37.0127 139.713 38.9229 139.713C40.833 139.713 42.2803 139.074 43.2646 137.797C44.2607 136.508 44.7588 134.627 44.7588 132.154C44.7588 129.705 44.2607 127.848 43.2646 126.582C42.2803 125.305 40.8213 124.666 38.8877 124.666C36.9775 124.666 35.5361 125.293 34.5635 126.547C33.5908 127.801 33.1045 129.67 33.1045 132.154ZM78.8955 132.154C78.8955 135.295 78.1045 137.75 76.5225 139.52C74.9404 141.277 72.7549 142.156 69.9658 142.156C68.2432 142.156 66.7139 141.752 65.3779 140.943C64.042 140.135 63.0107 138.975 62.2842 137.463C61.5576 135.951 61.1943 134.182 61.1943 132.154C61.1943 129.014 61.9795 126.57 63.5498 124.824C65.1201 123.066 67.2998 122.188 70.0889 122.188C72.7842 122.188 74.9229 123.084 76.5049 124.877C78.0986 126.67 78.8955 129.096 78.8955 132.154ZM64.2178 132.154C64.2178 134.615 64.71 136.49 65.6943 137.779C66.6787 139.068 68.126 139.713 70.0361 139.713C71.9463 139.713 73.3936 139.074 74.3779 137.797C75.374 136.508 75.8721 134.627 75.8721 132.154C75.8721 129.705 75.374 127.848 74.3779 126.582C73.3936 125.305 71.9346 124.666 70.001 124.666C68.0908 124.666 66.6494 125.293 65.6768 126.547C64.7041 127.801 64.2178 129.67 64.2178 132.154ZM88.2471 141.805L80.9346 122.539H84.0635L88.2119 133.965C89.1494 136.637 89.7002 138.371 89.8643 139.168H90.0049C90.1338 138.547 90.5381 137.264 91.2178 135.318C91.9092 133.361 93.4502 129.102 95.8408 122.539H98.9697L91.6572 141.805H88.2471ZM110.202 142.156C107.354 142.156 105.104 141.289 103.452 139.555C101.812 137.82 100.991 135.412 100.991 132.33C100.991 129.225 101.753 126.758 103.276 124.93C104.812 123.102 106.868 122.188 109.446 122.188C111.86 122.188 113.771 122.984 115.177 124.578C116.583 126.16 117.286 128.252 117.286 130.854V132.699H104.015C104.073 134.961 104.642 136.678 105.72 137.85C106.81 139.021 108.339 139.607 110.308 139.607C112.382 139.607 114.433 139.174 116.46 138.307V140.908C115.429 141.354 114.45 141.67 113.524 141.857C112.61 142.057 111.503 142.156 110.202 142.156ZM109.411 124.631C107.864 124.631 106.628 125.135 105.702 126.143C104.788 127.15 104.249 128.545 104.085 130.326H114.157C114.157 128.486 113.747 127.08 112.927 126.107C112.106 125.123 110.935 124.631 109.411 124.631ZM131.067 122.188C131.923 122.188 132.69 122.258 133.37 122.398L132.966 125.105C132.169 124.93 131.466 124.842 130.856 124.842C129.298 124.842 127.962 125.475 126.849 126.74C125.747 128.006 125.196 129.582 125.196 131.469V141.805H122.278V122.539H124.687L125.021 126.107H125.161C125.876 124.854 126.737 123.887 127.745 123.207C128.753 122.527 129.86 122.188 131.067 122.188ZM150.087 139.221H149.929C148.581 141.178 146.565 142.156 143.882 142.156C141.362 142.156 139.399 141.295 137.993 139.572C136.599 137.85 135.901 135.4 135.901 132.225C135.901 129.049 136.604 126.582 138.011 124.824C139.417 123.066 141.374 122.188 143.882 122.188C146.495 122.188 148.499 123.137 149.894 125.035H150.122L149.999 123.646L149.929 122.293V114.453H152.847V141.805H150.474L150.087 139.221ZM144.251 139.713C146.243 139.713 147.685 139.174 148.575 138.096C149.478 137.006 149.929 135.254 149.929 132.84V132.225C149.929 129.494 149.472 127.549 148.558 126.389C147.655 125.217 146.208 124.631 144.216 124.631C142.505 124.631 141.192 125.299 140.278 126.635C139.376 127.959 138.925 129.834 138.925 132.26C138.925 134.721 139.376 136.578 140.278 137.832C141.181 139.086 142.505 139.713 144.251 139.713ZM167.841 122.188C168.696 122.188 169.464 122.258 170.144 122.398L169.739 125.105C168.942 124.93 168.239 124.842 167.63 124.842C166.071 124.842 164.735 125.475 163.622 126.74C162.521 128.006 161.97 129.582 161.97 131.469V141.805H159.052V122.539H161.46L161.794 126.107H161.935C162.649 124.854 163.511 123.887 164.519 123.207C165.526 122.527 166.634 122.188 167.841 122.188ZM185.595 141.805L185.015 139.062H184.874C183.913 140.27 182.952 141.09 181.991 141.523C181.042 141.945 179.853 142.156 178.423 142.156C176.513 142.156 175.013 141.664 173.923 140.68C172.845 139.695 172.306 138.295 172.306 136.479C172.306 132.588 175.417 130.549 181.64 130.361L184.909 130.256V129.061C184.909 127.549 184.581 126.436 183.925 125.721C183.28 124.994 182.243 124.631 180.813 124.631C179.208 124.631 177.392 125.123 175.364 126.107L174.468 123.875C175.417 123.359 176.454 122.955 177.579 122.662C178.716 122.369 179.853 122.223 180.989 122.223C183.286 122.223 184.985 122.732 186.087 123.752C187.2 124.771 187.757 126.406 187.757 128.656V141.805H185.595ZM179.003 139.748C180.819 139.748 182.243 139.25 183.274 138.254C184.317 137.258 184.839 135.863 184.839 134.07V132.33L181.921 132.453C179.601 132.535 177.925 132.898 176.894 133.543C175.874 134.176 175.364 135.166 175.364 136.514C175.364 137.568 175.681 138.371 176.313 138.922C176.958 139.473 177.854 139.748 179.003 139.748ZM202.47 124.807H197.565V141.805H194.647V124.807H191.202V123.488L194.647 122.434V121.361C194.647 116.627 196.716 114.26 200.853 114.26C201.872 114.26 203.067 114.465 204.438 114.875L203.683 117.213C202.558 116.85 201.597 116.668 200.8 116.668C199.698 116.668 198.884 117.037 198.356 117.775C197.829 118.502 197.565 119.674 197.565 121.291V122.539H202.47V124.807ZM212.208 139.748C212.724 139.748 213.222 139.713 213.702 139.643C214.183 139.561 214.563 139.479 214.845 139.396V141.629C214.528 141.781 214.06 141.904 213.438 141.998C212.829 142.104 212.278 142.156 211.786 142.156C208.06 142.156 206.196 140.193 206.196 136.268V124.807H203.437V123.4L206.196 122.188L207.427 118.074H209.114V122.539H214.704V124.807H209.114V136.145C209.114 137.305 209.39 138.195 209.94 138.816C210.491 139.438 211.247 139.748 212.208 139.748ZM236.747 124.807H231.843V141.805H228.925V124.807H225.479V123.488L228.925 122.434V121.361C228.925 116.627 230.993 114.26 235.13 114.26C236.149 114.26 237.345 114.465 238.716 114.875L237.96 117.213C236.835 116.85 235.874 116.668 235.077 116.668C233.976 116.668 233.161 117.037 232.634 117.775C232.106 118.502 231.843 119.674 231.843 121.291V122.539H236.747V124.807ZM248.401 142.156C245.554 142.156 243.304 141.289 241.651 139.555C240.011 137.82 239.19 135.412 239.19 132.33C239.19 129.225 239.952 126.758 241.476 124.93C243.011 123.102 245.067 122.188 247.646 122.188C250.06 122.188 251.97 122.984 253.376 124.578C254.782 126.16 255.485 128.252 255.485 130.854V132.699H242.214C242.272 134.961 242.841 136.678 243.919 137.85C245.009 139.021 246.538 139.607 248.507 139.607C250.581 139.607 252.632 139.174 254.659 138.307V140.908C253.628 141.354 252.649 141.67 251.724 141.857C250.81 142.057 249.702 142.156 248.401 142.156ZM247.61 124.631C246.063 124.631 244.827 125.135 243.901 126.143C242.987 127.15 242.448 128.545 242.284 130.326H252.356C252.356 128.486 251.946 127.08 251.126 126.107C250.306 125.123 249.134 124.631 247.61 124.631ZM268.616 142.156C265.769 142.156 263.519 141.289 261.866 139.555C260.226 137.82 259.405 135.412 259.405 132.33C259.405 129.225 260.167 126.758 261.69 124.93C263.226 123.102 265.282 122.188 267.86 122.188C270.274 122.188 272.185 122.984 273.591 124.578C274.997 126.16 275.7 128.252 275.7 130.854V132.699H262.429C262.487 134.961 263.056 136.678 264.134 137.85C265.224 139.021 266.753 139.607 268.722 139.607C270.796 139.607 272.847 139.174 274.874 138.307V140.908C273.843 141.354 272.864 141.67 271.938 141.857C271.024 142.057 269.917 142.156 268.616 142.156ZM267.825 124.631C266.278 124.631 265.042 125.135 264.116 126.143C263.202 127.15 262.663 128.545 262.499 130.326H272.571C272.571 128.486 272.161 127.08 271.341 126.107C270.521 125.123 269.349 124.631 267.825 124.631ZM293.12 136.549C293.12 138.342 292.452 139.725 291.116 140.697C289.78 141.67 287.905 142.156 285.491 142.156C282.937 142.156 280.944 141.752 279.515 140.943V138.236C280.44 138.705 281.431 139.074 282.485 139.344C283.552 139.613 284.577 139.748 285.562 139.748C287.085 139.748 288.257 139.508 289.077 139.027C289.897 138.535 290.308 137.791 290.308 136.795C290.308 136.045 289.979 135.406 289.323 134.879C288.679 134.34 287.413 133.707 285.526 132.98C283.733 132.312 282.456 131.732 281.694 131.24C280.944 130.736 280.382 130.168 280.007 129.535C279.644 128.902 279.462 128.146 279.462 127.268C279.462 125.697 280.101 124.461 281.378 123.559C282.655 122.645 284.407 122.188 286.634 122.188C288.708 122.188 290.735 122.609 292.716 123.453L291.679 125.826C289.745 125.029 287.993 124.631 286.423 124.631C285.04 124.631 283.997 124.848 283.294 125.281C282.591 125.715 282.239 126.312 282.239 127.074C282.239 127.59 282.368 128.029 282.626 128.393C282.896 128.756 283.323 129.102 283.909 129.43C284.495 129.758 285.62 130.232 287.284 130.854C289.569 131.686 291.11 132.523 291.907 133.367C292.716 134.211 293.12 135.271 293.12 136.549Z" fill="white"></path> <g filter="url(#filter0_b_28_8797)"> <g filter="url(#filter1_f_28_8797)"> <path d="M147.99 72.3328C160.057 72.3328 169.84 62.5502 169.84 50.4828C169.84 38.4154 160.057 28.6328 147.99 28.6328C135.922 28.6328 126.14 38.4154 126.14 50.4828C126.14 62.5502 135.922 72.3328 147.99 72.3328Z" fill="url(#paint0_linear_28_8797)" fill-opacity="0.6"></path> </g> <path d="M181.76 20.5727C180.763 19.5371 179.435 18.8816 178.007 18.7191C176.578 18.5566 175.138 18.8973 173.933 19.6825C172.729 20.4677 171.836 21.6482 171.408 23.0208C170.981 24.3934 171.045 25.8722 171.59 27.2026C171.613 27.2577 171.616 27.3193 171.597 27.3762C171.579 27.433 171.541 27.4815 171.49 27.5127L161.8 33.3627C161.771 33.3805 161.739 33.3923 161.706 33.3975C161.672 33.4026 161.638 33.4009 161.606 33.3925C161.573 33.384 161.542 33.3691 161.516 33.3485C161.489 33.3279 161.466 33.3021 161.45 33.2726C159.5 29.7726 157.53 26.2726 155.56 22.7126L151.96 16.2327C151.932 16.1831 151.921 16.1253 151.93 16.0688C151.939 16.0124 151.967 15.9608 152.01 15.9227C152.649 15.3512 153.158 14.6494 153.503 13.8645C153.848 13.0796 154.021 12.23 154.01 11.3727C154.014 10.3323 153.756 9.30757 153.26 8.39307C152.763 7.47856 152.045 6.70364 151.171 6.13965C150.297 5.57566 149.294 5.24073 148.257 5.16577C147.219 5.09081 146.179 5.27822 145.233 5.71069C144.286 6.14317 143.464 6.80686 142.842 7.64056C142.219 8.47427 141.817 9.45116 141.671 10.4813C141.525 11.5115 141.641 12.5618 142.008 13.5354C142.375 14.509 142.981 15.3747 143.77 16.0527C143.813 16.0906 143.842 16.1415 143.852 16.1975C143.863 16.2535 143.855 16.3116 143.83 16.3627L141.13 21.2527C138.96 25.1527 136.72 29.1827 134.41 33.2527C134.393 33.2821 134.371 33.3079 134.344 33.3285C134.318 33.3491 134.287 33.364 134.254 33.3724C134.221 33.3808 134.187 33.3826 134.154 33.3774C134.121 33.3723 134.089 33.3605 134.06 33.3427L131.59 31.8326L124.11 27.2726C124.057 27.243 124.018 27.1947 123.999 27.1372C123.981 27.0798 123.985 27.0174 124.01 26.9626C124.359 26.179 124.54 25.3306 124.54 24.4727C124.493 22.8615 123.818 21.3325 122.66 20.2117C121.502 19.0908 119.952 18.4668 118.34 18.4727H118.13C116.555 18.5251 115.059 19.174 113.945 20.2881C112.831 21.4021 112.182 22.898 112.13 24.4727C112.126 25.8628 112.593 27.2132 113.456 28.3032C114.319 29.3931 115.526 30.158 116.88 30.4727C116.923 30.4838 116.963 30.5064 116.995 30.538C117.026 30.5697 117.049 30.6093 117.06 30.6526L124.06 54.2327C124.06 54.3827 124.15 54.5327 124.19 54.6927V54.7527C124.54 56.0327 124.93 57.4727 126.53 57.4927H169.12C171.12 57.4927 171.43 55.9627 171.69 54.8427V54.6827C171.69 54.4827 171.8 54.2527 171.86 54.0427L178.71 30.9427C178.723 30.9016 178.747 30.8645 178.778 30.8348C178.81 30.8052 178.848 30.7838 178.89 30.7726C180.192 30.429 181.345 29.6677 182.172 28.6055C182.999 27.5433 183.455 26.2389 183.47 24.8926C183.494 23.283 182.879 21.7295 181.76 20.5727ZM147.88 9.29266C148.296 9.29661 148.702 9.42372 149.047 9.65796C149.391 9.8922 149.658 10.2231 149.815 10.6089C149.972 10.9948 150.011 11.4184 149.927 11.8264C149.843 12.2344 149.641 12.6085 149.345 12.9016C149.049 13.1947 148.673 13.3936 148.264 13.4735C147.855 13.5533 147.432 13.5103 147.048 13.35C146.664 13.1898 146.335 12.9194 146.104 12.5728C145.873 12.2263 145.75 11.8191 145.75 11.4026C145.758 10.842 145.985 10.3069 146.384 9.91229C146.782 9.51771 147.319 9.29523 147.88 9.29266V9.29266ZM119.93 25.9727L119.67 26.2227C119.305 26.474 118.873 26.6099 118.43 26.6127V26.6127C117.868 26.6127 117.328 26.3893 116.931 25.9918C116.533 25.5942 116.31 25.0549 116.31 24.4927C116.31 23.9304 116.533 23.3912 116.931 22.9936C117.328 22.596 117.868 22.3727 118.43 22.3727C118.992 22.3753 119.531 22.5991 119.93 22.9958C120.328 23.3926 120.555 23.9303 120.56 24.4927C120.558 24.7688 120.501 25.0417 120.393 25.2957C120.285 25.5497 120.127 25.7798 119.93 25.9727V25.9727ZM172.11 39.3326C172.096 39.3796 172.068 39.4214 172.03 39.4526L170.03 46.2627L168.18 53.4427C168.145 53.5668 168.07 53.676 167.967 53.7537C167.864 53.8313 167.739 53.8731 167.61 53.8727H128.51C128.403 53.8733 128.299 53.8397 128.212 53.7767C128.126 53.7137 128.062 53.6246 128.03 53.5226L122.19 33.5927C122.06 33.1427 121.92 32.6927 121.79 32.2527L121.39 30.8827C121.377 30.8345 121.378 30.7835 121.394 30.7363C121.411 30.689 121.44 30.6477 121.48 30.6176C121.52 30.5875 121.568 30.5699 121.618 30.5673C121.668 30.5646 121.717 30.5769 121.76 30.6027L130.43 35.8326L133.08 37.4227C133.44 37.6549 133.845 37.811 134.268 37.8815C134.691 37.952 135.124 37.9354 135.54 37.8326H135.6C135.993 37.7163 136.359 37.5205 136.674 37.2574C136.988 36.9942 137.246 36.6693 137.43 36.3027L147.76 17.7327C147.781 17.6932 147.813 17.6603 147.852 17.6375C147.891 17.6146 147.935 17.6025 147.98 17.6027C148.025 17.6036 148.068 17.616 148.107 17.6388C148.146 17.6616 148.178 17.6939 148.2 17.7327L150.57 21.9927C153.15 26.6027 155.75 31.2927 158.31 35.9227C158.51 36.3669 158.8 36.7649 159.162 37.0918C159.523 37.4187 159.948 37.6676 160.41 37.8227C160.642 37.8797 160.881 37.9098 161.12 37.9127C161.856 37.8801 162.569 37.6448 163.18 37.2327L174.18 30.5727C174.224 30.5462 174.274 30.5322 174.325 30.5322C174.376 30.5322 174.426 30.5462 174.47 30.5727C174.509 30.6045 174.537 30.6472 174.552 30.6953C174.566 30.7435 174.565 30.7948 174.55 30.8427L172.11 39.3326ZM177.68 26.9727H177.34C177.063 26.9675 176.789 26.9073 176.535 26.7958C176.281 26.6842 176.051 26.5234 175.86 26.3227C175.663 26.1253 175.51 25.8889 175.41 25.6289C175.311 25.3689 175.266 25.0909 175.28 24.8127C175.325 24.2792 175.572 23.783 175.97 23.4246C176.368 23.0662 176.887 22.8724 177.422 22.8826C177.958 22.8927 178.469 23.1061 178.853 23.4793C179.237 23.8526 179.465 24.3578 179.49 24.8926C179.482 25.3971 179.296 25.8824 178.965 26.263C178.633 26.6436 178.178 26.8949 177.68 26.9727V26.9727Z" fill="white"></path> <path d="M154.46 62.9226H128.08V67.1626H154.46V62.9226Z" fill="white"></path> <path d="M167.92 62.9226H159.2V67.1626H167.92V62.9226Z" fill="white"></path> </g> <defs> <filter id="filter0_b_28_8797" x="-51.8701" y="-158.85" width="399.341" height="395.183" filterUnits="userSpaceOnUse" color-interpolation-filters="sRGB"> <feFlood flood-opacity="0" result="BackgroundImageFix"></feFlood> <feGaussianBlur in="BackgroundImage" stdDeviation="82"></feGaussianBlur> <feComposite in2="SourceAlpha" operator="in" result="effect1_backgroundBlur_28_8797"></feComposite> <feBlend mode="normal" in="SourceGraphic" in2="effect1_backgroundBlur_28_8797" result="shape"></feBlend> </filter> <filter id="filter1_f_28_8797" x="116.14" y="18.6328" width="63.7" height="63.7" filterUnits="userSpaceOnUse" color-interpolation-filters="sRGB"> <feFlood flood-opacity="0" result="BackgroundImageFix"></feFlood> <feBlend mode="normal" in="SourceGraphic" in2="BackgroundImageFix" result="shape"></feBlend> <feGaussianBlur stdDeviation="5" result="effect1_foregroundBlur_28_8797"></feGaussianBlur> </filter> <linearGradient id="paint0_linear_28_8797" x1="126.14" y1="28.6328" x2="178.812" y2="52.685" gradientUnits="userSpaceOnUse"> <stop stop-color="#00CAE7"></stop> <stop offset="0.482292" stop-color="#897BFF"></stop> <stop offset="1" stop-color="#EB00FF"></stop> </linearGradient> </defs> </svg> 