<?xml version="1.0" encoding="UTF-8"?> <svg xmlns="http://www.w3.org/2000/svg" width="257" height="202" viewBox="0 0 257 202" fill="none"> <path d="M41.8771 141.805H38.467L24.422 120.236H24.2814C24.4689 122.768 24.5627 125.088 24.5627 127.197V141.805H21.8029V116.105H25.1779L39.1877 137.586H39.3283C39.3049 137.27 39.2521 136.256 39.1701 134.545C39.0881 132.822 39.0588 131.592 39.0822 130.854V116.105H41.8771V141.805ZM65.133 132.154C65.133 135.295 64.342 137.75 62.7599 139.52C61.1779 141.277 58.9924 142.156 56.2033 142.156C54.4806 142.156 52.9513 141.752 51.6154 140.943C50.2795 140.135 49.2482 138.975 48.5217 137.463C47.7951 135.951 47.4318 134.182 47.4318 132.154C47.4318 129.014 48.217 126.57 49.7873 124.824C51.3576 123.066 53.5373 122.188 56.3263 122.188C59.0217 122.188 61.1603 123.084 62.7424 124.877C64.3361 126.67 65.133 129.096 65.133 132.154ZM50.4552 132.154C50.4552 134.615 50.9474 136.49 51.9318 137.779C52.9162 139.068 54.3634 139.713 56.2736 139.713C58.1838 139.713 59.631 139.074 60.6154 137.797C61.6115 136.508 62.1095 134.627 62.1095 132.154C62.1095 129.705 61.6115 127.848 60.6154 126.582C59.631 125.305 58.172 124.666 56.2384 124.666C54.3283 124.666 52.8869 125.293 51.9142 126.547C50.9416 127.801 50.4552 129.67 50.4552 132.154ZM104.174 141.805V129.271C104.174 127.736 103.846 126.588 103.19 125.826C102.533 125.053 101.514 124.666 100.131 124.666C98.3146 124.666 96.9728 125.188 96.1056 126.23C95.2384 127.273 94.8049 128.879 94.8049 131.047V141.805H91.8869V129.271C91.8869 127.736 91.5588 126.588 90.9025 125.826C90.2463 125.053 89.2209 124.666 87.8263 124.666C85.9982 124.666 84.6564 125.217 83.8009 126.318C82.9572 127.408 82.5353 129.201 82.5353 131.697V141.805H79.6174V122.539H81.9904L82.465 125.176H82.6056C83.1564 124.238 83.9299 123.506 84.9259 122.979C85.9338 122.451 87.0588 122.188 88.3009 122.188C91.3127 122.188 93.2814 123.277 94.2072 125.457H94.3478C94.922 124.449 95.7541 123.652 96.8439 123.066C97.9338 122.48 99.1759 122.188 100.57 122.188C102.75 122.188 104.379 122.75 105.457 123.875C106.547 124.988 107.092 126.775 107.092 129.236V141.805H104.174ZM116.039 141.805H113.121V122.539H116.039V141.805ZM112.875 117.318C112.875 116.65 113.039 116.164 113.367 115.859C113.695 115.543 114.106 115.385 114.598 115.385C115.067 115.385 115.471 115.543 115.811 115.859C116.151 116.176 116.32 116.662 116.32 117.318C116.32 117.975 116.151 118.467 115.811 118.795C115.471 119.111 115.067 119.27 114.598 119.27C114.106 119.27 113.695 119.111 113.367 118.795C113.039 118.467 112.875 117.975 112.875 117.318ZM135.41 141.805V129.342C135.41 127.771 135.053 126.6 134.338 125.826C133.623 125.053 132.504 124.666 130.981 124.666C128.965 124.666 127.488 125.211 126.551 126.301C125.613 127.391 125.145 129.189 125.145 131.697V141.805H122.227V122.539H124.6L125.074 125.176H125.215C125.813 124.227 126.651 123.494 127.729 122.979C128.807 122.451 130.008 122.188 131.332 122.188C133.653 122.188 135.399 122.75 136.57 123.875C137.742 124.988 138.328 126.775 138.328 129.236V141.805H135.41ZM147.258 141.805H144.34V122.539H147.258V141.805ZM144.094 117.318C144.094 116.65 144.258 116.164 144.586 115.859C144.914 115.543 145.324 115.385 145.817 115.385C146.285 115.385 146.69 115.543 147.029 115.859C147.369 116.176 147.539 116.662 147.539 117.318C147.539 117.975 147.369 118.467 147.029 118.795C146.69 119.111 146.285 119.27 145.817 119.27C145.324 119.27 144.914 119.111 144.586 118.795C144.258 118.467 144.094 117.975 144.094 117.318ZM178.002 141.805V129.271C178.002 127.736 177.674 126.588 177.018 125.826C176.361 125.053 175.342 124.666 173.959 124.666C172.143 124.666 170.801 125.188 169.934 126.23C169.067 127.273 168.633 128.879 168.633 131.047V141.805H165.715V129.271C165.715 127.736 165.387 126.588 164.731 125.826C164.074 125.053 163.049 124.666 161.654 124.666C159.826 124.666 158.485 125.217 157.629 126.318C156.785 127.408 156.363 129.201 156.363 131.697V141.805H153.445V122.539H155.819L156.293 125.176H156.434C156.985 124.238 157.758 123.506 158.754 122.979C159.762 122.451 160.887 122.188 162.129 122.188C165.141 122.188 167.11 123.277 168.035 125.457H168.176C168.75 124.449 169.582 123.652 170.672 123.066C171.762 122.48 173.004 122.188 174.399 122.188C176.578 122.188 178.207 122.75 179.285 123.875C180.375 124.988 180.92 126.775 180.92 129.236V141.805H178.002ZM189.692 122.539V135.037C189.692 136.607 190.049 137.779 190.764 138.553C191.479 139.326 192.598 139.713 194.121 139.713C196.137 139.713 197.608 139.162 198.533 138.061C199.471 136.959 199.94 135.16 199.94 132.664V122.539H202.858V141.805H200.449L200.028 139.221H199.869C199.272 140.17 198.44 140.896 197.373 141.4C196.319 141.904 195.111 142.156 193.752 142.156C191.408 142.156 189.651 141.6 188.479 140.486C187.319 139.373 186.738 137.592 186.738 135.143V122.539H189.692ZM233.619 141.805V129.271C233.619 127.736 233.291 126.588 232.635 125.826C231.979 125.053 230.959 124.666 229.576 124.666C227.76 124.666 226.418 125.188 225.551 126.23C224.684 127.273 224.25 128.879 224.25 131.047V141.805H221.332V129.271C221.332 127.736 221.004 126.588 220.348 125.826C219.692 125.053 218.666 124.666 217.272 124.666C215.444 124.666 214.102 125.217 213.246 126.318C212.403 127.408 211.981 129.201 211.981 131.697V141.805H209.063V122.539H211.436L211.91 125.176H212.051C212.602 124.238 213.375 123.506 214.371 122.979C215.379 122.451 216.504 122.188 217.746 122.188C220.758 122.188 222.727 123.277 223.653 125.457H223.793C224.367 124.449 225.199 123.652 226.289 123.066C227.379 122.48 228.621 122.188 230.016 122.188C232.195 122.188 233.824 122.75 234.903 123.875C235.992 124.988 236.537 126.775 236.537 129.236V141.805H233.619ZM35.9709 171.223C38.5021 171.223 40.465 172.09 41.8595 173.824C43.2658 175.547 43.9689 177.99 43.9689 181.154C43.9689 184.318 43.2599 186.779 41.842 188.537C40.4357 190.283 38.4787 191.156 35.9709 191.156C34.717 191.156 33.5685 190.928 32.5256 190.471C31.4943 190.002 30.6271 189.287 29.924 188.326H29.7131L29.0978 190.805H27.006V163.453H29.924V170.098C29.924 171.586 29.8771 172.922 29.7834 174.105H29.924C31.2834 172.184 33.299 171.223 35.9709 171.223ZM35.549 173.666C33.5568 173.666 32.1213 174.24 31.2424 175.389C30.3634 176.525 29.924 178.447 29.924 181.154C29.924 183.861 30.3752 185.801 31.2775 186.973C32.1799 188.133 33.6271 188.713 35.6193 188.713C37.4123 188.713 38.7482 188.062 39.6271 186.762C40.506 185.449 40.9455 183.568 40.9455 181.119C40.9455 178.611 40.506 176.742 39.6271 175.512C38.7482 174.281 37.3888 173.666 35.549 173.666ZM60.9318 190.805L60.3517 188.062H60.2111C59.2502 189.27 58.2892 190.09 57.3283 190.523C56.3791 190.945 55.1896 191.156 53.7599 191.156C51.8498 191.156 50.3498 190.664 49.2599 189.68C48.1818 188.695 47.6427 187.295 47.6427 185.479C47.6427 181.588 50.7541 179.549 56.9767 179.361L60.2463 179.256V178.061C60.2463 176.549 59.9181 175.436 59.2619 174.721C58.6174 173.994 57.5802 173.631 56.1506 173.631C54.5451 173.631 52.7287 174.123 50.7013 175.107L49.8049 172.875C50.7541 172.359 51.7912 171.955 52.9162 171.662C54.0529 171.369 55.1896 171.223 56.3263 171.223C58.6232 171.223 60.3224 171.732 61.424 172.752C62.5373 173.771 63.0939 175.406 63.0939 177.656V190.805H60.9318ZM54.34 188.748C56.1564 188.748 57.5802 188.25 58.6115 187.254C59.6545 186.258 60.1759 184.863 60.1759 183.07V181.33L57.258 181.453C54.9377 181.535 53.2619 181.898 52.2306 182.543C51.2111 183.176 50.7013 184.166 50.7013 185.514C50.7013 186.568 51.0177 187.371 51.6506 187.922C52.2951 188.473 53.1916 188.748 54.34 188.748ZM72.0412 190.805H69.1232V163.453H72.0412V190.805ZM90.0763 190.805L89.4963 188.062H89.3556C88.3947 189.27 87.4338 190.09 86.4728 190.523C85.5236 190.945 84.3342 191.156 82.9045 191.156C80.9943 191.156 79.4943 190.664 78.4045 189.68C77.3263 188.695 76.7873 187.295 76.7873 185.479C76.7873 181.588 79.8986 179.549 86.1213 179.361L89.3908 179.256V178.061C89.3908 176.549 89.0627 175.436 88.4064 174.721C87.7619 173.994 86.7248 173.631 85.2951 173.631C83.6896 173.631 81.8732 174.123 79.8459 175.107L78.9494 172.875C79.8986 172.359 80.9357 171.955 82.0607 171.662C83.1974 171.369 84.3342 171.223 85.4709 171.223C87.7677 171.223 89.467 171.732 90.5685 172.752C91.6818 173.771 92.2384 175.406 92.2384 177.656V190.805H90.0763ZM83.4845 188.748C85.3009 188.748 86.7248 188.25 87.756 187.254C88.799 186.258 89.3205 184.863 89.3205 183.07V181.33L86.4025 181.453C84.0822 181.535 82.4064 181.898 81.3752 182.543C80.3556 183.176 79.8459 184.166 79.8459 185.514C79.8459 186.568 80.1623 187.371 80.7951 187.922C81.4396 188.473 82.3361 188.748 83.4845 188.748ZM111.451 190.805V178.342C111.451 176.771 111.094 175.6 110.379 174.826C109.664 174.053 108.545 173.666 107.022 173.666C105.006 173.666 103.529 174.211 102.592 175.301C101.654 176.391 101.186 178.189 101.186 180.697V190.805H98.2677V171.539H100.641L101.115 174.176H101.256C101.854 173.227 102.692 172.494 103.77 171.979C104.848 171.451 106.049 171.188 107.373 171.188C109.694 171.188 111.44 171.75 112.611 172.875C113.783 173.988 114.369 175.775 114.369 178.236V190.805H111.451ZM128.08 191.156C125.291 191.156 123.129 190.301 121.594 188.59C120.07 186.867 119.309 184.436 119.309 181.295C119.309 178.072 120.082 175.582 121.629 173.824C123.188 172.066 125.403 171.188 128.274 171.188C129.199 171.188 130.125 171.287 131.051 171.486C131.977 171.686 132.703 171.92 133.231 172.189L132.334 174.668C131.69 174.41 130.986 174.199 130.225 174.035C129.463 173.859 128.789 173.771 128.203 173.771C124.289 173.771 122.332 176.268 122.332 181.26C122.332 183.627 122.807 185.443 123.756 186.709C124.717 187.975 126.135 188.607 128.01 188.607C129.615 188.607 131.262 188.262 132.949 187.57V190.154C131.66 190.822 130.037 191.156 128.08 191.156ZM145.676 191.156C142.828 191.156 140.578 190.289 138.926 188.555C137.285 186.82 136.465 184.412 136.465 181.33C136.465 178.225 137.227 175.758 138.75 173.93C140.285 172.102 142.342 171.188 144.92 171.188C147.334 171.188 149.244 171.984 150.651 173.578C152.057 175.16 152.76 177.252 152.76 179.854V181.699H139.488C139.547 183.961 140.115 185.678 141.194 186.85C142.283 188.021 143.813 188.607 145.781 188.607C147.856 188.607 149.906 188.174 151.934 187.307V189.908C150.903 190.354 149.924 190.67 148.998 190.857C148.084 191.057 146.977 191.156 145.676 191.156ZM144.885 173.631C143.338 173.631 142.102 174.135 141.176 175.143C140.262 176.15 139.723 177.545 139.559 179.326H149.631C149.631 177.486 149.221 176.08 148.401 175.107C147.58 174.123 146.408 173.631 144.885 173.631ZM175.787 173.807H170.883V190.805H167.965V173.807H164.52V172.488L167.965 171.434V170.361C167.965 165.627 170.033 163.26 174.17 163.26C175.19 163.26 176.385 163.465 177.756 163.875L177 166.213C175.875 165.85 174.914 165.668 174.117 165.668C173.016 165.668 172.201 166.037 171.674 166.775C171.147 167.502 170.883 168.674 170.883 170.291V171.539H175.787V173.807ZM187.442 191.156C184.594 191.156 182.344 190.289 180.692 188.555C179.051 186.82 178.231 184.412 178.231 181.33C178.231 178.225 178.992 175.758 180.516 173.93C182.051 172.102 184.108 171.188 186.686 171.188C189.1 171.188 191.01 171.984 192.416 173.578C193.822 175.16 194.526 177.252 194.526 179.854V181.699H181.254C181.313 183.961 181.881 185.678 182.959 186.85C184.049 188.021 185.578 188.607 187.547 188.607C189.621 188.607 191.672 188.174 193.699 187.307V189.908C192.668 190.354 191.69 190.67 190.764 190.857C189.85 191.057 188.742 191.156 187.442 191.156ZM186.651 173.631C185.104 173.631 183.867 174.135 182.942 175.143C182.028 176.15 181.488 177.545 181.324 179.326H191.397C191.397 177.486 190.986 176.08 190.166 175.107C189.346 174.123 188.174 173.631 186.651 173.631ZM207.656 191.156C204.809 191.156 202.559 190.289 200.906 188.555C199.266 186.82 198.445 184.412 198.445 181.33C198.445 178.225 199.207 175.758 200.731 173.93C202.266 172.102 204.322 171.188 206.901 171.188C209.315 171.188 211.225 171.984 212.631 173.578C214.037 175.16 214.74 177.252 214.74 179.854V181.699H201.469C201.528 183.961 202.096 185.678 203.174 186.85C204.264 188.021 205.793 188.607 207.762 188.607C209.836 188.607 211.887 188.174 213.914 187.307V189.908C212.883 190.354 211.904 190.67 210.979 190.857C210.065 191.057 208.957 191.156 207.656 191.156ZM206.865 173.631C205.319 173.631 204.082 174.135 203.156 175.143C202.242 176.15 201.703 177.545 201.539 179.326H211.611C211.611 177.486 211.201 176.08 210.381 175.107C209.561 174.123 208.389 173.631 206.865 173.631ZM232.16 185.549C232.16 187.342 231.492 188.725 230.156 189.697C228.82 190.67 226.945 191.156 224.531 191.156C221.977 191.156 219.985 190.752 218.555 189.943V187.236C219.481 187.705 220.471 188.074 221.526 188.344C222.592 188.613 223.617 188.748 224.602 188.748C226.125 188.748 227.297 188.508 228.117 188.027C228.938 187.535 229.348 186.791 229.348 185.795C229.348 185.045 229.02 184.406 228.363 183.879C227.719 183.34 226.453 182.707 224.567 181.98C222.774 181.312 221.496 180.732 220.735 180.24C219.985 179.736 219.422 179.168 219.047 178.535C218.684 177.902 218.502 177.146 218.502 176.268C218.502 174.697 219.141 173.461 220.418 172.559C221.695 171.645 223.447 171.188 225.674 171.188C227.748 171.188 229.776 171.609 231.756 172.453L230.719 174.826C228.785 174.029 227.033 173.631 225.463 173.631C224.08 173.631 223.037 173.848 222.334 174.281C221.631 174.715 221.279 175.312 221.279 176.074C221.279 176.59 221.408 177.029 221.666 177.393C221.936 177.756 222.363 178.102 222.949 178.43C223.535 178.758 224.66 179.232 226.324 179.854C228.61 180.686 230.151 181.523 230.947 182.367C231.756 183.211 232.16 184.271 232.16 185.549Z" fill="white"></path> <g filter="url(#filter0_b_28_8798)"> <g filter="url(#filter1_f_28_8798)"> <path d="M128.867 72.3732C142.636 72.3732 153.798 61.2116 153.798 47.4432C153.798 33.6747 142.636 22.5132 128.867 22.5132C115.099 22.5132 103.938 33.6747 103.938 47.4432C103.938 61.2116 115.099 72.3732 128.867 72.3732Z" fill="url(#paint0_linear_28_8798)" fill-opacity="0.6"></path> </g> <path d="M138.797 0.223145H130.547V4.95312H138.797V0.223145Z" fill="white"></path> <path d="M164.707 11.6831C164.724 11.0916 164.51 10.5169 164.111 10.0802C163.711 9.64355 163.158 9.37924 162.567 9.34314H154.567V8.13312C154.567 5.95312 154.507 4.13313 154.377 2.39313C154.351 1.8295 154.116 1.29566 153.719 0.894836C153.322 0.494014 152.79 0.254701 152.227 0.223145H144.867V4.94312H150.317V5.53314C150.317 6.42314 150.317 7.29312 150.317 8.13312C150.327 13.5456 149.753 18.9434 148.607 24.2331C147.618 28.8454 146.066 33.3189 143.987 37.5531C142.338 41.014 140.024 44.1163 137.177 46.6831C134.886 48.7879 131.916 50.0013 128.807 50.1031C125.697 50.0178 122.725 48.8019 120.447 46.6831C117.596 44.1199 115.281 41.0167 113.637 37.5531C111.554 33.3234 110.012 28.8482 109.047 24.2331C107.902 18.9432 107.328 13.5456 107.337 8.13312C107.337 7.29312 107.337 6.42314 107.337 5.53314V4.94312H122.527V0.223145H105.387C104.816 0.25318 104.278 0.497421 103.879 0.907104C103.481 1.31679 103.251 1.86172 103.237 2.43311C103.137 4.33311 103.047 6.3331 103.047 8.1731V9.38312H95.1771C94.5794 9.41675 94.0188 9.68419 93.6165 10.1276C93.2143 10.5711 93.0026 11.1549 93.0271 11.7531C92.4771 24.1631 97.3271 37.8331 109.377 40.4031C109.499 40.4441 109.628 40.4611 109.757 40.4531H110.057L110.197 40.7331C111.798 43.8491 113.861 46.7048 116.317 49.2031C118.957 51.9994 122.398 53.9101 126.167 54.6731L126.627 54.7631V67.5431H130.917V54.6831L131.377 54.5931C135.15 53.8467 138.595 51.9374 141.227 49.1331C143.681 46.6331 145.744 43.7778 147.347 40.6631L147.517 40.3531H147.867H147.947C148.073 40.3723 148.201 40.3723 148.327 40.3531V40.3531C160.427 37.8531 165.257 24.1331 164.707 11.6831ZM106.427 34.3531C102.167 31.8731 97.5571 25.4231 97.4271 14.7631V14.0631H103.317L103.377 14.6631C103.848 21.1325 105.135 27.5164 107.207 33.6631L107.727 35.1731L106.427 34.3531ZM160.427 14.6431C160.267 25.5231 155.567 32.0031 151.217 34.4231L149.917 35.1431L150.447 33.6531C151.785 29.7454 152.789 25.7309 153.447 21.6531L153.607 20.6531C153.887 18.6531 154.117 16.7131 154.267 14.8531L154.347 14.5531V13.9631H160.347L160.427 14.6431Z" fill="white"></path> <path d="M144.017 67.543H113.397V72.273H144.017V67.543Z" fill="white"></path> </g> <defs> <filter id="filter0_b_28_8798" x="-71.0146" y="-163.777" width="399.764" height="400.15" filterUnits="userSpaceOnUse" color-interpolation-filters="sRGB"> <feFlood flood-opacity="0" result="BackgroundImageFix"></feFlood> <feGaussianBlur in="BackgroundImage" stdDeviation="82"></feGaussianBlur> <feComposite in2="SourceAlpha" operator="in" result="effect1_backgroundBlur_28_8798"></feComposite> <feBlend mode="normal" in="SourceGraphic" in2="effect1_backgroundBlur_28_8798" result="shape"></feBlend> </filter> <filter id="filter1_f_28_8798" x="93.9375" y="12.5132" width="69.86" height="69.8599" filterUnits="userSpaceOnUse" color-interpolation-filters="sRGB"> <feFlood flood-opacity="0" result="BackgroundImageFix"></feFlood> <feBlend mode="normal" in="SourceGraphic" in2="BackgroundImageFix" result="shape"></feBlend> <feGaussianBlur stdDeviation="5" result="effect1_foregroundBlur_28_8798"></feGaussianBlur> </filter> <linearGradient id="paint0_linear_28_8798" x1="103.937" y1="22.5132" x2="164.034" y2="49.9558" gradientUnits="userSpaceOnUse"> <stop stop-color="#00CAE7"></stop> <stop offset="0.482292" stop-color="#897BFF"></stop> <stop offset="1" stop-color="#EB00FF"></stop> </linearGradient> </defs> </svg> 