<?xml version="1.0" encoding="UTF-8"?> <svg xmlns="http://www.w3.org/2000/svg" width="267" height="161" viewBox="0 0 267 161" fill="none"> <path d="M29.7974 149.805H26.3872L12.3423 128.236H12.2017C12.3892 130.768 12.4829 133.088 12.4829 135.197V149.805H9.72314V124.105H13.0981L27.1079 145.586H27.2485C27.2251 145.27 27.1724 144.256 27.0903 142.545C27.0083 140.822 26.979 139.592 27.0024 138.854V124.105H29.7974V149.805ZM53.0532 140.154C53.0532 143.295 52.2622 145.75 50.6802 147.52C49.0981 149.277 46.9126 150.156 44.1235 150.156C42.4009 150.156 40.8716 149.752 39.5356 148.943C38.1997 148.135 37.1685 146.975 36.4419 145.463C35.7153 143.951 35.3521 142.182 35.3521 140.154C35.3521 137.014 36.1372 134.57 37.7075 132.824C39.2778 131.066 41.4575 130.188 44.2466 130.188C46.9419 130.188 49.0806 131.084 50.6626 132.877C52.2563 134.67 53.0532 137.096 53.0532 140.154ZM38.3755 140.154C38.3755 142.615 38.8677 144.49 39.8521 145.779C40.8364 147.068 42.2837 147.713 44.1938 147.713C46.104 147.713 47.5513 147.074 48.5356 145.797C49.5317 144.508 50.0298 142.627 50.0298 140.154C50.0298 137.705 49.5317 135.848 48.5356 134.582C47.5513 133.305 46.0923 132.666 44.1587 132.666C42.2485 132.666 40.8071 133.293 39.8345 134.547C38.8618 135.801 38.3755 137.67 38.3755 140.154ZM80.7212 149.805V137.342C80.7212 135.771 80.3638 134.6 79.6489 133.826C78.9341 133.053 77.8149 132.666 76.2915 132.666C74.2642 132.666 72.7817 133.217 71.8442 134.318C70.9185 135.42 70.4556 137.225 70.4556 139.732V149.805H67.5376V122.453H70.4556V130.732C70.4556 131.729 70.4087 132.555 70.3149 133.211H70.4907C71.0649 132.285 71.8794 131.559 72.9341 131.031C74.0005 130.492 75.2134 130.223 76.5728 130.223C78.9282 130.223 80.6919 130.785 81.8638 131.91C83.0474 133.023 83.6392 134.799 83.6392 137.236V149.805H80.7212ZM92.5688 149.805H89.6509V130.539H92.5688V149.805ZM89.4048 125.318C89.4048 124.65 89.5688 124.164 89.897 123.859C90.2251 123.543 90.6353 123.385 91.1274 123.385C91.5962 123.385 92.0005 123.543 92.3403 123.859C92.6802 124.176 92.8501 124.662 92.8501 125.318C92.8501 125.975 92.6802 126.467 92.3403 126.795C92.0005 127.111 91.5962 127.27 91.1274 127.27C90.6353 127.27 90.2251 127.111 89.897 126.795C89.5688 126.467 89.4048 125.975 89.4048 125.318ZM111.87 147.221H111.711C110.364 149.178 108.348 150.156 105.665 150.156C103.145 150.156 101.182 149.295 99.7759 147.572C98.3813 145.85 97.6841 143.4 97.6841 140.225C97.6841 137.049 98.3872 134.582 99.7935 132.824C101.2 131.066 103.157 130.188 105.665 130.188C108.278 130.188 110.282 131.137 111.676 133.035H111.905L111.782 131.646L111.711 130.293V122.453H114.629V149.805H112.256L111.87 147.221ZM106.034 147.713C108.026 147.713 109.467 147.174 110.358 146.096C111.26 145.006 111.711 143.254 111.711 140.84V140.225C111.711 137.494 111.254 135.549 110.34 134.389C109.438 133.217 107.991 132.631 105.999 132.631C104.288 132.631 102.975 133.299 102.061 134.635C101.159 135.959 100.708 137.834 100.708 140.26C100.708 142.721 101.159 144.578 102.061 145.832C102.963 147.086 104.288 147.713 106.034 147.713ZM133.948 147.221H133.79C132.442 149.178 130.426 150.156 127.743 150.156C125.223 150.156 123.26 149.295 121.854 147.572C120.459 145.85 119.762 143.4 119.762 140.225C119.762 137.049 120.465 134.582 121.872 132.824C123.278 131.066 125.235 130.188 127.743 130.188C130.356 130.188 132.36 131.137 133.754 133.035H133.983L133.86 131.646L133.79 130.293V122.453H136.708V149.805H134.334L133.948 147.221ZM128.112 147.713C130.104 147.713 131.545 147.174 132.436 146.096C133.338 145.006 133.79 143.254 133.79 140.84V140.225C133.79 137.494 133.333 135.549 132.418 134.389C131.516 133.217 130.069 132.631 128.077 132.631C126.366 132.631 125.053 133.299 124.139 134.635C123.237 135.959 122.786 137.834 122.786 140.26C122.786 142.721 123.237 144.578 124.139 145.832C125.042 147.086 126.366 147.713 128.112 147.713ZM151.051 150.156C148.204 150.156 145.954 149.289 144.301 147.555C142.661 145.82 141.84 143.412 141.84 140.33C141.84 137.225 142.602 134.758 144.125 132.93C145.661 131.102 147.717 130.188 150.295 130.188C152.709 130.188 154.62 130.984 156.026 132.578C157.432 134.16 158.135 136.252 158.135 138.854V140.699H144.864C144.922 142.961 145.491 144.678 146.569 145.85C147.659 147.021 149.188 147.607 151.157 147.607C153.231 147.607 155.282 147.174 157.309 146.307V148.908C156.278 149.354 155.299 149.67 154.374 149.857C153.459 150.057 152.352 150.156 151.051 150.156ZM150.26 132.631C148.713 132.631 147.477 133.135 146.551 134.143C145.637 135.15 145.098 136.545 144.934 138.326H155.006C155.006 136.486 154.596 135.08 153.776 134.107C152.956 133.123 151.784 132.631 150.26 132.631ZM176.311 149.805V137.342C176.311 135.771 175.954 134.6 175.239 133.826C174.524 133.053 173.405 132.666 171.881 132.666C169.866 132.666 168.389 133.211 167.452 134.301C166.514 135.391 166.045 137.189 166.045 139.697V149.805H163.127V130.539H165.5L165.975 133.176H166.116C166.713 132.227 167.551 131.494 168.629 130.979C169.708 130.451 170.909 130.188 172.233 130.188C174.553 130.188 176.299 130.75 177.471 131.875C178.643 132.988 179.229 134.775 179.229 137.236V149.805H176.311ZM203.276 132.807H198.372V149.805H195.454V132.807H192.008V131.488L195.454 130.434V129.361C195.454 124.627 197.522 122.26 201.659 122.26C202.678 122.26 203.874 122.465 205.245 122.875L204.489 125.213C203.364 124.85 202.403 124.668 201.606 124.668C200.504 124.668 199.69 125.037 199.163 125.775C198.635 126.502 198.372 127.674 198.372 129.291V130.539H203.276V132.807ZM214.93 150.156C212.083 150.156 209.833 149.289 208.18 147.555C206.54 145.82 205.719 143.412 205.719 140.33C205.719 137.225 206.481 134.758 208.004 132.93C209.54 131.102 211.596 130.188 214.174 130.188C216.588 130.188 218.499 130.984 219.905 132.578C221.311 134.16 222.014 136.252 222.014 138.854V140.699H208.743C208.801 142.961 209.37 144.678 210.448 145.85C211.538 147.021 213.067 147.607 215.036 147.607C217.11 147.607 219.161 147.174 221.188 146.307V148.908C220.157 149.354 219.178 149.67 218.252 149.857C217.338 150.057 216.231 150.156 214.93 150.156ZM214.139 132.631C212.592 132.631 211.356 133.135 210.43 134.143C209.516 135.15 208.977 136.545 208.813 138.326H218.885C218.885 136.486 218.475 135.08 217.655 134.107C216.834 133.123 215.663 132.631 214.139 132.631ZM235.145 150.156C232.297 150.156 230.047 149.289 228.395 147.555C226.754 145.82 225.934 143.412 225.934 140.33C225.934 137.225 226.696 134.758 228.219 132.93C229.754 131.102 231.811 130.188 234.389 130.188C236.803 130.188 238.713 130.984 240.12 132.578C241.526 134.16 242.229 136.252 242.229 138.854V140.699H228.958C229.016 142.961 229.584 144.678 230.663 145.85C231.752 147.021 233.282 147.607 235.25 147.607C237.325 147.607 239.375 147.174 241.403 146.307V148.908C240.372 149.354 239.393 149.67 238.467 149.857C237.553 150.057 236.446 150.156 235.145 150.156ZM234.354 132.631C232.807 132.631 231.571 133.135 230.645 134.143C229.731 135.15 229.192 136.545 229.028 138.326H239.1C239.1 136.486 238.69 135.08 237.87 134.107C237.049 133.123 235.877 132.631 234.354 132.631ZM259.649 144.549C259.649 146.342 258.981 147.725 257.645 148.697C256.309 149.67 254.434 150.156 252.02 150.156C249.465 150.156 247.473 149.752 246.043 148.943V146.236C246.969 146.705 247.959 147.074 249.014 147.344C250.081 147.613 251.106 147.748 252.09 147.748C253.614 147.748 254.786 147.508 255.606 147.027C256.426 146.535 256.836 145.791 256.836 144.795C256.836 144.045 256.508 143.406 255.852 142.879C255.208 142.34 253.942 141.707 252.055 140.98C250.262 140.312 248.985 139.732 248.223 139.24C247.473 138.736 246.911 138.168 246.536 137.535C246.172 136.902 245.991 136.146 245.991 135.268C245.991 133.697 246.629 132.461 247.907 131.559C249.184 130.645 250.936 130.188 253.163 130.188C255.237 130.188 257.264 130.609 259.245 131.453L258.208 133.826C256.274 133.029 254.522 132.631 252.952 132.631C251.569 132.631 250.526 132.848 249.823 133.281C249.12 133.715 248.768 134.312 248.768 135.074C248.768 135.59 248.897 136.029 249.155 136.393C249.424 136.756 249.852 137.102 250.438 137.43C251.024 137.758 252.149 138.232 253.813 138.854C256.098 139.686 257.639 140.523 258.436 141.367C259.245 142.211 259.649 143.271 259.649 144.549Z" fill="white"></path> <g filter="url(#filter0_b_28_8796)"> <g filter="url(#filter1_f_28_8796)"> <path d="M124.864 38.8379L134.324 75.6779L170.264 38.8379H124.864Z" fill="url(#paint0_linear_28_8796)" fill-opacity="0.4"></path> </g> <path d="M169.964 40.358C170.174 40.1852 170.342 39.9662 170.454 39.718C170.592 39.4477 170.67 39.1511 170.684 38.848V38.678H170.804H170.684C170.684 38.678 170.684 38.5881 170.684 38.5381V38.488C170.684 38.488 170.684 38.4281 170.684 38.3981C170.612 37.9835 170.4 37.606 170.084 37.328L169.924 37.208L150.194 19.5381C150.019 19.3102 149.798 19.1226 149.544 18.988C149.315 18.8604 149.064 18.7788 148.804 18.748H148.504H119.044C118.572 18.7586 118.118 18.9277 117.754 19.228L97.6241 37.228L97.464 37.3781C97.1783 37.6431 96.9796 37.9885 96.8939 38.3687C96.8082 38.7488 96.8396 39.1461 96.984 39.5081C97.1128 39.9089 97.3648 40.2588 97.704 40.5081C101.114 44.0681 130.434 74.5681 132.204 76.3981C132.421 76.6443 132.696 76.8332 133.004 76.948H133.144H133.224H133.394H133.464H133.714H133.774V77.068V76.948C134.295 76.9398 134.795 76.7447 135.184 76.3981V76.3981L135.344 76.228L135.454 76.2881L135.364 76.198L169.964 40.358ZM163.744 40.988L142.854 62.6581L154.764 40.7781H163.954L163.744 40.988ZM163.534 36.858H155.104L152.324 26.858L163.534 36.858ZM115.284 26.858L112.494 36.858H104.044L115.284 26.858ZM122.524 60.4181L103.864 41.0181L103.664 40.808H112.844V40.868L124.724 62.748L122.524 60.4181ZM133.804 70.9181L133.694 70.718L116.254 38.718C116.264 38.6417 116.264 38.5644 116.254 38.488V38.358L120.604 22.748H147.044L150.974 36.858H133.684V40.7781H150.244L150.144 40.958L133.804 70.9181Z" fill="white"></path> <path d="M129.255 36.8779H123.505V40.7979H129.255V36.8779Z" fill="white"></path> </g> <defs> <filter id="filter0_b_28_8796" x="-67.1533" y="-145.252" width="401.957" height="386.32" filterUnits="userSpaceOnUse" color-interpolation-filters="sRGB"> <feFlood flood-opacity="0" result="BackgroundImageFix"></feFlood> <feGaussianBlur in="BackgroundImage" stdDeviation="82"></feGaussianBlur> <feComposite in2="SourceAlpha" operator="in" result="effect1_backgroundBlur_28_8796"></feComposite> <feBlend mode="normal" in="SourceGraphic" in2="effect1_backgroundBlur_28_8796" result="shape"></feBlend> </filter> <filter id="filter1_f_28_8796" x="114.864" y="28.8379" width="65.3999" height="56.8398" filterUnits="userSpaceOnUse" color-interpolation-filters="sRGB"> <feFlood flood-opacity="0" result="BackgroundImageFix"></feFlood> <feBlend mode="normal" in="SourceGraphic" in2="BackgroundImageFix" result="shape"></feBlend> <feGaussianBlur stdDeviation="5" result="effect1_foregroundBlur_28_8796"></feGaussianBlur> </filter> <linearGradient id="paint0_linear_28_8796" x1="124.864" y1="38.8379" x2="175.09" y2="67.1022" gradientUnits="userSpaceOnUse"> <stop stop-color="#00CAE7"></stop> <stop offset="0.482292" stop-color="#897BFF"></stop> <stop offset="1" stop-color="#EB00FF"></stop> </linearGradient> </defs> </svg> 