<?xml version="1.0" encoding="UTF-8"?> <svg xmlns="http://www.w3.org/2000/svg" width="555" height="483" viewBox="0 0 555 483" fill="none"> <path opacity="0.5" d="M546.021 142.995C545.492 142.357 544.547 142.269 543.909 142.798L533.518 151.416C532.88 151.945 532.792 152.89 533.321 153.528C533.849 154.166 534.795 154.254 535.433 153.725L544.669 146.065L552.33 155.302C552.859 155.939 553.804 156.027 554.442 155.499C555.08 154.97 555.168 154.024 554.639 153.386L546.021 142.995ZM521.285 218.875L519.914 218.267L521.285 218.875ZM452.35 339.095L451.183 338.152L452.35 339.095ZM269.123 470.448L269.547 471.887L269.123 470.448ZM68.5653 456.787L69.1229 455.395L68.5653 456.787ZM-64.6118 354.275L-65.9075 355.031L-64.6118 354.275ZM-98.0914 202.805L-99.5909 202.767L-98.0914 202.805ZM5.58941 8.90085C5.99181 8.17671 5.73099 7.26348 5.00685 6.86109L-6.7936 0.3037C-7.51774 -0.0986943 -8.43097 0.162128 -8.83336 0.886262C-9.23575 1.6104 -8.97493 2.52363 -8.2508 2.92602L2.23849 8.75481L-3.5903 19.2441C-3.99269 19.9682 -3.73187 20.8815 -3.00774 21.2839C-2.2836 21.6863 -1.37037 21.4254 -0.967975 20.7013L5.58941 8.90085ZM542.609 150.271C542.492 151.091 543.062 151.851 543.882 151.968C544.702 152.085 545.462 151.516 545.579 150.695L542.609 150.271ZM543.112 163.743C543.301 162.936 542.799 162.13 541.993 161.941C541.186 161.753 540.379 162.254 540.191 163.061L543.112 163.743ZM536.756 175.643C536.511 176.434 536.953 177.275 537.745 177.52C538.536 177.766 539.376 177.323 539.622 176.532L536.756 175.643ZM535.342 189.053C535.63 188.276 535.234 187.413 534.457 187.125C533.68 186.837 532.817 187.233 532.529 188.01L535.342 189.053ZM527.729 200.194C527.412 200.959 527.776 201.837 528.541 202.154C529.307 202.471 530.184 202.107 530.501 201.342L527.729 200.194ZM525.315 213.462C525.648 212.703 525.302 211.819 524.544 211.486C523.785 211.153 522.9 211.498 522.567 212.257L525.315 213.462ZM517.556 223.55C517.217 224.306 517.555 225.193 518.311 225.532C519.067 225.872 519.954 225.534 520.293 224.778L517.556 223.55ZM515.494 235.336C515.841 234.584 515.512 233.693 514.759 233.346C514.007 232.999 513.116 233.328 512.769 234.08L515.494 235.336ZM507.865 244.553C507.509 245.301 507.827 246.196 508.575 246.552C509.323 246.908 510.218 246.591 510.574 245.843L507.865 244.553ZM505.511 256.284C505.878 255.542 505.573 254.642 504.831 254.275C504.088 253.908 503.188 254.212 502.821 254.955L505.511 256.284ZM497.614 265.272C497.234 266.008 497.523 266.912 498.259 267.292C498.995 267.672 499.9 267.383 500.28 266.647L497.614 265.272ZM494.858 276.915C495.252 276.186 494.981 275.276 494.252 274.882C493.523 274.488 492.613 274.759 492.219 275.488L494.858 276.915ZM486.615 285.587C486.205 286.307 486.457 287.223 487.177 287.633C487.896 288.043 488.812 287.792 489.222 287.072L486.615 285.587ZM483.352 297.098C483.779 296.389 483.55 295.467 482.841 295.039C482.131 294.612 481.209 294.841 480.782 295.551L483.352 297.098ZM474.698 305.359C474.251 306.057 474.456 306.984 475.154 307.431C475.852 307.877 476.779 307.673 477.225 306.975L474.698 305.359ZM470.824 316.679C471.291 315.995 471.113 315.062 470.429 314.595C469.744 314.129 468.811 314.306 468.345 314.991L470.824 316.679ZM461.706 324.425C461.219 325.095 461.367 326.033 462.036 326.52C462.706 327.008 463.644 326.86 464.132 326.19L461.706 324.425ZM457.134 335.481C457.644 334.828 457.527 333.885 456.874 333.376C456.221 332.866 455.278 332.983 454.769 333.636L457.134 335.481ZM447.575 342.562C447.046 343.2 447.135 344.146 447.773 344.674C448.411 345.203 449.357 345.114 449.885 344.476L447.575 342.562ZM442.462 353.224C443.006 352.599 442.939 351.651 442.314 351.108C441.689 350.564 440.741 350.63 440.198 351.256L442.462 353.224ZM432.612 359.774C432.054 360.386 432.098 361.334 432.71 361.893C433.322 362.451 434.27 362.408 434.829 361.795L432.612 359.774ZM426.995 370.178C427.568 369.579 427.547 368.63 426.949 368.057C426.351 367.484 425.401 367.505 424.828 368.103L426.995 370.178ZM416.843 376.243C416.255 376.827 416.253 377.777 416.837 378.364C417.421 378.951 418.371 378.954 418.958 378.37L416.843 376.243ZM410.722 386.362C411.324 385.793 411.35 384.843 410.78 384.242C410.211 383.64 409.261 383.614 408.66 384.183L410.722 386.362ZM400.282 391.915C399.666 392.469 399.616 393.417 400.17 394.033C400.724 394.649 401.672 394.699 402.288 394.145L400.282 391.915ZM393.656 401.711C394.286 401.173 394.361 400.226 393.823 399.596C393.285 398.966 392.338 398.891 391.708 399.429L393.656 401.711ZM382.941 406.714C382.297 407.235 382.197 408.179 382.718 408.824C383.239 409.468 384.184 409.568 384.828 409.047L382.941 406.714ZM375.803 416.142C376.461 415.639 376.587 414.698 376.084 414.04C375.581 413.381 374.64 413.255 373.981 413.758L375.803 416.142ZM364.829 420.548C364.157 421.032 364.004 421.97 364.488 422.642C364.972 423.315 365.909 423.467 366.582 422.983L364.829 420.548ZM357.165 429.555C357.851 429.091 358.032 428.159 357.568 427.472C357.104 426.786 356.171 426.606 355.485 427.07L357.165 429.555ZM345.951 433.306C345.251 433.748 345.042 434.675 345.485 435.375C345.928 436.075 346.854 436.284 347.555 435.841L345.951 433.306ZM337.749 441.826C338.463 441.406 338.701 440.486 338.281 439.772C337.861 439.058 336.941 438.82 336.227 439.24L337.749 441.826ZM326.319 444.853C325.591 445.249 325.323 446.16 325.719 446.887C326.115 447.615 327.026 447.884 327.753 447.487L326.319 444.853ZM317.568 452.807C318.309 452.437 318.609 451.536 318.238 450.795C317.868 450.054 316.967 449.754 316.226 450.124L317.568 452.807ZM305.954 455.032C305.2 455.376 304.868 456.265 305.211 457.019C305.554 457.773 306.444 458.106 307.198 457.763L305.954 455.032ZM296.65 462.329C297.416 462.015 297.783 461.138 297.468 460.372C297.154 459.606 296.277 459.239 295.511 459.554L296.65 462.329ZM284.9 463.666C284.122 463.95 283.721 464.811 284.005 465.589C284.288 466.368 285.15 466.768 285.928 466.485L284.9 463.666ZM275.045 470.201C275.835 469.95 276.271 469.106 276.02 468.317C275.768 467.527 274.925 467.091 274.135 467.342L275.045 470.201ZM263.258 470.547C262.458 470.763 261.985 471.587 262.202 472.386C262.418 473.186 263.242 473.659 264.041 473.443L263.258 470.547ZM252.935 476.184C253.743 476.003 254.252 475.201 254.071 474.393C253.891 473.584 253.089 473.076 252.28 473.256L252.935 476.184ZM241.193 475.483C240.378 475.629 239.835 476.408 239.98 477.224C240.126 478.039 240.905 478.582 241.721 478.437L241.193 475.483ZM230.422 480.208C231.243 480.097 231.818 479.341 231.707 478.52C231.596 477.699 230.84 477.124 230.02 477.235L230.422 480.208ZM218.781 478.521C217.956 478.598 217.35 479.329 217.427 480.154C217.505 480.979 218.236 481.585 219.061 481.508L218.781 478.521ZM207.658 482.346C208.485 482.301 209.12 481.595 209.076 480.768C209.031 479.94 208.325 479.306 207.498 479.35L207.658 482.346ZM196.189 479.733C195.361 479.745 194.699 480.426 194.711 481.254C194.723 482.083 195.404 482.745 196.232 482.733L196.189 479.733ZM184.802 482.68C185.63 482.699 186.317 482.044 186.337 481.216C186.356 480.387 185.701 479.7 184.872 479.681L184.802 482.68ZM173.564 479.205C172.737 479.154 172.026 479.784 171.976 480.611C171.926 481.438 172.556 482.149 173.383 482.199L173.564 479.205ZM161.99 481.301C162.814 481.381 163.548 480.777 163.628 479.953C163.708 479.128 163.104 478.395 162.279 478.315L161.99 481.301ZM151.033 477.022C150.211 476.913 149.457 477.491 149.348 478.312C149.239 479.133 149.817 479.887 150.638 479.996L151.033 477.022ZM139.339 478.295C140.156 478.433 140.93 477.882 141.067 477.065C141.205 476.248 140.654 475.474 139.837 475.337L139.339 478.295ZM128.704 473.268C127.893 473.103 127.101 473.627 126.936 474.439C126.77 475.251 127.295 476.043 128.106 476.208L128.704 473.268ZM116.952 473.743C117.757 473.935 118.566 473.438 118.759 472.632C118.951 471.826 118.453 471.017 117.648 470.825L116.952 473.743ZM106.677 468.015C105.878 467.797 105.053 468.267 104.834 469.066C104.615 469.865 105.086 470.69 105.885 470.909L106.677 468.015ZM94.9179 467.713C95.7093 467.957 96.5493 467.514 96.7941 466.723C97.0388 465.931 96.5956 465.091 95.8042 464.846L94.9179 467.713ZM85.0402 461.325C84.2571 461.055 83.4032 461.471 83.1329 462.254C82.8626 463.037 83.2782 463.891 84.0613 464.161L85.0402 461.325ZM73.3263 460.26C74.1002 460.555 74.9671 460.168 75.2626 459.394C75.5581 458.62 75.1703 457.753 74.3963 457.457L73.3263 460.26ZM63.4848 453.092C62.72 452.774 61.8419 453.136 61.5233 453.9C61.2048 454.665 61.5666 455.543 62.3314 455.862L63.4848 453.092ZM51.0756 450.984C51.8308 451.324 52.7191 450.988 53.0596 450.233C53.4001 449.478 53.0639 448.589 52.3087 448.249L51.0756 450.984ZM41.2845 443.073C40.5402 442.709 39.6419 443.018 39.2781 443.762C38.9143 444.506 39.2227 445.404 39.967 445.768L41.2845 443.073ZM29.0291 440.196C29.7608 440.584 30.6689 440.306 31.0574 439.575C31.4459 438.843 31.1677 437.935 30.436 437.546L29.0291 440.196ZM19.7903 431.649C19.0731 431.234 18.1556 431.479 17.741 432.197C17.3264 432.914 17.5717 433.831 18.2889 434.246L19.7903 431.649ZM7.77516 427.895C8.47566 428.337 9.40205 428.128 9.8443 427.427C10.2865 426.727 10.0772 425.801 9.37668 425.358L7.77516 427.895ZM-0.76909 418.654C-1.45033 418.182 -2.38472 418.352 -2.8561 419.034C-3.32749 419.715 -3.15738 420.649 -2.47614 421.121L-0.76909 418.654ZM-12.4244 413.9C-11.7654 414.402 -10.8242 414.275 -10.3223 413.616C-9.82026 412.957 -9.94755 412.016 -10.6066 411.514L-12.4244 413.9ZM-20.0896 403.918C-20.723 403.384 -21.6693 403.464 -22.2032 404.098C-22.7372 404.731 -22.6565 405.678 -22.0231 406.212L-20.0896 403.918ZM-31.2181 398.037C-30.6141 398.604 -29.6648 398.574 -29.0979 397.97C-28.5309 397.366 -28.5609 396.416 -29.165 395.849L-31.2181 398.037ZM-37.7747 387.295C-38.3452 386.695 -39.2946 386.67 -39.8953 387.241C-40.4961 387.811 -40.5206 388.76 -39.9501 389.361L-37.7747 387.295ZM-48.1548 380.177C-47.6224 380.811 -46.6763 380.894 -46.0416 380.362C-45.4069 379.83 -45.324 378.883 -45.8565 378.249L-48.1548 380.177ZM-53.3435 368.712C-53.8332 368.044 -54.7719 367.9 -55.4401 368.389C-56.1082 368.879 -56.2528 369.818 -55.763 370.486L-53.3435 368.712ZM-62.7061 360.301C-62.2635 361.002 -61.337 361.211 -60.6367 360.768C-59.9364 360.325 -59.7275 359.399 -60.1701 358.699L-62.7061 360.301ZM-66.0529 348.671C-66.45 347.944 -67.3613 347.677 -68.0883 348.074C-68.8154 348.471 -69.0828 349.382 -68.6857 350.109L-66.0529 348.671ZM-73.8303 340.05C-73.4729 340.797 -72.5773 341.114 -71.83 340.756C-71.0826 340.399 -70.7665 339.503 -71.1239 338.756L-73.8303 340.05ZM-75.6712 328.584C-75.9901 327.819 -76.8685 327.458 -77.6331 327.777C-78.3976 328.096 -78.7589 328.974 -78.4399 329.739L-75.6712 328.584ZM-82.5337 319.216C-82.2518 319.995 -81.3917 320.398 -80.6127 320.116C-79.8338 319.834 -79.4309 318.974 -79.7129 318.195L-82.5337 319.216ZM-83.2689 307.627C-83.5155 306.836 -84.3566 306.395 -85.1474 306.642C-85.9383 306.888 -86.3795 307.729 -86.1329 308.52L-83.2689 307.627ZM-89.2601 297.68C-89.0473 298.48 -88.2257 298.957 -87.4251 298.744C-86.6244 298.531 -86.148 297.71 -86.3608 296.909L-89.2601 297.68ZM-89.0097 286.069C-89.1904 285.26 -89.9923 284.751 -90.8008 284.932C-91.6093 285.113 -92.1182 285.915 -91.9375 286.723L-89.0097 286.069ZM-94.1864 275.674C-94.0364 276.489 -93.2543 277.028 -92.4396 276.878C-91.6249 276.728 -91.086 275.946 -91.236 275.131L-94.1864 275.674ZM-93.059 264.115C-93.1798 263.296 -93.9421 262.729 -94.7616 262.85C-95.5812 262.971 -96.1477 263.733 -96.027 264.553L-93.059 264.115ZM-97.478 253.376C-97.3852 254.199 -96.6427 254.791 -95.8194 254.699C-94.9962 254.606 -94.4041 253.863 -94.4968 253.04L-97.478 253.376ZM-95.5656 241.922C-95.6316 241.096 -96.3545 240.48 -97.1803 240.546C-98.0061 240.612 -98.6221 241.335 -98.5561 242.16L-95.5656 241.922ZM-99.2765 230.917C-99.2363 231.744 -98.533 232.382 -97.7055 232.342C-96.8781 232.302 -96.2398 231.599 -96.28 230.771L-99.2765 230.917ZM-96.6523 219.603C-96.6675 218.775 -97.3513 218.115 -98.1796 218.131C-99.0079 218.146 -99.667 218.83 -99.6518 219.658L-96.6523 219.603ZM-99.6929 208.396C-99.702 209.224 -99.0378 209.903 -98.2094 209.912C-97.381 209.921 -96.7021 209.257 -96.6931 208.429L-99.6929 208.396ZM-96.4025 197.001C-96.3697 196.173 -97.0142 195.476 -97.842 195.443C-98.6698 195.41 -99.3674 196.055 -99.4001 196.882L-96.4025 197.001ZM-98.766 185.11C-98.8224 185.937 -98.1982 186.653 -97.3717 186.709C-96.5452 186.765 -95.8294 186.141 -95.773 185.315L-98.766 185.11ZM-94.8044 173.638C-94.7237 172.813 -95.3267 172.08 -96.1512 171.999C-96.9757 171.918 -97.7095 172.521 -97.7901 173.346L-94.8044 173.638ZM-96.464 161.626C-96.5698 162.448 -95.9895 163.199 -95.1679 163.305C-94.3462 163.411 -93.5944 162.831 -93.4886 162.009L-96.464 161.626ZM-91.8086 150.425C-91.6764 149.607 -92.2321 148.837 -93.0499 148.704C-93.8677 148.572 -94.6379 149.128 -94.7701 149.946L-91.8086 150.425ZM-92.6878 138.326C-92.8481 139.139 -92.3192 139.928 -91.5064 140.088C-90.6936 140.248 -89.9048 139.719 -89.7445 138.906L-92.6878 138.326ZM-87.2708 127.474C-87.0804 126.668 -87.5796 125.86 -88.3858 125.67C-89.1921 125.479 -90.0001 125.978 -90.1905 126.785L-87.2708 127.474ZM-87.2464 115.345C-87.4694 116.143 -87.0033 116.97 -86.2054 117.193C-85.4075 117.416 -84.58 116.95 -84.3571 116.152L-87.2464 115.345ZM-80.9665 104.968C-80.7083 104.18 -81.1371 103.333 -81.9242 103.075C-82.7114 102.816 -83.5588 103.245 -83.817 104.032L-80.9665 104.968ZM-79.8619 92.8927C-80.1585 93.6662 -79.772 94.5337 -78.9985 94.8304C-78.225 95.1271 -77.3575 94.7405 -77.0608 93.967L-79.8619 92.8927ZM-72.5883 83.1835C-72.2497 82.4274 -72.588 81.54 -73.3441 81.2014C-74.1001 80.8627 -74.9876 81.2011 -75.3262 81.9571L-72.5883 83.1835ZM-70.163 71.3022C-70.5474 72.036 -70.2641 72.9426 -69.5303 73.3269C-68.7964 73.7113 -67.8899 73.428 -67.5055 72.6942L-70.163 71.3022ZM-61.7558 62.5645C-61.3219 61.8589 -61.5421 60.935 -62.2478 60.5011C-62.9534 60.0671 -63.8773 60.2873 -64.3113 60.993L-61.7558 62.5645ZM-57.7172 51.1278C-58.2042 51.7979 -58.0558 52.736 -57.3857 53.223C-56.7156 53.7101 -55.7775 53.5617 -55.2904 52.8915L-57.7172 51.1278ZM-48.0713 43.7923C-47.5286 43.1664 -47.596 42.219 -48.2218 41.6763C-48.8477 41.1335 -49.7951 41.2009 -50.3378 41.8268L-48.0713 43.7923ZM-42.1368 33.216C-42.7363 33.7877 -42.7588 34.7372 -42.187 35.3367C-41.6152 35.9362 -40.6658 35.9586 -40.0663 35.3869L-42.1368 33.216ZM-31.285 27.8219C-30.6303 27.3144 -30.5109 26.3721 -31.0184 25.7174C-31.5259 25.0626 -32.4681 24.9432 -33.1229 25.4507L-31.285 27.8219ZM-23.3295 18.669C-24.0352 19.1029 -24.2556 20.0267 -23.8217 20.7324C-23.3878 21.4381 -22.4639 21.6585 -21.7582 21.2246L-23.3295 18.669ZM-11.5833 15.7172C-10.8341 15.3638 -10.5133 14.4698 -10.8667 13.7206C-11.2202 12.9714 -12.1141 12.6506 -12.8634 13.0041L-11.5833 15.7172ZM-1.82974 8.52142C-2.61307 8.79101 -3.02954 9.64458 -2.75994 10.4279C-2.49034 11.2112 -1.63678 11.6277 -0.853444 11.3581L-1.82974 8.52142ZM543.373 143.813C543.171 145.979 542.915 148.131 542.609 150.271L545.579 150.695C545.891 148.509 546.153 146.308 546.36 144.092L543.373 143.813ZM540.191 163.061C539.203 167.294 538.046 171.485 536.756 175.643L539.622 176.532C540.93 172.314 542.106 168.053 543.112 163.743L540.191 163.061ZM532.529 188.01C531.014 192.093 529.403 196.151 527.729 200.194L530.501 201.342C532.186 197.272 533.811 193.178 535.342 189.053L532.529 188.01ZM522.567 212.257C521.688 214.262 520.802 216.265 519.914 218.267L522.656 219.484C523.545 217.48 524.433 215.473 525.315 213.462L522.567 212.257ZM519.914 218.267C519.131 220.03 518.346 221.791 517.556 223.55L520.293 224.778C521.085 223.015 521.872 221.25 522.656 219.484L519.914 218.267ZM512.769 234.08C511.155 237.582 509.522 241.074 507.865 244.553L510.574 245.843C512.236 242.351 513.875 238.848 515.494 235.336L512.769 234.08ZM502.821 254.955C501.113 258.41 499.379 261.85 497.614 265.272L500.28 266.647C502.053 263.209 503.796 259.754 505.511 256.284L502.821 254.955ZM492.219 275.488C490.387 278.876 488.52 282.243 486.615 285.587L489.222 287.072C491.138 283.707 493.016 280.321 494.858 276.915L492.219 275.488ZM480.782 295.551C478.797 298.847 476.77 302.117 474.698 305.359L477.225 306.975C479.313 303.709 481.354 300.416 483.352 297.098L480.782 295.551ZM468.345 314.991C466.182 318.167 463.97 321.313 461.706 324.425L464.132 326.19C466.415 323.051 468.645 319.88 470.824 316.679L468.345 314.991ZM454.769 333.636C453.588 335.15 452.393 336.656 451.183 338.152L453.517 340.038C454.737 338.528 455.943 337.009 457.134 335.481L454.769 333.636ZM451.183 338.152C449.992 339.626 448.789 341.096 447.575 342.562L449.885 344.476C451.108 343 452.318 341.521 453.517 340.038L451.183 338.152ZM440.198 351.256C437.713 354.115 435.184 356.955 432.612 359.774L434.829 361.795C437.416 358.959 439.961 356.101 442.462 353.224L440.198 351.256ZM424.828 368.103C422.206 370.842 419.544 373.556 416.843 376.243L418.958 378.37C421.677 375.666 424.356 372.934 426.995 370.178L424.828 368.103ZM408.66 384.183C405.903 386.792 403.11 389.37 400.282 391.915L402.288 394.145C405.136 391.583 407.948 388.988 410.722 386.362L408.66 384.183ZM391.708 399.429C388.819 401.895 385.897 404.325 382.941 406.714L384.828 409.047C387.804 406.64 390.747 404.194 393.656 401.711L391.708 399.429ZM373.981 413.758C370.962 416.066 367.91 418.33 364.829 420.548L366.582 422.983C369.687 420.748 372.761 418.467 375.803 416.142L373.981 413.758ZM355.485 427.07C352.336 429.199 349.157 431.279 345.951 433.306L347.555 435.841C350.787 433.798 353.991 431.701 357.165 429.555L355.485 427.07ZM336.227 439.24C332.951 441.168 329.647 443.04 326.319 444.853L327.753 447.487C331.112 445.659 334.444 443.771 337.749 441.826L336.227 439.24ZM316.226 450.124C312.826 451.825 309.401 453.462 305.954 455.032L307.198 457.763C310.679 456.177 314.136 454.524 317.568 452.807L316.226 450.124ZM295.511 459.554C291.995 460.997 288.458 462.369 284.9 463.666L285.928 466.485C289.524 465.173 293.098 463.787 296.65 462.329L295.511 459.554ZM274.135 467.342C272.328 467.918 270.516 468.473 268.699 469.009L269.547 471.887C271.385 471.345 273.217 470.783 275.045 470.201L274.135 467.342ZM268.699 469.009C266.89 469.542 265.076 470.055 263.258 470.547L264.041 473.443C265.881 472.945 267.717 472.426 269.547 471.887L268.699 469.009ZM252.28 473.256C248.6 474.079 244.903 474.821 241.193 475.483L241.721 478.437C245.473 477.767 249.212 477.016 252.935 476.184L252.28 473.256ZM230.02 477.235C226.283 477.741 222.536 478.169 218.781 478.521L219.061 481.508C222.856 481.152 226.644 480.719 230.422 480.208L230.02 477.235ZM207.498 479.35C203.733 479.551 199.962 479.678 196.189 479.733L196.232 482.733C200.044 482.677 203.854 482.549 207.658 482.346L207.498 479.35ZM184.872 479.681C181.102 479.592 177.332 479.433 173.564 479.205L173.383 482.199C177.187 482.43 180.994 482.591 184.802 482.68L184.872 479.681ZM162.279 478.315C158.524 477.951 154.775 477.519 151.033 477.022L150.638 479.996C154.414 480.498 158.199 480.933 161.99 481.301L162.279 478.315ZM139.837 475.337C136.114 474.711 132.403 474.021 128.704 473.268L128.106 476.208C131.838 476.967 135.583 477.663 139.339 478.295L139.837 475.337ZM117.648 470.825C113.974 469.949 110.316 469.012 106.677 468.015L105.885 470.909C109.556 471.914 113.245 472.859 116.952 473.743L117.648 470.825ZM95.8042 464.846C92.1936 463.73 88.6047 462.556 85.0402 461.325L84.0613 464.161C87.6564 465.402 91.2762 466.586 94.9179 467.713L95.8042 464.846ZM74.3963 457.457C72.6316 456.783 70.8737 456.096 69.1229 455.395L68.0077 458.18C69.7734 458.887 71.5464 459.58 73.3263 460.26L74.3963 457.457ZM69.1229 455.395C67.2435 454.642 65.3637 453.875 63.4848 453.092L62.3314 455.862C64.2233 456.65 66.1158 457.422 68.0077 458.18L69.1229 455.395ZM52.3087 448.249C48.6192 446.585 44.9415 444.861 41.2845 443.073L39.967 445.768C43.653 447.57 47.3588 449.308 51.0756 450.984L52.3087 448.249ZM30.436 437.546C26.8558 435.645 23.3044 433.68 19.7903 431.649L18.2889 434.246C21.8354 436.296 25.4183 438.279 29.0291 440.196L30.436 437.546ZM9.37668 425.358C5.94613 423.192 2.56141 420.958 -0.76909 418.654L-2.47614 421.121C0.890386 423.45 4.31035 425.708 7.77516 427.895L9.37668 425.358ZM-10.6066 411.514C-13.8337 409.055 -16.9975 406.524 -20.0896 403.918L-22.0231 406.212C-18.8919 408.851 -15.6894 411.413 -12.4244 413.9L-10.6066 411.514ZM-29.165 395.849C-32.1188 393.077 -34.9916 390.226 -37.7747 387.295L-39.9501 389.361C-37.1261 392.335 -34.2124 395.226 -31.2181 398.037L-29.165 395.849ZM-45.8565 378.249C-48.4534 375.153 -50.9519 371.975 -53.3435 368.712L-55.763 370.486C-53.3316 373.803 -50.7925 377.032 -48.1548 380.177L-45.8565 378.249ZM-60.1701 358.699C-61.2475 356.994 -62.2966 355.267 -63.3161 353.519L-65.9075 355.031C-64.8699 356.81 -63.8024 358.567 -62.7061 360.301L-60.1701 358.699ZM-63.3161 353.519C-64.2507 351.917 -65.1628 350.301 -66.0529 348.671L-68.6857 350.109C-67.7824 351.763 -66.8564 353.404 -65.9075 355.031L-63.3161 353.519ZM-71.1239 338.756C-72.7238 335.41 -74.2386 332.018 -75.6712 328.584L-78.4399 329.739C-76.9884 333.218 -75.4528 336.657 -73.8303 340.05L-71.1239 338.756ZM-79.7129 318.195C-80.976 314.706 -82.1604 311.182 -83.2689 307.627L-86.1329 308.52C-85.0114 312.117 -83.8126 315.684 -82.5337 319.216L-79.7129 318.195ZM-86.3608 296.909C-87.3155 293.318 -88.1976 289.703 -89.0097 286.069L-91.9375 286.723C-91.1169 290.395 -90.2253 294.049 -89.2601 297.68L-86.3608 296.909ZM-91.236 275.131C-91.9098 271.471 -92.5166 267.797 -93.059 264.115L-96.027 264.553C-95.4795 268.269 -94.8669 271.978 -94.1864 275.674L-91.236 275.131ZM-94.4968 253.04C-94.9143 249.335 -95.2697 245.627 -95.5656 241.922L-98.5561 242.16C-98.2576 245.898 -97.8992 249.638 -97.478 253.376L-94.4968 253.04ZM-96.28 230.771C-96.4611 227.039 -96.5842 223.314 -96.6523 219.603L-99.6518 219.658C-99.5832 223.399 -99.459 227.154 -99.2765 230.917L-96.28 230.771ZM-96.6931 208.429C-96.6727 206.561 -96.6388 204.699 -96.5919 202.843L-99.5909 202.767C-99.6382 204.638 -99.6724 206.514 -99.6929 208.396L-96.6931 208.429ZM-96.5919 202.843C-96.5431 200.913 -96.4801 198.965 -96.4025 197.001L-99.4001 196.882C-99.4784 198.861 -99.5417 200.823 -99.5909 202.767L-96.5919 202.843ZM-95.773 185.315C-95.5101 181.464 -95.1888 177.567 -94.8044 173.638L-97.7901 173.346C-98.1775 177.305 -98.5012 181.231 -98.766 185.11L-95.773 185.315ZM-93.4886 162.009C-92.9932 158.162 -92.4346 154.296 -91.8086 150.425L-94.7701 149.946C-95.4015 153.85 -95.9647 157.748 -96.464 161.626L-93.4886 162.009ZM-89.7445 138.906C-88.9909 135.086 -88.1677 131.272 -87.2708 127.474L-90.1905 126.785C-91.0963 130.62 -91.9273 134.471 -92.6878 138.326L-89.7445 138.906ZM-84.3571 116.152C-83.3062 112.391 -82.1774 108.659 -80.9665 104.968L-83.817 104.032C-85.0424 107.768 -86.1842 111.543 -87.2464 115.345L-84.3571 116.152ZM-77.0608 93.967C-75.6599 90.3143 -74.1705 86.7158 -72.5883 83.1835L-75.3262 81.9571C-76.9319 85.542 -78.4423 89.1913 -79.8619 92.8927L-77.0608 93.967ZM-67.5055 72.6942C-65.6916 69.2311 -63.7765 65.8503 -61.7558 62.5645L-64.3113 60.993C-66.3698 64.3404 -68.3188 67.7812 -70.163 71.3022L-67.5055 72.6942ZM-55.2904 52.8915C-53.0005 49.7408 -50.5957 46.7033 -48.0713 43.7923L-50.3378 41.8268C-52.9211 44.8057 -55.3791 47.9109 -57.7172 51.1278L-55.2904 52.8915ZM-40.0663 35.3869C-37.2679 32.7178 -34.3424 30.1916 -31.285 27.8219L-33.1229 25.4507C-36.264 27.8853 -39.2669 30.4787 -42.1368 33.216L-40.0663 35.3869ZM-21.7582 21.2246C-18.5006 19.2215 -15.1106 17.3814 -11.5833 15.7172L-12.8634 13.0041C-16.4918 14.7159 -19.979 16.6089 -23.3295 18.669L-21.7582 21.2246ZM-0.853444 11.3581C0.961566 10.7334 2.80926 10.1518 4.69019 9.61458L3.86632 6.72992C1.93435 7.2817 0.0358289 7.87935 -1.82974 8.52142L-0.853444 11.3581Z" fill="url(#paint0_linear_24_7209)"></path> <defs> <linearGradient id="paint0_linear_24_7209" x1="554.767" y1="148.621" x2="79.3219" y2="612.983" gradientUnits="userSpaceOnUse"> <stop stop-color="#00CAE7"></stop> <stop offset="0.482292" stop-color="#897BFF"></stop> <stop offset="1" stop-color="#EB00FF"></stop> </linearGradient> </defs> </svg> 