<?xml version="1.0" encoding="UTF-8"?> <svg xmlns="http://www.w3.org/2000/svg" width="298" height="212" viewBox="0 0 298 212" fill="none"> <g filter="url(#filter0_f_28_8801)"> <path d="M149.181 52.5051C160.851 52.5051 170.311 43.0449 170.311 31.3751C170.311 19.7053 160.851 10.2451 149.181 10.2451C137.511 10.2451 128.051 19.7053 128.051 31.3751C128.051 43.0449 137.511 52.5051 149.181 52.5051Z" fill="url(#paint0_linear_28_8801)" fill-opacity="0.6"></path> </g> <path d="M184.101 31.7753C182.101 26.5153 172.741 26.9653 165.191 28.2753H165.081L164.811 28.0552C160.457 24.4023 154.944 22.4204 149.261 22.4652C143.437 22.4166 137.79 24.4666 133.353 28.2402C128.917 32.0138 125.987 37.2588 125.101 43.0152V43.3953L125.001 43.4552C119.781 46.6352 111.341 52.7852 113.391 58.2952C114.511 61.2152 118.071 62.7052 123.981 62.7052C126.165 62.6947 128.347 62.541 130.511 62.2452L130.981 62.1652L131.081 62.2653C134.356 65.9451 138.664 68.5529 143.443 69.749C148.222 70.9451 153.251 70.674 157.873 68.9708C162.496 67.2677 166.498 64.2116 169.359 60.2008C172.22 56.19 173.806 51.4105 173.911 46.4852V46.0552L174.011 45.9752C179.961 41.5652 185.851 36.4253 184.101 31.7753ZM127.571 58.3252C126.242 58.4668 124.907 58.5402 123.571 58.5452C120.041 58.5452 117.571 57.9652 117.311 56.9352C117.051 55.9052 118.601 52.9353 124.601 48.6553L124.951 48.4053V48.8352C125.288 52.0277 126.232 55.1265 127.731 57.9652L127.911 58.2952L127.571 58.3252ZM132.281 57.7552L132.191 57.6152C130.058 54.3406 128.909 50.523 128.881 46.6152C128.949 41.2735 131.133 36.177 134.954 32.4429C138.774 28.7088 143.919 26.6418 149.261 26.6952C154.094 26.6978 158.771 28.4035 162.47 31.5126C166.17 34.6216 168.656 38.9352 169.491 43.6952V43.9852H169.201C169.179 44.0265 169.148 44.0618 169.11 44.088C169.071 44.1142 169.027 44.1305 168.981 44.1352C163.384 47.3828 157.515 50.1365 151.441 52.3652C145.276 54.6994 138.918 56.4895 132.441 57.7152L132.281 57.7552ZM169.561 49.2352C169.027 52.8266 167.54 56.2092 165.255 59.0311C162.97 61.8531 159.971 64.0113 156.569 65.2812C153.168 66.5512 149.488 66.8865 145.913 66.2523C142.338 65.6181 138.998 64.0376 136.241 61.6752L135.871 61.3552L136.351 61.2452C147.805 58.6739 158.854 54.549 169.191 48.9852L169.631 48.7452L169.561 49.2352ZM173.501 41.2352L173.201 41.4552L173.111 41.0952C172.276 37.8588 170.789 34.8269 168.741 32.1852L169.191 31.9252C176.701 31.0252 179.951 32.2652 180.301 33.3252C180.651 34.3852 179.161 37.0652 173.501 41.2252V41.2352Z" fill="white"></path> <path d="M140.65 44.6749C142.263 44.6749 143.57 43.3677 143.57 41.755C143.57 40.1423 142.263 38.835 140.65 38.835C139.038 38.835 137.73 40.1423 137.73 41.755C137.73 43.3677 139.038 44.6749 140.65 44.6749Z" fill="white"></path> <path d="M83.3286 151.625H79.9185L65.8735 130.057H65.7329C65.9204 132.588 66.0142 134.909 66.0142 137.018V151.625H63.2544V125.926H66.6294L80.6392 147.407H80.7798C80.7563 147.09 80.7036 146.077 80.6216 144.366C80.5396 142.643 80.5103 141.413 80.5337 140.674V125.926H83.3286V151.625ZM106.584 141.975C106.584 145.116 105.793 147.571 104.211 149.34C102.629 151.098 100.444 151.977 97.6548 151.977C95.9321 151.977 94.4028 151.573 93.0669 150.764C91.731 149.956 90.6997 148.795 89.9731 147.284C89.2466 145.772 88.8833 144.002 88.8833 141.975C88.8833 138.834 89.6685 136.391 91.2388 134.645C92.8091 132.887 94.9888 132.008 97.7778 132.008C100.473 132.008 102.612 132.905 104.194 134.698C105.788 136.491 106.584 138.917 106.584 141.975ZM91.9067 141.975C91.9067 144.436 92.3989 146.311 93.3833 147.6C94.3677 148.889 95.8149 149.534 97.7251 149.534C99.6353 149.534 101.083 148.895 102.067 147.618C103.063 146.329 103.561 144.448 103.561 141.975C103.561 139.526 103.063 137.668 102.067 136.403C101.083 135.125 99.6235 134.487 97.6899 134.487C95.7798 134.487 94.3384 135.114 93.3657 136.368C92.3931 137.622 91.9067 139.491 91.9067 141.975ZM129.752 134.627H124.848V151.625H121.93V134.627H118.485V133.309L121.93 132.254V131.182C121.93 126.448 123.999 124.081 128.135 124.081C129.155 124.081 130.35 124.286 131.721 124.696L130.965 127.034C129.84 126.67 128.879 126.489 128.083 126.489C126.981 126.489 126.167 126.858 125.639 127.596C125.112 128.323 124.848 129.495 124.848 131.112V132.36H129.752V134.627ZM149.897 141.975C149.897 145.116 149.106 147.571 147.524 149.34C145.942 151.098 143.756 151.977 140.967 151.977C139.245 151.977 137.715 151.573 136.379 150.764C135.043 149.956 134.012 148.795 133.286 147.284C132.559 145.772 132.196 144.002 132.196 141.975C132.196 138.834 132.981 136.391 134.551 134.645C136.122 132.887 138.301 132.008 141.09 132.008C143.786 132.008 145.924 132.905 147.506 134.698C149.1 136.491 149.897 138.917 149.897 141.975ZM135.219 141.975C135.219 144.436 135.711 146.311 136.696 147.6C137.68 148.889 139.127 149.534 141.038 149.534C142.948 149.534 144.395 148.895 145.379 147.618C146.375 146.329 146.874 144.448 146.874 141.975C146.874 139.526 146.375 137.668 145.379 136.403C144.395 135.125 142.936 134.487 141.002 134.487C139.092 134.487 137.651 135.114 136.678 136.368C135.706 137.622 135.219 139.491 135.219 141.975ZM163.819 132.008C164.674 132.008 165.442 132.079 166.122 132.219L165.717 134.926C164.92 134.75 164.217 134.663 163.608 134.663C162.049 134.663 160.713 135.295 159.6 136.561C158.499 137.827 157.948 139.403 157.948 141.29V151.625H155.03V132.36H157.438L157.772 135.928H157.913C158.627 134.674 159.489 133.708 160.497 133.028C161.504 132.348 162.612 132.008 163.819 132.008ZM177.864 151.977C175.016 151.977 172.766 151.11 171.114 149.375C169.473 147.641 168.653 145.233 168.653 142.151C168.653 139.045 169.415 136.579 170.938 134.75C172.473 132.922 174.53 132.008 177.108 132.008C179.522 132.008 181.432 132.805 182.838 134.399C184.245 135.981 184.948 138.073 184.948 140.674V142.52H171.676C171.735 144.782 172.303 146.499 173.381 147.67C174.471 148.842 176 149.428 177.969 149.428C180.043 149.428 182.094 148.995 184.122 148.127V150.729C183.09 151.174 182.112 151.491 181.186 151.678C180.272 151.877 179.165 151.977 177.864 151.977ZM177.073 134.452C175.526 134.452 174.29 134.956 173.364 135.963C172.45 136.971 171.911 138.366 171.747 140.147H181.819C181.819 138.307 181.409 136.901 180.588 135.928C179.768 134.944 178.596 134.452 177.073 134.452ZM192.858 151.625H189.94V132.36H192.858V151.625ZM189.694 127.139C189.694 126.471 189.858 125.985 190.186 125.68C190.514 125.364 190.924 125.206 191.417 125.206C191.885 125.206 192.29 125.364 192.629 125.68C192.969 125.997 193.139 126.483 193.139 127.139C193.139 127.795 192.969 128.288 192.629 128.616C192.29 128.932 191.885 129.09 191.417 129.09C190.924 129.09 190.514 128.932 190.186 128.616C189.858 128.288 189.694 127.795 189.694 127.139ZM214.813 132.36V134.206L211.245 134.627C211.573 135.038 211.866 135.577 212.124 136.245C212.381 136.901 212.51 137.645 212.51 138.477C212.51 140.364 211.866 141.87 210.577 142.995C209.288 144.12 207.518 144.682 205.268 144.682C204.694 144.682 204.155 144.635 203.651 144.542C202.409 145.198 201.788 146.024 201.788 147.02C201.788 147.547 202.004 147.94 202.438 148.198C202.872 148.444 203.616 148.567 204.67 148.567H208.081C210.167 148.567 211.766 149.006 212.879 149.885C214.004 150.764 214.567 152.042 214.567 153.717C214.567 155.85 213.711 157.473 212 158.586C210.29 159.711 207.793 160.274 204.512 160.274C201.993 160.274 200.047 159.805 198.676 158.868C197.317 157.93 196.637 156.606 196.637 154.895C196.637 153.723 197.012 152.709 197.762 151.854C198.512 150.999 199.567 150.418 200.926 150.114C200.434 149.891 200.018 149.545 199.678 149.077C199.35 148.608 199.186 148.063 199.186 147.442C199.186 146.739 199.374 146.124 199.749 145.596C200.124 145.069 200.715 144.559 201.524 144.067C200.528 143.657 199.713 142.959 199.081 141.975C198.459 140.991 198.149 139.866 198.149 138.6C198.149 136.491 198.782 134.868 200.047 133.731C201.313 132.583 203.106 132.008 205.426 132.008C206.434 132.008 207.342 132.125 208.151 132.36H214.813ZM199.45 154.86C199.45 155.903 199.889 156.694 200.768 157.233C201.647 157.772 202.907 158.042 204.547 158.042C206.997 158.042 208.807 157.672 209.979 156.934C211.163 156.208 211.754 155.217 211.754 153.963C211.754 152.92 211.432 152.194 210.788 151.784C210.143 151.385 208.93 151.186 207.149 151.186H203.651C202.327 151.186 201.295 151.502 200.557 152.135C199.819 152.768 199.45 153.676 199.45 154.86ZM201.032 138.53C201.032 139.877 201.413 140.897 202.174 141.588C202.936 142.28 203.997 142.625 205.356 142.625C208.204 142.625 209.627 141.243 209.627 138.477C209.627 135.583 208.186 134.135 205.303 134.135C203.932 134.135 202.877 134.504 202.139 135.243C201.401 135.981 201.032 137.077 201.032 138.53ZM231.952 151.625V139.163C231.952 137.592 231.594 136.42 230.879 135.647C230.165 134.874 229.045 134.487 227.522 134.487C225.506 134.487 224.03 135.032 223.092 136.122C222.155 137.211 221.686 139.01 221.686 141.518V151.625H218.768V132.36H221.141L221.616 134.997H221.756C222.354 134.047 223.192 133.315 224.27 132.799C225.348 132.272 226.549 132.008 227.874 132.008C230.194 132.008 231.94 132.571 233.112 133.696C234.284 134.809 234.87 136.596 234.87 139.057V151.625H231.952ZM23.6509 198.569C24.1665 198.569 24.6646 198.534 25.145 198.463C25.6255 198.381 26.0063 198.299 26.2876 198.217V200.45C25.9712 200.602 25.5024 200.725 24.8813 200.819C24.272 200.924 23.7212 200.977 23.229 200.977C19.5024 200.977 17.6392 199.014 17.6392 195.088V183.627H14.8794V182.221L17.6392 181.008L18.8696 176.895H20.5571V181.36H26.147V183.627H20.5571V194.965C20.5571 196.125 20.8325 197.016 21.3833 197.637C21.9341 198.258 22.6899 198.569 23.6509 198.569ZM38.9438 181.008C39.7993 181.008 40.5669 181.079 41.2466 181.219L40.8423 183.926C40.0454 183.75 39.3423 183.663 38.7329 183.663C37.1743 183.663 35.8384 184.295 34.7251 185.561C33.6235 186.827 33.0728 188.403 33.0728 190.29V200.625H30.1548V181.36H32.563L32.897 184.928H33.0376C33.7524 183.674 34.6138 182.708 35.6216 182.028C36.6294 181.348 37.7368 181.008 38.9438 181.008ZM56.6978 200.625L56.1177 197.883H55.9771C55.0161 199.09 54.0552 199.911 53.0942 200.344C52.145 200.766 50.9556 200.977 49.5259 200.977C47.6157 200.977 46.1157 200.485 45.0259 199.5C43.9478 198.516 43.4087 197.116 43.4087 195.299C43.4087 191.409 46.52 189.37 52.7427 189.182L56.0122 189.077V187.881C56.0122 186.37 55.6841 185.256 55.0278 184.542C54.3833 183.815 53.3462 183.452 51.9165 183.452C50.311 183.452 48.4946 183.944 46.4673 184.928L45.5708 182.696C46.52 182.18 47.5571 181.776 48.6821 181.483C49.8188 181.19 50.9556 181.043 52.0923 181.043C54.3892 181.043 56.0884 181.553 57.1899 182.573C58.3032 183.592 58.8599 185.227 58.8599 187.477V200.625H56.6978ZM50.106 198.569C51.9224 198.569 53.3462 198.071 54.3774 197.075C55.4204 196.079 55.9419 194.684 55.9419 192.891V191.151L53.0239 191.274C50.7036 191.356 49.0278 191.719 47.9966 192.364C46.9771 192.997 46.4673 193.987 46.4673 195.334C46.4673 196.389 46.7837 197.192 47.4165 197.743C48.061 198.293 48.9575 198.569 50.106 198.569ZM78.0728 200.625V188.163C78.0728 186.592 77.7153 185.42 77.0005 184.647C76.2856 183.874 75.1665 183.487 73.6431 183.487C71.6274 183.487 70.1509 184.032 69.2134 185.122C68.2759 186.211 67.8071 188.01 67.8071 190.518V200.625H64.8892V181.36H67.2622L67.7368 183.997H67.8774C68.4751 183.047 69.313 182.315 70.3911 181.799C71.4692 181.272 72.6704 181.008 73.9946 181.008C76.3149 181.008 78.061 181.571 79.2329 182.696C80.4048 183.809 80.9907 185.596 80.9907 188.057V200.625H78.0728ZM99.4302 195.37C99.4302 197.163 98.7622 198.545 97.4263 199.518C96.0903 200.491 94.2153 200.977 91.8013 200.977C89.2466 200.977 87.2544 200.573 85.8247 199.764V197.057C86.7505 197.526 87.7407 197.895 88.7954 198.165C89.8618 198.434 90.8872 198.569 91.8716 198.569C93.395 198.569 94.5669 198.329 95.3872 197.848C96.2075 197.356 96.6177 196.612 96.6177 195.616C96.6177 194.866 96.2896 194.227 95.6333 193.7C94.9888 193.161 93.7231 192.528 91.8364 191.801C90.0435 191.133 88.7661 190.553 88.0044 190.061C87.2544 189.557 86.6919 188.989 86.3169 188.356C85.9536 187.723 85.772 186.967 85.772 186.088C85.772 184.518 86.4106 183.282 87.688 182.379C88.9653 181.465 90.7173 181.008 92.9438 181.008C95.0181 181.008 97.0454 181.43 99.0259 182.274L97.9888 184.647C96.0552 183.85 94.3032 183.452 92.7329 183.452C91.3501 183.452 90.3071 183.668 89.604 184.102C88.9009 184.536 88.5493 185.133 88.5493 185.895C88.5493 186.411 88.6782 186.85 88.936 187.213C89.2056 187.577 89.6333 187.922 90.2192 188.25C90.8052 188.579 91.9302 189.053 93.5942 189.674C95.8794 190.506 97.4204 191.344 98.2173 192.188C99.0259 193.032 99.4302 194.092 99.4302 195.37ZM116.042 200.625L115.461 197.883H115.321C114.36 199.09 113.399 199.911 112.438 200.344C111.489 200.766 110.299 200.977 108.87 200.977C106.959 200.977 105.459 200.485 104.37 199.5C103.292 198.516 102.752 197.116 102.752 195.299C102.752 191.409 105.864 189.37 112.086 189.182L115.356 189.077V187.881C115.356 186.37 115.028 185.256 114.372 184.542C113.727 183.815 112.69 183.452 111.26 183.452C109.655 183.452 107.838 183.944 105.811 184.928L104.915 182.696C105.864 182.18 106.901 181.776 108.026 181.483C109.163 181.19 110.299 181.043 111.436 181.043C113.733 181.043 115.432 181.553 116.534 182.573C117.647 183.592 118.204 185.227 118.204 187.477V200.625H116.042ZM109.45 198.569C111.266 198.569 112.69 198.071 113.721 197.075C114.764 196.079 115.286 194.684 115.286 192.891V191.151L112.368 191.274C110.047 191.356 108.372 191.719 107.34 192.364C106.321 192.997 105.811 193.987 105.811 195.334C105.811 196.389 106.127 197.192 106.76 197.743C107.405 198.293 108.301 198.569 109.45 198.569ZM131.932 200.977C129.143 200.977 126.981 200.122 125.446 198.411C123.922 196.688 123.161 194.256 123.161 191.116C123.161 187.893 123.934 185.403 125.481 183.645C127.04 181.887 129.254 181.008 132.125 181.008C133.051 181.008 133.977 181.108 134.903 181.307C135.829 181.506 136.555 181.741 137.083 182.01L136.186 184.489C135.542 184.231 134.838 184.02 134.077 183.856C133.315 183.68 132.641 183.592 132.055 183.592C128.141 183.592 126.184 186.088 126.184 191.081C126.184 193.448 126.659 195.264 127.608 196.53C128.569 197.795 129.987 198.428 131.862 198.428C133.467 198.428 135.114 198.083 136.801 197.391V199.975C135.512 200.643 133.889 200.977 131.932 200.977ZM147.612 198.569C148.127 198.569 148.625 198.534 149.106 198.463C149.586 198.381 149.967 198.299 150.249 198.217V200.45C149.932 200.602 149.463 200.725 148.842 200.819C148.233 200.924 147.682 200.977 147.19 200.977C143.463 200.977 141.6 199.014 141.6 195.088V183.627H138.84V182.221L141.6 181.008L142.831 176.895H144.518V181.36H150.108V183.627H144.518V194.965C144.518 196.125 144.793 197.016 145.344 197.637C145.895 198.258 146.651 198.569 147.612 198.569ZM157.034 200.625H154.116V181.36H157.034V200.625ZM153.87 176.139C153.87 175.471 154.034 174.985 154.362 174.68C154.69 174.364 155.1 174.206 155.592 174.206C156.061 174.206 156.465 174.364 156.805 174.68C157.145 174.997 157.315 175.483 157.315 176.139C157.315 176.795 157.145 177.288 156.805 177.616C156.465 177.932 156.061 178.09 155.592 178.09C155.1 178.09 154.69 177.932 154.362 177.616C154.034 177.288 153.87 176.795 153.87 176.139ZM179.85 190.975C179.85 194.116 179.059 196.571 177.477 198.34C175.895 200.098 173.709 200.977 170.92 200.977C169.198 200.977 167.668 200.573 166.333 199.764C164.997 198.956 163.965 197.795 163.239 196.284C162.512 194.772 162.149 193.002 162.149 190.975C162.149 187.834 162.934 185.391 164.504 183.645C166.075 181.887 168.254 181.008 171.043 181.008C173.739 181.008 175.877 181.905 177.459 183.698C179.053 185.491 179.85 187.917 179.85 190.975ZM165.172 190.975C165.172 193.436 165.665 195.311 166.649 196.6C167.633 197.889 169.081 198.534 170.991 198.534C172.901 198.534 174.348 197.895 175.333 196.618C176.329 195.329 176.827 193.448 176.827 190.975C176.827 188.526 176.329 186.668 175.333 185.403C174.348 184.125 172.889 183.487 170.956 183.487C169.045 183.487 167.604 184.114 166.631 185.368C165.659 186.622 165.172 188.491 165.172 190.975ZM198.167 200.625V188.163C198.167 186.592 197.809 185.42 197.094 184.647C196.379 183.874 195.26 183.487 193.737 183.487C191.721 183.487 190.245 184.032 189.307 185.122C188.37 186.211 187.901 188.01 187.901 190.518V200.625H184.983V181.36H187.356L187.831 183.997H187.971C188.569 183.047 189.407 182.315 190.485 181.799C191.563 181.272 192.764 181.008 194.088 181.008C196.409 181.008 198.155 181.571 199.327 182.696C200.499 183.809 201.084 185.596 201.084 188.057V200.625H198.167ZM225.131 183.627H220.227V200.625H217.309V183.627H213.864V182.309L217.309 181.254V180.182C217.309 175.448 219.377 173.081 223.514 173.081C224.534 173.081 225.729 173.286 227.1 173.696L226.344 176.034C225.219 175.67 224.258 175.489 223.461 175.489C222.36 175.489 221.545 175.858 221.018 176.596C220.491 177.323 220.227 178.495 220.227 180.112V181.36H225.131V183.627ZM236.786 200.977C233.938 200.977 231.688 200.11 230.036 198.375C228.395 196.641 227.575 194.233 227.575 191.151C227.575 188.045 228.336 185.579 229.86 183.75C231.395 181.922 233.452 181.008 236.03 181.008C238.444 181.008 240.354 181.805 241.76 183.399C243.167 184.981 243.87 187.073 243.87 189.674V191.52H230.598C230.657 193.782 231.225 195.499 232.303 196.67C233.393 197.842 234.922 198.428 236.891 198.428C238.965 198.428 241.016 197.995 243.043 197.127V199.729C242.012 200.174 241.034 200.491 240.108 200.678C239.194 200.877 238.086 200.977 236.786 200.977ZM235.995 183.452C234.448 183.452 233.211 183.956 232.286 184.963C231.372 185.971 230.833 187.366 230.668 189.147H240.741C240.741 187.307 240.331 185.901 239.51 184.928C238.69 183.944 237.518 183.452 235.995 183.452ZM257 200.977C254.153 200.977 251.903 200.11 250.25 198.375C248.61 196.641 247.79 194.233 247.79 191.151C247.79 188.045 248.551 185.579 250.075 183.75C251.61 181.922 253.667 181.008 256.245 181.008C258.659 181.008 260.569 181.805 261.975 183.399C263.381 184.981 264.084 187.073 264.084 189.674V191.52H250.813C250.872 193.782 251.44 195.499 252.518 196.67C253.608 197.842 255.137 198.428 257.106 198.428C259.18 198.428 261.231 197.995 263.258 197.127V199.729C262.227 200.174 261.249 200.491 260.323 200.678C259.409 200.877 258.301 200.977 257 200.977ZM256.209 183.452C254.663 183.452 253.426 183.956 252.5 184.963C251.586 185.971 251.047 187.366 250.883 189.147H260.956C260.956 187.307 260.545 185.901 259.725 184.928C258.905 183.944 257.733 183.452 256.209 183.452ZM281.504 195.37C281.504 197.163 280.836 198.545 279.5 199.518C278.165 200.491 276.29 200.977 273.875 200.977C271.321 200.977 269.329 200.573 267.899 199.764V197.057C268.825 197.526 269.815 197.895 270.87 198.165C271.936 198.434 272.961 198.569 273.946 198.569C275.469 198.569 276.641 198.329 277.461 197.848C278.282 197.356 278.692 196.612 278.692 195.616C278.692 194.866 278.364 194.227 277.708 193.7C277.063 193.161 275.797 192.528 273.911 191.801C272.118 191.133 270.84 190.553 270.079 190.061C269.329 189.557 268.766 188.989 268.391 188.356C268.028 187.723 267.846 186.967 267.846 186.088C267.846 184.518 268.485 183.282 269.762 182.379C271.04 181.465 272.792 181.008 275.018 181.008C277.092 181.008 279.12 181.43 281.1 182.274L280.063 184.647C278.129 183.85 276.377 183.452 274.807 183.452C273.424 183.452 272.381 183.668 271.678 184.102C270.975 184.536 270.624 185.133 270.624 185.895C270.624 186.411 270.752 186.85 271.01 187.213C271.28 187.577 271.708 187.922 272.293 188.25C272.879 188.579 274.004 189.053 275.668 189.674C277.954 190.506 279.495 191.344 280.292 192.188C281.1 193.032 281.504 194.092 281.504 195.37Z" fill="white"></path> <defs> <filter id="filter0_f_28_8801" x="118.051" y="0.245117" width="62.26" height="62.26" filterUnits="userSpaceOnUse" color-interpolation-filters="sRGB"> <feFlood flood-opacity="0" result="BackgroundImageFix"></feFlood> <feBlend mode="normal" in="SourceGraphic" in2="BackgroundImageFix" result="shape"></feBlend> <feGaussianBlur stdDeviation="5" result="effect1_foregroundBlur_28_8801"></feGaussianBlur> </filter> <linearGradient id="paint0_linear_28_8801" x1="128.051" y1="10.2451" x2="178.987" y2="33.5048" gradientUnits="userSpaceOnUse"> <stop stop-color="#00CAE7"></stop> <stop offset="0.482292" stop-color="#897BFF"></stop> <stop offset="1" stop-color="#EB00FF"></stop> </linearGradient> </defs> </svg> 