<?xml version="1.0" encoding="UTF-8"?> <svg xmlns="http://www.w3.org/2000/svg" width="433" height="353" viewBox="0 0 433 353" fill="none"> <path opacity="0.5" d="M480.089 349.938C479.343 350.297 479.03 351.194 479.389 351.94C479.749 352.686 480.646 353 481.392 352.64L480.089 349.938ZM556.686 133.34L555.31 133.939L556.686 133.34ZM474.048 85.1075L474.169 83.6124L474.169 83.6124L474.048 85.1075ZM338.27 106.734L338.754 108.154L338.27 106.734ZM267.748 135.357L267.071 134.019L267.748 135.357ZM227.191 168.598L225.858 167.911L227.191 168.598ZM253.093 243.75L253.772 242.413L253.772 242.413L253.093 243.75ZM327.187 234.407L327.79 235.78L327.187 234.407ZM385.136 190.68L383.97 189.736L385.136 190.68ZM428.709 95.4195L427.248 95.0779L428.709 95.4195ZM425.898 29.6141L424.618 30.3969L425.898 29.6141ZM365.827 2.75662L365.926 1.25986L365.926 1.25986L365.827 2.75662ZM245.551 24.4915L246.073 25.8979L245.551 24.4915ZM87.5878 120.414L88.6438 121.479L87.5878 120.414ZM30.4282 191.652L31.7149 192.423L31.7149 192.423L30.4282 191.652ZM6.92131 249.741C7.29846 250.479 8.20213 250.771 8.93973 250.394L20.9596 244.248C21.6972 243.871 21.9894 242.967 21.6123 242.23C21.2351 241.492 20.3315 241.2 19.5939 241.577L8.90952 247.04L3.44648 236.356C3.06934 235.618 2.16566 235.326 1.42806 235.703C0.690458 236.08 0.398251 236.984 0.775395 237.722L6.92131 249.741ZM486.572 350.004C487.302 349.613 487.577 348.703 487.186 347.973C486.794 347.243 485.885 346.969 485.155 347.36L486.572 350.004ZM494.925 341.575C494.23 342.027 494.033 342.956 494.485 343.651C494.937 344.345 495.866 344.542 496.56 344.09L494.925 341.575ZM506.02 337.365C506.675 336.858 506.795 335.916 506.288 335.261C505.78 334.606 504.838 334.486 504.183 334.993L506.02 337.365ZM512.883 327.682C512.27 328.24 512.225 329.188 512.783 329.801C513.341 330.414 514.289 330.459 514.902 329.901L512.883 327.682ZM523.173 321.772C523.742 321.169 523.714 320.22 523.111 319.651C522.509 319.083 521.559 319.111 520.991 319.713L523.173 321.772ZM528.486 311.156C527.963 311.799 528.06 312.743 528.703 313.266C529.345 313.789 530.29 313.692 530.813 313.049L528.486 311.156ZM537.803 303.807C538.28 303.13 538.117 302.194 537.439 301.718C536.761 301.241 535.825 301.405 535.349 302.082L537.803 303.807ZM541.575 292.551C541.146 293.259 541.372 294.182 542.08 294.611C542.789 295.041 543.711 294.815 544.141 294.106L541.575 292.551ZM549.817 284.012C550.199 283.277 549.913 282.371 549.179 281.989C548.444 281.606 547.538 281.892 547.156 282.627L549.817 284.012ZM552.088 272.36C551.753 273.118 552.096 274.003 552.854 274.338C553.611 274.673 554.497 274.331 554.832 273.573L552.088 272.36ZM559.182 262.844C559.47 262.067 559.073 261.204 558.296 260.916C557.519 260.629 556.656 261.026 556.369 261.803L559.182 262.844ZM559.993 251.001C559.753 251.794 560.202 252.631 560.995 252.87C561.788 253.11 562.625 252.661 562.865 251.868L559.993 251.001ZM565.873 240.69C566.064 239.884 565.566 239.075 564.76 238.884C563.953 238.693 563.145 239.192 562.954 239.998L565.873 240.69ZM565.244 228.836C565.103 229.652 565.649 230.429 566.465 230.571C567.282 230.712 568.058 230.166 568.2 229.35L565.244 228.836ZM569.833 217.89C569.925 217.067 569.332 216.325 568.509 216.233C567.685 216.141 566.944 216.734 566.852 217.558L569.833 217.89ZM567.763 206.2C567.722 207.028 568.36 207.731 569.188 207.772C570.015 207.812 570.719 207.174 570.759 206.347L567.763 206.2ZM570.959 194.77C570.947 193.942 570.265 193.28 569.437 193.292C568.609 193.305 567.947 193.986 567.959 194.814L570.959 194.77ZM567.421 183.439C567.488 184.264 568.211 184.88 569.037 184.813C569.862 184.747 570.478 184.024 570.411 183.198L567.421 183.439ZM569.094 171.688C568.971 170.869 568.208 170.304 567.389 170.426C566.569 170.548 566.004 171.312 566.126 172.131L569.094 171.688ZM564.052 160.943C564.232 161.752 565.033 162.261 565.842 162.081C566.65 161.901 567.16 161.1 566.98 160.291L564.052 160.943ZM564.046 149.074C563.807 148.281 562.97 147.832 562.177 148.071C561.384 148.311 560.935 149.148 561.174 149.941L564.046 149.074ZM557.474 139.193C557.774 139.965 558.643 140.348 559.415 140.048C560.187 139.748 560.57 138.878 560.27 138.106L557.474 139.193ZM555.262 126.942C554.872 126.211 553.964 125.934 553.233 126.324C552.501 126.714 552.225 127.622 552.614 128.353L555.262 126.942ZM545.891 117.984C546.402 118.637 547.344 118.752 547.997 118.242C548.649 117.731 548.765 116.789 548.254 116.136L545.891 117.984ZM539.419 106.752C538.799 106.203 537.851 106.261 537.302 106.882C536.753 107.502 536.812 108.45 537.432 108.999L539.419 106.752ZM527.489 101.66C528.195 102.093 529.119 101.873 529.552 101.167C529.986 100.461 529.765 99.5371 529.059 99.1036L527.489 101.66ZM517.628 93.2429C516.865 92.9193 515.985 93.2752 515.661 94.0378C515.338 94.8004 515.694 95.681 516.456 96.0046L517.628 93.2429ZM504.717 91.875C505.513 92.1039 506.344 91.644 506.573 90.8479C506.802 90.0517 506.342 89.2207 505.546 88.9918L504.717 91.875ZM493.111 86.0756C492.296 85.9235 491.513 86.4603 491.361 87.2747C491.209 88.089 491.745 88.8725 492.56 89.0246L493.111 86.0756ZM480.171 87.2008C480.994 87.2925 481.736 86.6994 481.828 85.876C481.92 85.0527 481.327 84.3109 480.503 84.2192L480.171 87.2008ZM468.375 83.2148C467.548 83.1681 466.839 83.8008 466.793 84.628C466.746 85.4551 467.379 86.1634 468.206 86.21L468.375 83.2148ZM456.745 85.8389C457.574 85.8462 458.251 85.1805 458.258 84.3521C458.266 83.5237 457.6 82.8463 456.772 82.8391L456.745 85.8389ZM445.165 83.0041C444.337 83.0345 443.691 83.7303 443.721 84.5582C443.751 85.3861 444.447 86.0325 445.275 86.002L445.165 83.0041ZM433.821 86.6734C434.646 86.6073 435.262 85.8843 435.196 85.0585C435.13 84.2327 434.407 83.6168 433.581 83.6829L433.821 86.6734ZM422.04 84.8443C421.217 84.9437 420.631 85.691 420.731 86.5134C420.83 87.3359 421.577 87.922 422.4 87.8226L422.04 84.8443ZM411.028 89.4165C411.846 89.2863 412.404 88.5176 412.273 87.6995C412.143 86.8813 411.375 86.3236 410.556 86.4537L411.028 89.4165ZM399.143 88.4749C398.33 88.6332 397.799 89.4208 397.957 90.2339C398.115 91.0471 398.903 91.5779 399.716 91.4196L399.143 88.4749ZM388.472 93.796C389.28 93.6122 389.786 92.8083 389.602 92.0006C389.418 91.1928 388.614 90.687 387.806 90.8708L388.472 93.796ZM376.551 93.6043C375.749 93.811 375.266 94.6289 375.473 95.4311C375.68 96.2333 376.498 96.7161 377.3 96.5093L376.551 93.6043ZM366.201 99.524C366.997 99.2969 367.459 98.467 367.232 97.6703C367.005 96.8736 366.175 96.4119 365.378 96.639L366.201 99.524ZM354.285 99.9397C353.493 100.185 353.051 101.025 353.296 101.816C353.541 102.608 354.381 103.05 355.172 102.805L354.285 99.9397ZM344.211 106.32C344.998 106.059 345.424 105.211 345.164 104.424C344.903 103.638 344.055 103.211 343.268 103.472L344.211 106.32ZM331.776 107.383C330.993 107.655 330.579 108.51 330.851 109.292C331.123 110.075 331.978 110.489 332.761 110.217L331.776 107.383ZM320.819 114.461C321.598 114.178 321.999 113.317 321.715 112.538C321.432 111.76 320.571 111.359 319.793 111.642L320.819 114.461ZM307.877 116.104C307.104 116.403 306.72 117.271 307.018 118.044C307.316 118.817 308.184 119.202 308.957 118.903L307.877 116.104ZM297.196 123.591C297.962 123.276 298.327 122.399 298.011 121.633C297.695 120.867 296.818 120.502 296.052 120.818L297.196 123.591ZM284.345 125.832C283.588 126.168 283.247 127.055 283.584 127.812C283.921 128.569 284.807 128.909 285.564 128.573L284.345 125.832ZM274.091 133.894C274.837 133.533 275.149 132.636 274.788 131.89C274.427 131.144 273.53 130.832 272.785 131.193L274.091 133.894ZM261.119 137.085C260.386 137.471 260.105 138.379 260.492 139.111C260.879 139.844 261.786 140.125 262.519 139.738L261.119 137.085ZM251.068 146.324C251.766 145.878 251.969 144.95 251.522 144.252C251.076 143.555 250.148 143.351 249.45 143.798L251.068 146.324ZM238.582 151.906C237.962 152.456 237.905 153.404 238.454 154.024C239.004 154.644 239.952 154.701 240.572 154.152L238.582 151.906ZM231.875 163.762C232.351 163.085 232.189 162.149 231.511 161.673C230.834 161.196 229.898 161.359 229.421 162.036L231.875 163.762ZM223.592 173.078C223.306 173.856 223.706 174.717 224.483 175.003C225.261 175.288 226.123 174.889 226.408 174.111L223.592 173.078ZM223.957 184.373C224.058 183.551 223.473 182.803 222.651 182.701C221.829 182.6 221.08 183.185 220.979 184.007L223.957 184.373ZM220.755 195.205C220.82 196.031 221.542 196.648 222.368 196.583C223.194 196.518 223.811 195.796 223.746 194.97L220.755 195.205ZM225.536 205.454C225.325 204.653 224.505 204.174 223.704 204.385C222.903 204.596 222.424 205.416 222.635 206.217L225.536 205.454ZM226.378 216.729C226.72 217.483 227.609 217.817 228.364 217.475C229.118 217.132 229.452 216.243 229.109 215.489L226.378 216.729ZM234.313 224.781C233.848 224.096 232.915 223.917 232.23 224.382C231.544 224.847 231.365 225.78 231.83 226.465L234.313 224.781ZM238.911 235.114C239.493 235.703 240.443 235.709 241.032 235.127C241.622 234.545 241.628 233.595 241.046 233.006L238.911 235.114ZM249.208 239.751C248.517 239.294 247.586 239.483 247.129 240.174C246.672 240.865 246.861 241.795 247.552 242.252L249.208 239.751ZM258.542 247.665C259.327 247.931 260.178 247.51 260.444 246.726C260.71 245.941 260.29 245.09 259.505 244.824L258.542 247.665ZM271.723 247.203C270.896 247.148 270.181 247.773 270.126 248.599C270.07 249.426 270.695 250.141 271.522 250.197L271.723 247.203ZM284.658 249.72C285.48 249.614 286.06 248.861 285.953 248.04C285.847 247.218 285.095 246.638 284.273 246.745L284.658 249.72ZM296.682 244.221C295.882 244.437 295.408 245.26 295.624 246.06C295.84 246.86 296.663 247.334 297.463 247.118L296.682 244.221ZM309.842 243.142C310.62 242.857 311.019 241.995 310.734 241.218C310.449 240.44 309.587 240.04 308.81 240.326L309.842 243.142ZM320.696 235.582C319.933 235.906 319.578 236.787 319.902 237.549C320.226 238.312 321.107 238.667 321.869 238.343L320.696 235.582ZM333.393 233.216C334.14 232.859 334.456 231.964 334.099 231.216C333.742 230.469 332.847 230.152 332.099 230.509L333.393 233.216ZM342.832 224.903C342.113 225.313 341.862 226.23 342.273 226.949C342.684 227.668 343.6 227.919 344.32 227.508L342.832 224.903ZM354.782 220.961C355.465 220.493 355.64 219.559 355.171 218.876C354.703 218.192 353.77 218.018 353.086 218.486L354.782 220.961ZM362.755 211.23C362.115 211.756 362.022 212.701 362.547 213.341C363.073 213.982 364.018 214.075 364.658 213.549L362.755 211.23ZM373.856 205.312C374.449 204.734 374.461 203.784 373.883 203.191C373.304 202.598 372.354 202.586 371.761 203.165L373.856 205.312ZM380.071 194.372C379.526 194.996 379.59 195.944 380.215 196.489C380.839 197.034 381.786 196.97 382.331 196.346L380.071 194.372ZM390.397 186.375C390.895 185.713 390.762 184.772 390.099 184.275C389.437 183.777 388.497 183.91 387.999 184.573L390.397 186.375ZM395.49 173.827C395.041 174.523 395.24 175.451 395.936 175.901C396.632 176.351 397.56 176.151 398.01 175.455L395.49 173.827ZM404.85 164.042C405.252 163.318 404.991 162.405 404.267 162.003C403.542 161.601 402.629 161.862 402.227 162.586L404.85 164.042ZM408.228 150.927C407.871 151.675 408.189 152.57 408.937 152.926C409.684 153.283 410.58 152.965 410.936 152.217L408.228 150.927ZM416.303 140.058C416.616 139.291 416.248 138.415 415.481 138.102C414.714 137.789 413.839 138.157 413.526 138.924L416.303 140.058ZM418.167 126.642C417.894 127.425 418.306 128.28 419.088 128.553C419.871 128.826 420.726 128.413 420.999 127.631L418.167 126.642ZM425.078 114.997C425.315 114.203 424.863 113.368 424.069 113.132C423.275 112.895 422.44 113.347 422.203 114.141L425.078 114.997ZM425.692 101.467C425.488 102.27 425.974 103.086 426.777 103.29C427.58 103.493 428.396 103.007 428.6 102.204L425.692 101.467ZM431.435 90.2434C431.616 89.4348 431.107 88.633 430.298 88.4525C429.49 88.272 428.688 88.781 428.507 89.5895L431.435 90.2434ZM430.725 78.5916C430.583 79.4078 431.13 80.1843 431.946 80.326C432.762 80.4676 433.539 79.9208 433.681 79.1045L430.725 78.5916ZM435.174 67.7808C435.242 66.9552 434.629 66.2302 433.803 66.1614C432.978 66.0926 432.253 66.7061 432.184 67.5317L435.174 67.7808ZM432.401 56.4534C432.444 57.2807 433.15 57.9163 433.977 57.873C434.805 57.8297 435.44 57.124 435.397 56.2967L432.401 56.4534ZM433.788 44.861C433.595 44.0552 432.786 43.5577 431.981 43.7499C431.175 43.9421 430.677 44.7512 430.869 45.557L433.788 44.861ZM427.236 35.223C427.592 35.9711 428.487 36.2889 429.235 35.9329C429.983 35.5769 430.301 34.682 429.945 33.9339L427.236 35.223ZM423.77 24.0165C423.247 23.3737 422.302 23.2763 421.66 23.799C421.017 24.3216 420.92 25.2664 421.442 25.9091L423.77 24.0165ZM413.471 18.3363C414.137 18.8297 415.076 18.6902 415.57 18.0248C416.063 17.3593 415.924 16.4199 415.258 15.9265L413.471 18.3363ZM405.197 9.99054C404.447 9.63996 403.554 9.96423 403.203 10.7148C402.853 11.4654 403.177 12.3581 403.928 12.7087L405.197 9.99054ZM393.471 8.79364C394.265 9.02848 395.099 8.57483 395.334 7.78038C395.569 6.98594 395.115 6.15154 394.321 5.9167L393.471 8.79364ZM383.066 3.28286C382.251 3.13626 381.471 3.67839 381.324 4.49374C381.178 5.30909 381.72 6.08891 382.535 6.23551L383.066 3.28286ZM371.361 4.71137C372.185 4.79193 372.919 4.18885 372.999 3.36435C373.08 2.53984 372.477 1.80615 371.652 1.72559L371.361 4.71137ZM359.73 0.948735C358.902 0.919969 358.208 1.56782 358.179 2.39575C358.15 3.22367 358.798 3.91816 359.626 3.94693L359.73 0.948735ZM347.403 3.88728C348.231 3.86719 348.887 3.17952 348.866 2.35134C348.846 1.52316 348.159 0.868068 347.331 0.888158L347.403 3.88728ZM334.953 1.53141C334.128 1.59667 333.511 2.31906 333.576 3.14491C333.641 3.97076 334.364 4.58734 335.19 4.52208L334.953 1.53141ZM323.019 5.79602C323.841 5.68947 324.42 4.93709 324.314 4.11554C324.207 3.294 323.455 2.71439 322.633 2.82094L323.019 5.79602ZM310.396 4.698C309.58 4.84198 309.035 5.62005 309.179 6.43587C309.323 7.25169 310.101 7.79632 310.917 7.65235L310.396 4.698ZM298.9 10.035C299.71 9.85741 300.222 9.05746 300.044 8.2483C299.866 7.43914 299.066 6.92719 298.257 7.10483L298.9 10.035ZM286.228 9.98609C285.427 10.1938 284.945 11.0123 285.153 11.8143C285.36 12.6162 286.179 13.098 286.981 12.8903L286.228 9.98609ZM275.164 16.167C275.959 15.9325 276.413 15.0984 276.178 14.3038C275.944 13.5093 275.11 13.0552 274.315 13.2896L275.164 16.167ZM262.517 16.967C261.729 17.225 261.301 18.0724 261.559 18.8596C261.817 19.6468 262.664 20.0758 263.451 19.8177L262.517 16.967ZM251.84 23.7978C252.621 23.5191 253.027 22.6607 252.748 21.8806C252.47 21.1005 251.611 20.694 250.831 20.9728L251.84 23.7978ZM239.569 25.1372C238.795 25.432 238.406 26.2986 238.701 27.0728C238.996 27.847 239.863 28.2356 240.637 27.9407L239.569 25.1372ZM229.823 32.1731C230.591 31.8639 230.964 30.9903 230.655 30.2217C230.345 29.4531 229.472 29.0806 228.703 29.3898L229.823 32.1731ZM217.919 33.8506C217.157 34.1749 216.802 35.0558 217.126 35.8181C217.45 36.5804 218.331 36.9355 219.093 36.6112L217.919 33.8506ZM208.459 41.2671C209.214 40.9267 209.551 40.0386 209.21 39.2833C208.87 38.528 207.982 38.1916 207.227 38.5319L208.459 41.2671ZM196.637 43.4455C195.889 43.8027 195.573 44.6982 195.93 45.4457C196.287 46.1931 197.183 46.5096 197.93 46.1524L196.637 43.4455ZM187.519 51.2783C188.258 50.9035 188.553 50.0008 188.178 49.262C187.803 48.5232 186.9 48.2281 186.162 48.6028L187.519 51.2783ZM175.813 54.0143C175.084 54.4074 174.812 55.3173 175.205 56.0465C175.598 56.7757 176.508 57.0482 177.237 56.6551L175.813 54.0143ZM167.097 62.2922C167.816 61.8802 168.065 60.9635 167.652 60.2449C167.24 59.5262 166.324 59.2776 165.605 59.6897L167.097 62.2922ZM155.551 65.6373C154.844 66.0689 154.621 66.992 155.052 67.6991C155.484 68.4062 156.407 68.6296 157.114 68.198L155.551 65.6373ZM147.301 74.3795C147.995 73.9279 148.192 72.9988 147.741 72.3043C147.289 71.6097 146.36 71.4127 145.666 71.8643L147.301 74.3795ZM135.964 78.376C135.283 78.8478 135.113 79.7823 135.585 80.4632C136.057 81.1442 136.992 81.3137 137.672 80.8419L135.964 78.376ZM128.243 87.589C128.909 87.0967 129.05 86.1575 128.558 85.4912C128.066 84.8249 127.127 84.6839 126.46 85.1762L128.243 87.589ZM117.17 92.2668C116.519 92.7796 116.408 93.7228 116.921 94.3734C117.433 95.024 118.377 95.1356 119.027 94.6228L117.17 92.2668ZM110.038 101.943C110.672 101.41 110.754 100.464 110.22 99.8296C109.687 99.1957 108.741 99.1141 108.107 99.6474L110.038 101.943ZM99.2852 107.316C98.6688 107.87 98.6179 108.818 99.1715 109.434C99.7251 110.051 100.673 110.101 101.29 109.548L99.2852 107.316ZM92.7937 117.433C93.3916 116.86 93.4114 115.91 92.838 115.312C92.2646 114.715 91.315 114.695 90.7171 115.268L92.7937 117.433ZM82.4782 123.414C81.8968 124.004 81.9038 124.954 82.4939 125.535C83.084 126.117 84.0337 126.11 84.6151 125.52L82.4782 123.414ZM76.7086 133.744C77.2751 133.14 77.2443 132.191 76.6399 131.624C76.0354 131.058 75.0862 131.088 74.5197 131.693L76.7086 133.744ZM66.7769 140.178C66.2269 140.797 66.2832 141.745 66.9026 142.295C67.5221 142.845 68.4702 142.789 69.0202 142.169L66.7769 140.178ZM61.5722 150.804C62.1041 150.169 62.0204 149.222 61.3852 148.691C60.7501 148.159 59.804 148.242 59.2722 148.878L61.5722 150.804ZM52.0297 157.801C51.5179 158.453 51.6309 159.396 52.2823 159.907C52.9336 160.419 53.8766 160.306 54.3885 159.655L52.0297 157.801ZM47.4949 168.73C47.9848 168.062 47.8405 167.123 47.1725 166.633C46.5045 166.143 45.5658 166.287 45.0758 166.955L47.4949 168.73ZM38.4385 176.346C37.9725 177.031 38.15 177.964 38.835 178.43C39.5199 178.896 40.4529 178.718 40.9189 178.033L38.4385 176.346ZM34.6898 187.568C35.1296 186.866 34.917 185.94 34.2149 185.5C33.5129 185.061 32.5872 185.273 32.1474 185.975L34.6898 187.568ZM26.5632 195.404C26.1684 196.133 26.4389 197.043 27.1672 197.438C27.8955 197.833 28.806 197.562 29.2007 196.834L26.5632 195.404ZM24.7136 205.955C25.0516 205.199 24.7125 204.311 23.9561 203.973C23.1998 203.636 22.3126 203.975 21.9747 204.731L24.7136 205.955ZM18.0411 214.326C17.7485 215.101 18.1396 215.967 18.9146 216.26C19.6897 216.552 20.5551 216.161 20.8477 215.386L18.0411 214.326ZM17.4426 225.025C17.7045 224.239 17.2796 223.39 16.4936 223.128C15.7077 222.866 14.8583 223.291 14.5964 224.077L17.4426 225.025ZM11.4453 233.895C11.1982 234.685 11.6388 235.527 12.4295 235.774C13.2202 236.021 14.0615 235.581 14.3087 234.79L11.4453 233.895ZM11.2481 244.609C11.4966 243.819 11.0574 242.977 10.2671 242.728C9.4768 242.48 8.63471 242.919 8.38622 243.709L11.2481 244.609ZM481.392 352.64C483.142 351.797 484.869 350.918 486.572 350.004L485.155 347.36C483.489 348.253 481.8 349.113 480.089 349.938L481.392 352.64ZM496.56 344.09C499.811 341.976 502.965 339.731 506.02 337.365L504.183 334.993C501.192 337.31 498.105 339.507 494.925 341.575L496.56 344.09ZM514.902 329.901C517.761 327.3 520.518 324.587 523.173 321.772L520.991 319.713C518.387 322.474 515.684 325.133 512.883 327.682L514.902 329.901ZM530.813 313.049C533.247 310.057 535.578 306.973 537.803 303.807L535.349 302.082C533.164 305.191 530.875 308.219 528.486 311.156L530.813 313.049ZM544.141 294.106C546.139 290.81 548.032 287.442 549.817 284.012L547.156 282.627C545.4 286 543.54 289.311 541.575 292.551L544.141 294.106ZM554.832 273.573C556.391 270.046 557.842 266.467 559.182 262.844L556.369 261.803C555.05 265.368 553.622 268.89 552.088 272.36L554.832 273.573ZM562.865 251.868C563.98 248.174 564.984 244.445 565.873 240.69L562.954 239.998C562.078 243.694 561.091 247.365 559.993 251.001L562.865 251.868ZM568.2 229.35C568.861 225.544 569.407 221.721 569.833 217.89L566.852 217.558C566.432 221.328 565.895 225.09 565.244 228.836L568.2 229.35ZM570.759 206.347C570.948 202.484 571.015 198.622 570.959 194.77L567.959 194.814C568.015 198.602 567.949 202.4 567.763 206.2L570.759 206.347ZM570.411 183.198C570.101 179.339 569.663 175.499 569.094 171.688L566.126 172.131C566.685 175.874 567.116 179.646 567.421 183.439L570.411 183.198ZM566.98 160.291C566.138 156.51 565.161 152.767 564.046 149.074L561.174 149.941C562.267 153.562 563.225 157.232 564.052 160.943L566.98 160.291ZM560.27 138.106C559.569 136.303 558.833 134.514 558.061 132.741L555.31 133.939C556.066 135.674 556.787 137.426 557.474 139.193L560.27 138.106ZM558.061 132.741C557.186 130.732 556.252 128.8 555.262 126.942L552.614 128.353C553.567 130.14 554.467 132.001 555.31 133.939L558.061 132.741ZM548.254 116.136C545.548 112.676 542.593 109.558 539.419 106.752L537.432 108.999C540.471 111.686 543.3 114.671 545.891 117.984L548.254 116.136ZM529.059 99.1036C525.426 96.872 521.604 94.9299 517.628 93.2429L516.456 96.0046C520.307 97.6383 523.994 99.5131 527.489 101.66L529.059 99.1036ZM505.546 88.9918C501.505 87.8298 497.35 86.8675 493.111 86.0756L492.56 89.0246C496.717 89.801 500.777 90.7422 504.717 91.875L505.546 88.9918ZM480.503 84.2192C478.405 83.9855 476.293 83.7843 474.169 83.6124L473.927 86.6026C476.022 86.7722 478.105 86.9706 480.171 87.2008L480.503 84.2192ZM474.169 83.6124C472.235 83.4558 470.304 83.3235 468.375 83.2148L468.206 86.21C470.111 86.3174 472.018 86.448 473.927 86.6026L474.169 83.6124ZM456.772 82.8391C452.892 82.8052 449.023 82.8621 445.165 83.0041L445.275 86.002C449.089 85.8617 452.912 85.8055 456.745 85.8389L456.772 82.8391ZM433.581 83.6829C429.723 83.9917 425.876 84.3808 422.04 84.8443L422.4 87.8226C426.197 87.3638 430.004 86.9788 433.821 86.6734L433.581 83.6829ZM410.556 86.4537C406.741 87.0607 402.937 87.7363 399.143 88.4749L399.716 91.4196C403.477 90.6874 407.248 90.0178 411.028 89.4165L410.556 86.4537ZM387.806 90.8708C384.044 91.727 380.292 92.6401 376.551 93.6043L377.3 96.5093C381.015 95.5519 384.739 94.6456 388.472 93.796L387.806 90.8708ZM365.378 96.639C361.67 97.696 357.972 98.7981 354.285 99.9397L355.172 102.805C358.839 101.67 362.516 100.574 366.201 99.524L365.378 96.639ZM343.268 103.472C341.438 104.078 339.611 104.692 337.786 105.315L338.754 108.154C340.571 107.535 342.39 106.923 344.211 106.32L343.268 103.472ZM337.786 105.315C335.783 105.998 333.779 106.687 331.776 107.383L332.761 110.217C334.758 109.523 336.756 108.835 338.754 108.154L337.786 105.315ZM319.793 111.642C315.811 113.092 311.837 114.577 307.877 116.104L308.957 118.903C312.897 117.384 316.853 115.905 320.819 114.461L319.793 111.642ZM296.052 120.818C292.127 122.438 288.222 124.106 284.345 125.832L285.564 128.573C289.415 126.859 293.294 125.201 297.196 123.591L296.052 120.818ZM272.785 131.193C270.871 132.119 268.967 133.06 267.071 134.019L268.425 136.696C270.304 135.746 272.193 134.812 274.091 133.894L272.785 131.193ZM267.071 134.019C265.1 135.016 263.109 136.034 261.119 137.085L262.519 139.738C264.488 138.699 266.462 137.689 268.425 136.696L267.071 134.019ZM249.45 143.798C245.639 146.238 241.964 148.909 238.582 151.906L240.572 154.152C243.811 151.281 247.354 148.702 251.068 146.324L249.45 143.798ZM229.421 162.036C228.118 163.888 226.924 165.842 225.858 167.911L228.525 169.285C229.525 167.344 230.647 165.507 231.875 163.762L229.421 162.036ZM225.858 167.911C224.992 169.592 224.238 171.317 223.592 173.078L226.408 174.111C227.012 172.464 227.717 170.853 228.525 169.285L225.858 167.911ZM220.979 184.007C220.525 187.699 220.461 191.455 220.755 195.205L223.746 194.97C223.467 191.409 223.528 187.854 223.957 184.373L220.979 184.007ZM222.635 206.217C223.58 209.81 224.838 213.336 226.378 216.729L229.109 215.489C227.638 212.248 226.438 208.882 225.536 205.454L222.635 206.217ZM231.83 226.465C233.937 229.57 236.306 232.476 238.911 235.114L241.046 233.006C238.575 230.504 236.321 227.741 234.313 224.781L231.83 226.465ZM247.552 242.252C249.119 243.29 250.741 244.238 252.414 245.087L253.772 242.413C252.205 241.617 250.682 240.727 249.208 239.751L247.552 242.252ZM252.414 245.087C254.424 246.108 256.469 246.963 258.542 247.665L259.505 244.824C257.565 244.166 255.652 243.367 253.772 242.413L252.414 245.087ZM271.522 250.197C275.875 250.49 280.274 250.287 284.658 249.72L284.273 246.745C280.05 247.291 275.851 247.481 271.723 247.203L271.522 250.197ZM297.463 247.118C301.662 245.986 305.806 244.622 309.842 243.142L308.81 240.326C304.836 241.783 300.777 243.117 296.682 244.221L297.463 247.118ZM321.869 238.343C323.89 237.484 325.866 236.624 327.79 235.78L326.585 233.033C324.667 233.874 322.701 234.729 320.696 235.582L321.869 238.343ZM327.79 235.78C329.689 234.948 331.556 234.094 333.393 233.216L332.099 230.509C330.293 231.372 328.455 232.213 326.585 233.033L327.79 235.78ZM344.32 227.508C347.925 225.449 351.408 223.272 354.782 220.961L353.086 218.486C349.782 220.749 346.369 222.883 342.832 224.903L344.32 227.508ZM364.658 213.549C367.816 210.958 370.878 208.217 373.856 205.312L371.761 203.165C368.844 206.011 365.846 208.694 362.755 211.23L364.658 213.549ZM382.331 196.346C383.67 194.812 384.993 193.239 386.301 191.624L383.97 189.736C382.684 191.323 381.385 192.868 380.071 194.372L382.331 196.346ZM386.301 191.624C387.703 189.894 389.068 188.144 390.397 186.375L387.999 184.573C386.691 186.313 385.349 188.034 383.97 189.736L386.301 191.624ZM398.01 175.455C400.424 171.72 402.701 167.913 404.85 164.042L402.227 162.586C400.11 166.4 397.867 170.15 395.49 173.827L398.01 175.455ZM410.936 152.217C412.842 148.218 414.628 144.162 416.303 140.058L413.526 138.924C411.871 142.978 410.108 146.981 408.228 150.927L410.936 152.217ZM420.999 127.631C422.456 123.458 423.813 119.245 425.078 114.997L422.203 114.141C420.95 118.346 419.608 122.516 418.167 126.642L420.999 127.631ZM428.6 102.204C429.143 100.063 429.666 97.9148 430.17 95.7611L427.248 95.0779C426.749 97.2139 426.23 99.3439 425.692 101.467L428.6 102.204ZM430.17 95.7611C430.598 93.9278 431.023 92.0875 431.435 90.2434L428.507 89.5895C428.099 91.42 427.676 93.2495 427.248 95.0779L430.17 95.7611ZM433.681 79.1045C434.335 75.3333 434.859 71.5531 435.174 67.7808L432.184 67.5317C431.879 71.1957 431.368 74.8856 430.725 78.5916L433.681 79.1045ZM435.397 56.2967C435.196 52.4577 434.689 48.6397 433.788 44.861L430.869 45.557C431.724 49.1385 432.209 52.7742 432.401 56.4534L435.397 56.2967ZM429.945 33.9339C429.128 32.2181 428.208 30.5167 427.178 28.8314L424.618 30.3969C425.595 31.9927 426.464 33.6018 427.236 35.223L429.945 33.9339ZM427.178 28.8314C426.134 27.1257 424.995 25.5227 423.77 24.0165L421.442 25.9091C422.584 27.3133 423.646 28.8072 424.618 30.3969L427.178 28.8314ZM415.258 15.9265C412.132 13.6087 408.748 11.6488 405.197 9.99054L403.928 12.7087C407.32 14.2932 410.528 16.1535 413.471 18.3363L415.258 15.9265ZM394.321 5.9167C390.622 4.82331 386.843 3.96198 383.066 3.28286L382.535 6.23551C386.222 6.89836 389.892 7.73592 393.471 8.79364L394.321 5.9167ZM371.652 1.72559C369.718 1.5366 367.805 1.38367 365.926 1.25986L365.729 4.25337C367.58 4.37532 369.461 4.52575 371.361 4.71137L371.652 1.72559ZM365.926 1.25986C363.861 1.1238 361.795 1.02048 359.73 0.948735L359.626 3.94693C361.661 4.01761 363.695 4.11939 365.729 4.25337L365.926 1.25986ZM347.331 0.888158C343.199 0.98837 339.073 1.20591 334.953 1.53141L335.19 4.52208C339.257 4.20071 343.329 3.98611 347.403 3.88728L347.331 0.888158ZM322.633 2.82094C318.542 3.35156 314.462 3.98034 310.396 4.698L310.917 7.65235C314.941 6.94225 318.976 6.32049 323.019 5.79602L322.633 2.82094ZM298.257 7.10483C294.23 7.98897 290.219 8.95245 286.228 9.98609L286.981 12.8903C290.937 11.8655 294.911 10.9108 298.9 10.035L298.257 7.10483ZM274.315 13.2896C270.358 14.4572 266.424 15.686 262.517 16.967L263.451 19.8177C267.332 18.5455 271.238 17.3256 275.164 16.167L274.315 13.2896ZM250.831 20.9728C248.89 21.6663 246.956 22.3708 245.03 23.085L246.073 25.8979C247.988 25.1877 249.911 24.4873 251.84 23.7978L250.831 20.9728ZM245.03 23.085C243.205 23.7618 241.384 24.4458 239.569 25.1372L240.637 27.9407C242.444 27.2526 244.256 26.5717 246.073 25.8979L245.03 23.085ZM228.703 29.3898C225.087 30.8442 221.492 32.3305 217.919 33.8506L219.093 36.6112C222.648 35.0991 226.224 33.6203 229.823 32.1731L228.703 29.3898ZM207.227 38.5319C203.673 40.133 200.143 41.7702 196.637 43.4455L197.93 46.1524C201.416 44.487 204.926 42.8592 208.459 41.2671L207.227 38.5319ZM186.162 48.6028C182.687 50.3656 179.237 52.1688 175.813 54.0143L177.237 56.6551C180.638 54.8216 184.066 53.03 187.519 51.2783L186.162 48.6028ZM165.605 59.6897C162.226 61.627 158.875 63.6089 155.551 65.6373L157.114 68.198C160.414 66.1842 163.742 64.2162 167.097 62.2922L165.605 59.6897ZM145.666 71.8643C142.402 73.9858 139.168 76.1557 135.964 78.376L137.672 80.8419C140.852 78.6387 144.062 76.4852 147.301 74.3795L145.666 71.8643ZM126.46 85.1762C123.333 87.4873 120.235 89.8502 117.17 92.2668L119.027 94.6228C122.068 92.2258 125.14 89.8818 128.243 87.589L126.46 85.1762ZM108.107 99.6474C105.134 102.149 102.193 104.704 99.2852 107.316L101.29 109.548C104.174 106.958 107.09 104.423 110.038 101.943L108.107 99.6474ZM90.7171 115.268C89.3138 116.614 87.9187 117.974 86.5319 119.349L88.6438 121.479C90.0189 120.117 91.4022 118.768 92.7937 117.433L90.7171 115.268ZM86.5319 119.349C85.1737 120.695 83.8223 122.05 82.4782 123.414L84.6151 125.52C85.9507 124.164 87.2938 122.817 88.6438 121.479L86.5319 119.349ZM74.5197 131.693C71.903 134.485 69.3204 137.313 66.7769 140.178L69.0202 142.169C71.5452 139.326 74.1096 136.517 76.7086 133.744L74.5197 131.693ZM59.2722 148.878C56.8127 151.815 54.3969 154.789 52.0297 157.801L54.3885 159.655C56.7359 156.668 59.132 153.718 61.5722 150.804L59.2722 148.878ZM45.0758 166.955C42.8083 170.047 40.5943 173.177 38.4385 176.346L40.9189 178.033C43.0541 174.894 45.2477 171.793 47.4949 168.73L45.0758 166.955ZM32.1474 185.975C31.1295 187.6 30.1273 189.235 29.1416 190.88L31.7149 192.423C32.6904 190.795 33.6822 189.177 34.6898 187.568L32.1474 185.975ZM29.1416 190.88C28.2428 192.38 27.3847 193.888 26.5632 195.404L29.2007 196.834C30.0025 195.354 30.8392 193.884 31.7149 192.423L29.1416 190.88ZM21.9747 204.731C20.5567 207.904 19.2575 211.104 18.0411 214.326L20.8477 215.386C22.0467 212.21 23.3237 209.065 24.7136 205.955L21.9747 204.731ZM14.5964 224.077C13.5116 227.333 12.4726 230.608 11.4453 233.895L14.3087 234.79C15.3339 231.51 16.3665 228.255 17.4426 225.025L14.5964 224.077ZM8.38622 243.709C7.87453 245.336 7.3571 246.966 6.82961 248.597L9.6841 249.52C10.2148 247.879 10.7347 246.242 11.2481 244.609L8.38622 243.709Z" fill="url(#paint0_linear_24_7210)"></path> <defs> <linearGradient id="paint0_linear_24_7210" x1="625.756" y1="285.451" x2="-42.2716" y2="193.807" gradientUnits="userSpaceOnUse"> <stop stop-color="#00CAE7"></stop> <stop offset="0.482292" stop-color="#897BFF"></stop> <stop offset="1" stop-color="#EB00FF"></stop> </linearGradient> </defs> </svg> 