<?xml version="1.0" encoding="UTF-8"?> <svg xmlns="http://www.w3.org/2000/svg" width="295" height="216" viewBox="0 0 295 216" fill="none"> <path d="M68.8228 142.53C68.8228 146.772 67.6685 150.018 65.3599 152.268C63.063 154.506 59.7525 155.625 55.4283 155.625H48.3091V129.926H56.1841C60.1802 129.926 63.2857 131.034 65.5005 133.249C67.7154 135.463 68.8228 138.557 68.8228 142.53ZM65.6588 142.635C65.6588 139.284 64.815 136.758 63.1275 135.059C61.4517 133.36 58.9556 132.51 55.6392 132.51H51.2974V153.042H54.9361C58.4986 153.042 61.1763 152.168 62.9693 150.422C64.7623 148.665 65.6588 146.069 65.6588 142.635ZM77.0494 155.625H74.1314V136.36H77.0494V155.625ZM73.8853 131.139C73.8853 130.471 74.0494 129.985 74.3775 129.68C74.7056 129.364 75.1158 129.206 75.608 129.206C76.0767 129.206 76.481 129.364 76.8209 129.68C77.1607 129.997 77.3306 130.483 77.3306 131.139C77.3306 131.795 77.1607 132.288 76.8209 132.616C76.481 132.932 76.0767 133.09 75.608 133.09C75.1158 133.09 74.7056 132.932 74.3775 132.616C74.0494 132.288 73.8853 131.795 73.8853 131.139ZM95.6646 150.37C95.6646 152.163 94.9966 153.545 93.6607 154.518C92.3248 155.491 90.4498 155.977 88.0357 155.977C85.481 155.977 83.4888 155.573 82.0591 154.764V152.057C82.9849 152.526 83.9752 152.895 85.0298 153.165C86.0963 153.434 87.1216 153.569 88.106 153.569C89.6295 153.569 90.8013 153.329 91.6216 152.848C92.442 152.356 92.8521 151.612 92.8521 150.616C92.8521 149.866 92.524 149.227 91.8677 148.7C91.2232 148.161 89.9576 147.528 88.0709 146.801C86.2779 146.133 85.0005 145.553 84.2388 145.061C83.4888 144.557 82.9263 143.989 82.5513 143.356C82.188 142.723 82.0064 141.967 82.0064 141.088C82.0064 139.518 82.6451 138.282 83.9224 137.379C85.1998 136.465 86.9517 136.008 89.1783 136.008C91.2525 136.008 93.2798 136.43 95.2603 137.274L94.2232 139.647C92.2896 138.85 90.5377 138.452 88.9673 138.452C87.5845 138.452 86.5416 138.668 85.8384 139.102C85.1353 139.536 84.7838 140.133 84.7838 140.895C84.7838 141.411 84.9127 141.85 85.1705 142.213C85.44 142.577 85.8677 142.922 86.4537 143.25C87.0396 143.579 88.1646 144.053 89.8287 144.674C92.1138 145.506 93.6548 146.344 94.4517 147.188C95.2603 148.032 95.6646 149.092 95.6646 150.37ZM108.128 155.977C105.338 155.977 103.176 155.122 101.641 153.411C100.118 151.688 99.356 149.256 99.356 146.116C99.356 142.893 100.129 140.403 101.676 138.645C103.235 136.887 105.45 136.008 108.321 136.008C109.247 136.008 110.172 136.108 111.098 136.307C112.024 136.506 112.751 136.741 113.278 137.01L112.381 139.489C111.737 139.231 111.034 139.02 110.272 138.856C109.51 138.68 108.836 138.592 108.251 138.592C104.336 138.592 102.379 141.088 102.379 146.081C102.379 148.448 102.854 150.264 103.803 151.53C104.764 152.795 106.182 153.428 108.057 153.428C109.663 153.428 111.309 153.083 112.997 152.391V154.975C111.708 155.643 110.085 155.977 108.128 155.977ZM134.213 145.975C134.213 149.116 133.422 151.571 131.84 153.34C130.258 155.098 128.073 155.977 125.284 155.977C123.561 155.977 122.032 155.573 120.696 154.764C119.36 153.956 118.329 152.795 117.602 151.284C116.876 149.772 116.512 148.002 116.512 145.975C116.512 142.834 117.297 140.391 118.868 138.645C120.438 136.887 122.618 136.008 125.407 136.008C128.102 136.008 130.241 136.905 131.823 138.698C133.417 140.491 134.213 142.917 134.213 145.975ZM119.536 145.975C119.536 148.436 120.028 150.311 121.012 151.6C121.997 152.889 123.444 153.534 125.354 153.534C127.264 153.534 128.711 152.895 129.696 151.618C130.692 150.329 131.19 148.448 131.19 145.975C131.19 143.526 130.692 141.668 129.696 140.403C128.711 139.125 127.253 138.487 125.319 138.487C123.409 138.487 121.967 139.114 120.995 140.368C120.022 141.622 119.536 143.491 119.536 145.975ZM142.088 136.36V148.858C142.088 150.428 142.446 151.6 143.161 152.374C143.876 153.147 144.995 153.534 146.518 153.534C148.534 153.534 150.004 152.983 150.93 151.881C151.868 150.78 152.336 148.981 152.336 146.485V136.36H155.254V155.625H152.846L152.424 153.042H152.266C151.669 153.991 150.836 154.717 149.77 155.221C148.715 155.725 147.508 155.977 146.149 155.977C143.805 155.977 142.047 155.42 140.876 154.307C139.715 153.194 139.135 151.413 139.135 148.963V136.36H142.088ZM174.643 155.625V143.163C174.643 141.592 174.286 140.42 173.571 139.647C172.856 138.874 171.737 138.487 170.213 138.487C168.198 138.487 166.721 139.032 165.784 140.122C164.846 141.211 164.378 143.01 164.378 145.518V155.625H161.46V136.36H163.833L164.307 138.997H164.448C165.045 138.047 165.883 137.315 166.961 136.799C168.04 136.272 169.241 136.008 170.565 136.008C172.885 136.008 174.631 136.571 175.803 137.696C176.975 138.809 177.561 140.596 177.561 143.057V155.625H174.643ZM189.795 153.569C190.311 153.569 190.809 153.534 191.29 153.463C191.77 153.381 192.151 153.299 192.432 153.217V155.45C192.116 155.602 191.647 155.725 191.026 155.819C190.417 155.924 189.866 155.977 189.374 155.977C185.647 155.977 183.784 154.014 183.784 150.088V138.627H181.024V137.221L183.784 136.008L185.014 131.895H186.702V136.36H192.292V138.627H186.702V149.965C186.702 151.125 186.977 152.016 187.528 152.637C188.079 153.258 188.835 153.569 189.795 153.569ZM208.727 150.37C208.727 152.163 208.059 153.545 206.723 154.518C205.387 155.491 203.512 155.977 201.098 155.977C198.544 155.977 196.551 155.573 195.122 154.764V152.057C196.047 152.526 197.038 152.895 198.092 153.165C199.159 153.434 200.184 153.569 201.169 153.569C202.692 153.569 203.864 153.329 204.684 152.848C205.504 152.356 205.915 151.612 205.915 150.616C205.915 149.866 205.586 149.227 204.93 148.7C204.286 148.161 203.02 147.528 201.133 146.801C199.34 146.133 198.063 145.553 197.301 145.061C196.551 144.557 195.989 143.989 195.614 143.356C195.251 142.723 195.069 141.967 195.069 141.088C195.069 139.518 195.708 138.282 196.985 137.379C198.262 136.465 200.014 136.008 202.241 136.008C204.315 136.008 206.342 136.43 208.323 137.274L207.286 139.647C205.352 138.85 203.6 138.452 202.03 138.452C200.647 138.452 199.604 138.668 198.901 139.102C198.198 139.536 197.846 140.133 197.846 140.895C197.846 141.411 197.975 141.85 198.233 142.213C198.503 142.577 198.93 142.922 199.516 143.25C200.102 143.579 201.227 144.053 202.891 144.674C205.176 145.506 206.717 146.344 207.514 147.188C208.323 148.032 208.727 149.092 208.727 150.37ZM225.76 155.625H222.842V136.36H225.76V155.625ZM222.596 131.139C222.596 130.471 222.76 129.985 223.088 129.68C223.417 129.364 223.827 129.206 224.319 129.206C224.788 129.206 225.192 129.364 225.532 129.68C225.872 129.997 226.042 130.483 226.042 131.139C226.042 131.795 225.872 132.288 225.532 132.616C225.192 132.932 224.788 133.09 224.319 133.09C223.827 133.09 223.417 132.932 223.088 132.616C222.76 132.288 222.596 131.795 222.596 131.139ZM245.131 155.625V143.163C245.131 141.592 244.774 140.42 244.059 139.647C243.344 138.874 242.225 138.487 240.702 138.487C238.686 138.487 237.21 139.032 236.272 140.122C235.335 141.211 234.866 143.01 234.866 145.518V155.625H231.948V136.36H234.321L234.795 138.997H234.936C235.534 138.047 236.372 137.315 237.45 136.799C238.528 136.272 239.729 136.008 241.053 136.008C243.374 136.008 245.12 136.571 246.292 137.696C247.463 138.809 248.049 140.596 248.049 143.057V155.625H245.131ZM41.8052 204.977C40.5513 204.977 39.4029 204.749 38.3599 204.292C37.3287 203.823 36.4615 203.108 35.7584 202.147H35.5474C35.688 203.272 35.7584 204.338 35.7584 205.346V213.274H32.8404V185.36H35.2134L35.6177 187.997H35.7584C36.5084 186.942 37.3814 186.18 38.3775 185.711C39.3736 185.243 40.5162 185.008 41.8052 185.008C44.3599 185.008 46.3287 185.881 47.7115 187.627C49.106 189.374 49.8033 191.823 49.8033 194.975C49.8033 198.139 49.0943 200.6 47.6763 202.358C46.2701 204.104 44.313 204.977 41.8052 204.977ZM41.3834 187.487C39.4146 187.487 37.9908 188.032 37.1119 189.122C36.233 190.211 35.7818 191.946 35.7584 194.325V194.975C35.7584 197.682 36.2095 199.622 37.1119 200.793C38.0142 201.954 39.4615 202.534 41.4537 202.534C43.1177 202.534 44.4185 201.86 45.356 200.512C46.3052 199.165 46.7798 197.307 46.7798 194.94C46.7798 192.538 46.3052 190.698 45.356 189.42C44.4185 188.131 43.0943 187.487 41.3834 187.487ZM66.7662 204.625L66.1861 201.883H66.0455C65.0845 203.09 64.1236 203.911 63.1627 204.344C62.2134 204.766 61.024 204.977 59.5943 204.977C57.6841 204.977 56.1841 204.485 55.0943 203.5C54.0162 202.516 53.4771 201.116 53.4771 199.299C53.4771 195.409 56.5884 193.37 62.8111 193.182L66.0806 193.077V191.881C66.0806 190.37 65.7525 189.256 65.0963 188.542C64.4517 187.815 63.4146 187.452 61.9849 187.452C60.3795 187.452 58.563 187.944 56.5357 188.928L55.6392 186.696C56.5884 186.18 57.6255 185.776 58.7505 185.483C59.8873 185.19 61.024 185.043 62.1607 185.043C64.4576 185.043 66.1568 185.553 67.2584 186.573C68.3716 187.592 68.9283 189.227 68.9283 191.477V204.625H66.7662ZM60.1744 202.569C61.9908 202.569 63.4146 202.071 64.4459 201.075C65.4888 200.079 66.0103 198.684 66.0103 196.891V195.151L63.0923 195.274C60.772 195.356 59.0963 195.719 58.065 196.364C57.0455 196.997 56.5357 197.987 56.5357 199.334C56.5357 200.389 56.8521 201.192 57.4849 201.743C58.1295 202.293 59.0259 202.569 60.1744 202.569ZM83.7466 185.008C84.6021 185.008 85.3697 185.079 86.0494 185.219L85.6451 187.926C84.8482 187.75 84.1451 187.663 83.5357 187.663C81.9771 187.663 80.6412 188.295 79.5279 189.561C78.4263 190.827 77.8755 192.403 77.8755 194.29V204.625H74.9576V185.36H77.3658L77.6998 188.928H77.8404C78.5552 187.674 79.4166 186.708 80.4244 186.028C81.4322 185.348 82.5396 185.008 83.7466 185.008ZM95.8755 202.569C96.3912 202.569 96.8892 202.534 97.3697 202.463C97.8502 202.381 98.231 202.299 98.5123 202.217V204.45C98.1959 204.602 97.7271 204.725 97.106 204.819C96.4966 204.924 95.9459 204.977 95.4537 204.977C91.7271 204.977 89.8638 203.014 89.8638 199.088V187.627H87.1041V186.221L89.8638 185.008L91.0943 180.895H92.7818V185.36H98.3716V187.627H92.7818V198.965C92.7818 200.125 93.0572 201.016 93.608 201.637C94.1588 202.258 94.9146 202.569 95.8755 202.569ZM115.563 204.625V192.163C115.563 190.592 115.206 189.42 114.491 188.647C113.776 187.874 112.657 187.487 111.133 187.487C109.118 187.487 107.641 188.032 106.704 189.122C105.766 190.211 105.297 192.01 105.297 194.518V204.625H102.379V185.36H104.753L105.227 187.997H105.368C105.965 187.047 106.803 186.315 107.881 185.799C108.96 185.272 110.161 185.008 111.485 185.008C113.805 185.008 115.551 185.571 116.723 186.696C117.895 187.809 118.481 189.596 118.481 192.057V204.625H115.563ZM132.631 204.977C129.784 204.977 127.534 204.11 125.881 202.375C124.241 200.641 123.42 198.233 123.42 195.151C123.42 192.045 124.182 189.579 125.706 187.75C127.241 185.922 129.297 185.008 131.876 185.008C134.29 185.008 136.2 185.805 137.606 187.399C139.012 188.981 139.715 191.073 139.715 193.674V195.52H126.444C126.503 197.782 127.071 199.499 128.149 200.67C129.239 201.842 130.768 202.428 132.737 202.428C134.811 202.428 136.862 201.995 138.889 201.127V203.729C137.858 204.174 136.879 204.491 135.954 204.678C135.04 204.877 133.932 204.977 132.631 204.977ZM131.84 187.452C130.294 187.452 129.057 187.956 128.131 188.963C127.217 189.971 126.678 191.366 126.514 193.147H136.586C136.586 191.307 136.176 189.901 135.356 188.928C134.536 187.944 133.364 187.452 131.84 187.452ZM153.497 185.008C154.352 185.008 155.12 185.079 155.799 185.219L155.395 187.926C154.598 187.75 153.895 187.663 153.286 187.663C151.727 187.663 150.391 188.295 149.278 189.561C148.176 190.827 147.626 192.403 147.626 194.29V204.625H144.708V185.36H147.116L147.45 188.928H147.59C148.305 187.674 149.167 186.708 150.174 186.028C151.182 185.348 152.29 185.008 153.497 185.008ZM181.182 199.37C181.182 201.163 180.514 202.545 179.178 203.518C177.842 204.491 175.967 204.977 173.553 204.977C170.999 204.977 169.006 204.573 167.577 203.764V201.057C168.503 201.526 169.493 201.895 170.547 202.165C171.614 202.434 172.639 202.569 173.624 202.569C175.147 202.569 176.319 202.329 177.139 201.848C177.96 201.356 178.37 200.612 178.37 199.616C178.37 198.866 178.042 198.227 177.385 197.7C176.741 197.161 175.475 196.528 173.588 195.801C171.795 195.133 170.518 194.553 169.756 194.061C169.006 193.557 168.444 192.989 168.069 192.356C167.706 191.723 167.524 190.967 167.524 190.088C167.524 188.518 168.163 187.282 169.44 186.379C170.717 185.465 172.469 185.008 174.696 185.008C176.77 185.008 178.797 185.43 180.778 186.274L179.741 188.647C177.807 187.85 176.055 187.452 174.485 187.452C173.102 187.452 172.059 187.668 171.356 188.102C170.653 188.536 170.301 189.133 170.301 189.895C170.301 190.411 170.43 190.85 170.688 191.213C170.958 191.577 171.385 191.922 171.971 192.25C172.557 192.579 173.682 193.053 175.346 193.674C177.631 194.506 179.172 195.344 179.969 196.188C180.778 197.032 181.182 198.092 181.182 199.37ZM199.129 204.625V192.163C199.129 190.592 198.772 189.42 198.057 188.647C197.342 187.874 196.223 187.487 194.7 187.487C192.672 187.487 191.19 188.038 190.253 189.139C189.327 190.241 188.864 192.045 188.864 194.553V204.625H185.946V177.274H188.864V185.553C188.864 186.549 188.817 187.375 188.723 188.032H188.899C189.473 187.106 190.288 186.379 191.342 185.852C192.409 185.313 193.622 185.043 194.981 185.043C197.336 185.043 199.1 185.606 200.272 186.731C201.456 187.844 202.047 189.62 202.047 192.057V204.625H199.129ZM224.688 194.975C224.688 198.116 223.897 200.571 222.315 202.34C220.733 204.098 218.547 204.977 215.758 204.977C214.036 204.977 212.506 204.573 211.17 203.764C209.835 202.956 208.803 201.795 208.077 200.284C207.35 198.772 206.987 197.002 206.987 194.975C206.987 191.834 207.772 189.391 209.342 187.645C210.913 185.887 213.092 185.008 215.881 185.008C218.577 185.008 220.715 185.905 222.297 187.698C223.891 189.491 224.688 191.917 224.688 194.975ZM210.01 194.975C210.01 197.436 210.503 199.311 211.487 200.6C212.471 201.889 213.919 202.534 215.829 202.534C217.739 202.534 219.186 201.895 220.17 200.618C221.167 199.329 221.665 197.448 221.665 194.975C221.665 192.526 221.167 190.668 220.17 189.403C219.186 188.125 217.727 187.487 215.794 187.487C213.883 187.487 212.442 188.114 211.469 189.368C210.497 190.622 210.01 192.491 210.01 194.975ZM238.786 204.977C237.532 204.977 236.383 204.749 235.34 204.292C234.309 203.823 233.442 203.108 232.739 202.147H232.528C232.669 203.272 232.739 204.338 232.739 205.346V213.274H229.821V185.36H232.194L232.598 187.997H232.739C233.489 186.942 234.362 186.18 235.358 185.711C236.354 185.243 237.497 185.008 238.786 185.008C241.34 185.008 243.309 185.881 244.692 187.627C246.086 189.374 246.784 191.823 246.784 194.975C246.784 198.139 246.075 200.6 244.657 202.358C243.251 204.104 241.294 204.977 238.786 204.977ZM238.364 187.487C236.395 187.487 234.971 188.032 234.092 189.122C233.213 190.211 232.762 191.946 232.739 194.325V194.975C232.739 197.682 233.19 199.622 234.092 200.793C234.995 201.954 236.442 202.534 238.434 202.534C240.098 202.534 241.399 201.86 242.336 200.512C243.286 199.165 243.76 197.307 243.76 194.94C243.76 192.538 243.286 190.698 242.336 189.42C241.399 188.131 240.075 187.487 238.364 187.487ZM264.327 199.37C264.327 201.163 263.659 202.545 262.323 203.518C260.987 204.491 259.112 204.977 256.698 204.977C254.143 204.977 252.151 204.573 250.721 203.764V201.057C251.647 201.526 252.637 201.895 253.692 202.165C254.758 202.434 255.784 202.569 256.768 202.569C258.292 202.569 259.463 202.329 260.284 201.848C261.104 201.356 261.514 200.612 261.514 199.616C261.514 198.866 261.186 198.227 260.53 197.7C259.885 197.161 258.62 196.528 256.733 195.801C254.94 195.133 253.663 194.553 252.901 194.061C252.151 193.557 251.588 192.989 251.213 192.356C250.85 191.723 250.669 190.967 250.669 190.088C250.669 188.518 251.307 187.282 252.585 186.379C253.862 185.465 255.614 185.008 257.84 185.008C259.915 185.008 261.942 185.43 263.922 186.274L262.885 188.647C260.952 187.85 259.2 187.452 257.629 187.452C256.247 187.452 255.204 187.668 254.501 188.102C253.797 188.536 253.446 189.133 253.446 189.895C253.446 190.411 253.575 190.85 253.833 191.213C254.102 191.577 254.53 191.922 255.116 192.25C255.702 192.579 256.827 193.053 258.491 193.674C260.776 194.506 262.317 195.344 263.114 196.188C263.922 197.032 264.327 198.092 264.327 199.37Z" fill="white"></path> <g filter="url(#filter0_b_28_8799)"> <g filter="url(#filter1_f_28_8799)"> <path d="M150.292 10.0408H145.462C131.704 10.0408 120.552 21.1934 120.552 34.9508C120.552 48.7082 131.704 59.8608 145.462 59.8608H150.292C164.049 59.8608 175.202 48.7082 175.202 34.9508C175.202 21.1934 164.049 10.0408 150.292 10.0408Z" fill="url(#paint0_linear_28_8799)" fill-opacity="0.6"></path> </g> <path d="M183.602 40.8206L180.662 29.0005C179.982 26.2705 177.552 24.0605 175.242 24.0605H120.532C118.222 24.0605 115.792 26.2705 115.112 29.0005L112.112 40.8206C111.986 41.3474 111.936 41.8895 111.962 42.4305C111.958 42.4503 111.958 42.4709 111.962 42.4906C111.958 42.5438 111.958 42.5973 111.962 42.6505C111.965 44.9571 112.883 47.1684 114.514 48.7994C116.144 50.4304 118.356 51.3479 120.662 51.3506H120.842H120.972H121.162C122.711 51.352 124.228 50.9114 125.536 50.0807C126.843 49.2499 127.886 48.0634 128.542 46.6605C128.677 46.3799 128.887 46.1422 129.148 45.9738C129.41 45.8053 129.713 45.7129 130.024 45.7067C130.335 45.7004 130.642 45.7808 130.91 45.9386C131.178 46.0964 131.397 46.3256 131.542 46.6006C131.85 47.2534 132.243 47.8621 132.712 48.4105L132.792 48.5005L132.932 48.6805C133.105 48.8708 133.289 49.0511 133.482 49.2206C133.652 49.3706 133.832 49.5206 134.062 49.6906L134.182 49.7905L134.512 50.0305C134.888 50.2751 135.283 50.4891 135.692 50.6705L135.892 50.7406H135.992C136.35 50.8808 136.718 50.9945 137.092 51.0806L137.492 51.1705C138.463 51.364 139.462 51.364 140.432 51.1705L140.812 51.0906C141.18 51.0029 141.541 50.8892 141.892 50.7505H142.012L142.212 50.6705C142.62 50.4943 143.011 50.2836 143.382 50.0405C143.512 49.9605 143.612 49.8705 143.722 49.7905L143.852 49.6906C144.082 49.5206 144.252 49.3706 144.412 49.2306C144.572 49.0906 144.792 48.8705 144.972 48.6805C145.022 48.6264 145.069 48.5696 145.112 48.5105L145.172 48.4305C145.645 47.8825 146.041 47.2738 146.352 46.6206C146.492 46.3429 146.707 46.1096 146.972 45.9465C147.237 45.7835 147.541 45.6971 147.852 45.6971C148.163 45.6971 148.468 45.7835 148.733 45.9465C148.998 46.1096 149.212 46.3429 149.352 46.6206C149.662 47.2776 150.059 47.8898 150.532 48.4406L150.592 48.5205L150.742 48.6906C150.942 48.9006 151.142 49.1006 151.302 49.2406C151.462 49.3806 151.632 49.5306 151.862 49.7006L151.992 49.8005C152.096 49.8885 152.207 49.9687 152.322 50.0405C152.693 50.2867 153.085 50.5009 153.492 50.6805L153.702 50.7605H153.812C154.165 50.8962 154.526 51.0099 154.892 51.1006L155.282 51.1805C156.252 51.3805 157.253 51.3805 158.222 51.1805L158.622 51.1006C158.99 51.0129 159.351 50.8992 159.702 50.7605H159.822L160.032 50.6805C160.435 50.5021 160.823 50.2914 161.192 50.0505C161.311 49.9745 161.424 49.891 161.532 49.8005L161.662 49.7006C161.892 49.5306 162.062 49.3806 162.222 49.2406C162.419 49.0674 162.606 48.8838 162.782 48.6906C162.832 48.6364 162.879 48.5796 162.922 48.5205L162.982 48.4406C163.458 47.895 163.855 47.2858 164.162 46.6305C164.305 46.3558 164.52 46.1256 164.785 45.9648C165.049 45.8041 165.353 45.7191 165.662 45.7191C165.972 45.7191 166.276 45.8041 166.54 45.9648C166.805 46.1256 167.02 46.3558 167.162 46.6305C167.819 48.0334 168.862 49.2199 170.169 50.0507C171.476 50.8814 172.994 51.3219 174.542 51.3206H174.702H174.822H174.972C177.099 51.3196 179.149 50.5311 180.728 49.1073C182.307 47.6835 183.302 45.7253 183.522 43.6106C183.804 42.7055 183.832 41.7403 183.602 40.8206V40.8206ZM116.532 42.2605C116.52 42.1475 116.52 42.0335 116.532 41.9205L119.482 30.1006C119.636 29.4778 120.009 28.9311 120.532 28.5605H175.112C175.67 28.8966 176.073 29.4393 176.232 30.0706L179.172 41.8905C179.204 42.0011 179.221 42.1156 179.222 42.2306L179.092 42.6206L179.032 43.1106C178.941 44.0856 178.5 44.9946 177.791 45.6693C177.081 46.3441 176.151 46.7388 175.172 46.7805H174.892H174.392C173.729 46.749 173.087 46.5355 172.536 46.1633C171.986 45.7912 171.549 45.2747 171.272 44.6705C170.776 43.6249 169.997 42.7389 169.023 42.1124C168.05 41.486 166.921 41.1441 165.763 41.1254C164.606 41.1066 163.466 41.4119 162.473 42.0065C161.48 42.6011 160.673 43.4615 160.142 44.4906L160.062 44.6505C159.917 44.9529 159.728 45.2325 159.502 45.4806L159.392 45.6206L159.162 45.8406L158.952 46.0105L158.702 46.2006C158.571 46.2954 158.431 46.3759 158.282 46.4406L158.062 46.5205C157.909 46.5795 157.752 46.6297 157.592 46.6705H157.412C156.977 46.7638 156.527 46.7638 156.092 46.6705H155.912L155.422 46.5205L155.222 46.4406C155.083 46.3793 154.949 46.3057 154.822 46.2206L154.582 46.0405L154.312 45.8206L154.122 45.6405L153.972 45.4606C153.764 45.213 153.586 44.941 153.442 44.6505L153.362 44.4906C152.836 43.4871 152.046 42.6467 151.076 42.0603C150.107 41.4739 148.995 41.1639 147.862 41.1639C146.729 41.1639 145.618 41.4739 144.649 42.0603C143.679 42.6467 142.888 43.4871 142.362 44.4906L142.282 44.6505C142.138 44.9513 141.953 45.2307 141.732 45.4806L141.622 45.6206L141.392 45.8406L141.162 46.0205L140.932 46.2006L140.502 46.4406L140.292 46.5205C140.133 46.5824 139.969 46.6325 139.802 46.6705H139.632C139.414 46.7091 139.194 46.7325 138.972 46.7406C138.757 46.7374 138.543 46.7139 138.332 46.6705H138.142C137.974 46.6376 137.81 46.5873 137.652 46.5205L137.442 46.4506C137.292 46.3806 137.162 46.3006 137.042 46.2306L136.812 46.0505C136.713 45.9817 136.619 45.9048 136.532 45.8206L136.342 45.6405L136.192 45.4606C135.982 45.2181 135.804 44.9491 135.662 44.6605L135.592 44.5005C135.061 43.4719 134.252 42.6122 133.258 42.0181C132.264 41.424 131.124 41.1191 129.967 41.1378C128.809 41.1565 127.679 41.4981 126.705 42.124C125.731 42.7499 124.951 43.6353 124.452 44.6805C124.18 45.2853 123.745 45.8026 123.196 46.175C122.647 46.5475 122.005 46.7605 121.342 46.7905H121.232H121.012H120.782H120.482C119.436 46.7463 118.444 46.3107 117.703 45.5699C116.962 44.8292 116.527 43.8372 116.482 42.7905C116.487 42.6939 116.487 42.5971 116.482 42.5005V42.2206L116.532 42.2605Z" fill="white"></path> <path d="M177.812 80.9105H117.462V55.3005H122.082V76.2905H173.192V55.5906H177.812V80.9105Z" fill="white"></path> <path d="M175.202 16.1006H120.552V20.7206H175.202V16.1006Z" fill="white"></path> </g> <defs> <filter id="filter0_b_28_8799" x="-52.0444" y="-153.959" width="399.801" height="398.87" filterUnits="userSpaceOnUse" color-interpolation-filters="sRGB"> <feFlood flood-opacity="0" result="BackgroundImageFix"></feFlood> <feGaussianBlur in="BackgroundImage" stdDeviation="82"></feGaussianBlur> <feComposite in2="SourceAlpha" operator="in" result="effect1_backgroundBlur_28_8799"></feComposite> <feBlend mode="normal" in="SourceGraphic" in2="effect1_backgroundBlur_28_8799" result="shape"></feBlend> </filter> <filter id="filter1_f_28_8799" x="110.552" y="0.0407715" width="74.65" height="69.8201" filterUnits="userSpaceOnUse" color-interpolation-filters="sRGB"> <feFlood flood-opacity="0" result="BackgroundImageFix"></feFlood> <feBlend mode="normal" in="SourceGraphic" in2="BackgroundImageFix" result="shape"></feBlend> <feGaussianBlur stdDeviation="5" result="effect1_foregroundBlur_28_8799"></feGaussianBlur> </filter> <linearGradient id="paint0_linear_28_8799" x1="120.552" y1="10.0408" x2="184.19" y2="41.9178" gradientUnits="userSpaceOnUse"> <stop stop-color="#00CAE7"></stop> <stop offset="0.482292" stop-color="#897BFF"></stop> <stop offset="1" stop-color="#EB00FF"></stop> </linearGradient> </defs> </svg> 