<?xml version="1.0" encoding="UTF-8"?> <svg xmlns="http://www.w3.org/2000/svg" width="216" height="204" viewBox="0 0 216 204" fill="none"> <path d="M30.8806 125.415C30.8806 128.016 29.99 130.02 28.2087 131.426C26.4392 132.821 23.9021 133.518 20.5974 133.518H17.574V143.625H14.5857V117.926H21.2478C27.6697 117.926 30.8806 120.422 30.8806 125.415ZM17.574 130.952H20.2634C22.9119 130.952 24.8279 130.524 26.0115 129.668C27.1951 128.813 27.7869 127.442 27.7869 125.555C27.7869 123.856 27.2302 122.59 26.117 121.758C25.0037 120.926 23.2693 120.51 20.9138 120.51H17.574V130.952ZM47.6853 143.625L47.1052 140.883H46.9646C46.0037 142.09 45.0427 142.911 44.0818 143.344C43.1326 143.766 41.9431 143.977 40.5134 143.977C38.6033 143.977 37.1033 143.485 36.0134 142.5C34.9353 141.516 34.3962 140.116 34.3962 138.299C34.3962 134.409 37.5076 132.37 43.7302 132.182L46.9998 132.077V130.881C46.9998 129.37 46.6716 128.256 46.0154 127.542C45.3709 126.815 44.3337 126.452 42.9041 126.452C41.2986 126.452 39.4822 126.944 37.4548 127.928L36.5584 125.696C37.5076 125.18 38.5447 124.776 39.6697 124.483C40.8064 124.19 41.9431 124.043 43.0798 124.043C45.3767 124.043 47.0759 124.553 48.1775 125.573C49.2908 126.592 49.8474 128.227 49.8474 130.477V143.625H47.6853ZM41.0935 141.569C42.9099 141.569 44.3337 141.071 45.365 140.075C46.408 139.079 46.9295 137.684 46.9295 135.891V134.151L44.0115 134.274C41.6912 134.356 40.0154 134.719 38.9841 135.364C37.9646 135.997 37.4548 136.987 37.4548 138.334C37.4548 139.389 37.7712 140.192 38.4041 140.743C39.0486 141.293 39.9451 141.569 41.0935 141.569ZM52.8181 124.36H55.947L60.1658 135.346C61.0916 137.854 61.6658 139.665 61.8884 140.778H62.0291C62.1814 140.18 62.4978 139.161 62.9783 137.719C63.4705 136.266 65.0642 131.813 67.7595 124.36H70.8884L62.6091 146.297C61.7888 148.465 60.8279 150 59.7263 150.903C58.6365 151.817 57.2947 152.274 55.7009 152.274C54.8103 152.274 53.9314 152.174 53.0642 151.975V149.637C53.7087 149.778 54.4295 149.848 55.2263 149.848C57.2302 149.848 58.6599 148.723 59.5154 146.473L60.5877 143.731L52.8181 124.36ZM95.2166 143.625L94.6365 140.883H94.4959C93.5349 142.09 92.574 142.911 91.613 143.344C90.6638 143.766 89.4744 143.977 88.0447 143.977C86.1345 143.977 84.6345 143.485 83.5447 142.5C82.4666 141.516 81.9275 140.116 81.9275 138.299C81.9275 134.409 85.0388 132.37 91.2615 132.182L94.531 132.077V130.881C94.531 129.37 94.2029 128.256 93.5466 127.542C92.9021 126.815 91.865 126.452 90.4353 126.452C88.8298 126.452 87.0134 126.944 84.9861 127.928L84.0896 125.696C85.0388 125.18 86.0759 124.776 87.2009 124.483C88.3377 124.19 89.4744 124.043 90.6111 124.043C92.908 124.043 94.6072 124.553 95.7087 125.573C96.822 126.592 97.3787 128.227 97.3787 130.477V143.625H95.2166ZM88.6248 141.569C90.4412 141.569 91.865 141.071 92.8962 140.075C93.9392 139.079 94.4607 137.684 94.4607 135.891V134.151L91.5427 134.274C89.2224 134.356 87.5466 134.719 86.5154 135.364C85.4959 135.997 84.9861 136.987 84.9861 138.334C84.9861 139.389 85.3025 140.192 85.9353 140.743C86.5798 141.293 87.4763 141.569 88.6248 141.569ZM116.592 143.625V131.163C116.592 129.592 116.234 128.42 115.519 127.647C114.804 126.874 113.685 126.487 112.162 126.487C110.146 126.487 108.67 127.032 107.732 128.122C106.795 129.211 106.326 131.01 106.326 133.518V143.625H103.408V124.36H105.781L106.256 126.997H106.396C106.994 126.047 107.832 125.315 108.91 124.799C109.988 124.272 111.189 124.008 112.513 124.008C114.834 124.008 116.58 124.571 117.752 125.696C118.924 126.809 119.51 128.596 119.51 131.057V143.625H116.592ZM122.463 124.36H125.592L129.81 135.346C130.736 137.854 131.31 139.665 131.533 140.778H131.674C131.826 140.18 132.142 139.161 132.623 137.719C133.115 136.266 134.709 131.813 137.404 124.36H140.533L132.254 146.297C131.433 148.465 130.472 150 129.371 150.903C128.281 151.817 126.939 152.274 125.345 152.274C124.455 152.274 123.576 152.174 122.709 151.975V149.637C123.353 149.778 124.074 149.848 124.871 149.848C126.875 149.848 128.304 148.723 129.16 146.473L130.232 143.731L122.463 124.36ZM160.291 133.975C160.291 137.116 159.5 139.571 157.918 141.34C156.336 143.098 154.15 143.977 151.361 143.977C149.638 143.977 148.109 143.573 146.773 142.764C145.437 141.956 144.406 140.795 143.679 139.284C142.953 137.772 142.59 136.002 142.59 133.975C142.59 130.834 143.375 128.391 144.945 126.645C146.515 124.887 148.695 124.008 151.484 124.008C154.179 124.008 156.318 124.905 157.9 126.698C159.494 128.491 160.291 130.917 160.291 133.975ZM145.613 133.975C145.613 136.436 146.105 138.311 147.09 139.6C148.074 140.889 149.521 141.534 151.431 141.534C153.342 141.534 154.789 140.895 155.773 139.618C156.769 138.329 157.267 136.448 157.267 133.975C157.267 131.526 156.769 129.668 155.773 128.403C154.789 127.125 153.33 126.487 151.396 126.487C149.486 126.487 148.045 127.114 147.072 128.368C146.099 129.622 145.613 131.491 145.613 133.975ZM178.607 143.625V131.163C178.607 129.592 178.25 128.42 177.535 127.647C176.82 126.874 175.701 126.487 174.177 126.487C172.162 126.487 170.685 127.032 169.748 128.122C168.81 129.211 168.342 131.01 168.342 133.518V143.625H165.424V124.36H167.797L168.271 126.997H168.412C169.01 126.047 169.847 125.315 170.926 124.799C172.004 124.272 173.205 124.008 174.529 124.008C176.849 124.008 178.595 124.571 179.767 125.696C180.939 126.809 181.525 128.596 181.525 131.057V143.625H178.607ZM195.676 143.977C192.828 143.977 190.578 143.11 188.926 141.375C187.285 139.641 186.465 137.233 186.465 134.151C186.465 131.045 187.226 128.579 188.75 126.75C190.285 124.922 192.342 124.008 194.92 124.008C197.334 124.008 199.244 124.805 200.65 126.399C202.056 127.981 202.76 130.073 202.76 132.674V134.52H189.488C189.547 136.782 190.115 138.499 191.193 139.67C192.283 140.842 193.812 141.428 195.781 141.428C197.855 141.428 199.906 140.995 201.933 140.127V142.729C200.902 143.174 199.924 143.491 198.998 143.678C198.084 143.877 196.976 143.977 195.676 143.977ZM194.885 126.452C193.338 126.452 192.101 126.956 191.176 127.963C190.261 128.971 189.722 130.366 189.558 132.147H199.631C199.631 130.307 199.22 128.901 198.4 127.928C197.58 126.944 196.408 126.452 194.885 126.452ZM53.8904 190.569C54.406 190.569 54.9041 190.534 55.3845 190.463C55.865 190.381 56.2459 190.299 56.5271 190.217V192.45C56.2107 192.602 55.742 192.725 55.1209 192.819C54.5115 192.924 53.9607 192.977 53.4685 192.977C49.742 192.977 47.8787 191.014 47.8787 187.088V175.627H45.1189V174.221L47.8787 173.008L49.1091 168.895H50.7966V173.36H56.3865V175.627H50.7966V186.965C50.7966 188.125 51.072 189.016 51.6228 189.637C52.1736 190.258 52.9295 190.569 53.8904 190.569ZM73.5779 192.625V180.163C73.5779 178.592 73.2205 177.42 72.5056 176.647C71.7908 175.874 70.6716 175.487 69.1482 175.487C67.1209 175.487 65.6384 176.038 64.7009 177.139C63.7752 178.241 63.3123 180.045 63.3123 182.553V192.625H60.3943V165.274H63.3123V173.553C63.3123 174.549 63.2654 175.375 63.1716 176.032H63.3474C63.9216 175.106 64.7361 174.379 65.7908 173.852C66.8572 173.313 68.0701 173.043 69.4295 173.043C71.7849 173.043 73.5486 173.606 74.7205 174.731C75.9041 175.844 76.4959 177.62 76.4959 180.057V192.625H73.5779ZM90.6462 192.977C87.7986 192.977 85.5486 192.11 83.8962 190.375C82.2556 188.641 81.4353 186.233 81.4353 183.151C81.4353 180.045 82.197 177.579 83.7205 175.75C85.2556 173.922 87.3123 173.008 89.8904 173.008C92.3045 173.008 94.2146 173.805 95.6209 175.399C97.0271 176.981 97.7302 179.073 97.7302 181.674V183.52H84.4587C84.5173 185.782 85.0857 187.499 86.1638 188.67C87.2537 189.842 88.783 190.428 90.7517 190.428C92.8259 190.428 94.8767 189.995 96.9041 189.127V191.729C95.8728 192.174 94.8943 192.491 93.9685 192.678C93.0545 192.877 91.947 192.977 90.6462 192.977ZM89.8552 175.452C88.3084 175.452 87.072 175.956 86.1462 176.963C85.2322 177.971 84.6931 179.366 84.5291 181.147H94.6013C94.6013 179.307 94.1912 177.901 93.3709 176.928C92.5505 175.944 91.3787 175.452 89.8552 175.452ZM120.758 175.627H115.853V192.625H112.935V175.627H109.49V174.309L112.935 173.254V172.182C112.935 167.448 115.004 165.081 119.14 165.081C120.16 165.081 121.355 165.286 122.726 165.696L121.97 168.034C120.845 167.67 119.885 167.489 119.088 167.489C117.986 167.489 117.172 167.858 116.644 168.596C116.117 169.323 115.853 170.495 115.853 172.112V173.36H120.758V175.627ZM136.121 192.625L135.541 189.883H135.4C134.439 191.09 133.478 191.911 132.517 192.344C131.568 192.766 130.379 192.977 128.949 192.977C127.039 192.977 125.539 192.485 124.449 191.5C123.371 190.516 122.832 189.116 122.832 187.299C122.832 183.409 125.943 181.37 132.166 181.182L135.435 181.077V179.881C135.435 178.37 135.107 177.256 134.451 176.542C133.806 175.815 132.769 175.452 131.34 175.452C129.734 175.452 127.918 175.944 125.89 176.928L124.994 174.696C125.943 174.18 126.98 173.776 128.105 173.483C129.242 173.19 130.379 173.043 131.515 173.043C133.812 173.043 135.511 173.553 136.613 174.573C137.726 175.592 138.283 177.227 138.283 179.477V192.625H136.121ZM129.529 190.569C131.345 190.569 132.769 190.071 133.801 189.075C134.844 188.079 135.365 186.684 135.365 184.891V183.151L132.447 183.274C130.127 183.356 128.451 183.719 127.42 184.364C126.4 184.997 125.89 185.987 125.89 187.334C125.89 188.389 126.207 189.192 126.84 189.743C127.484 190.293 128.381 190.569 129.529 190.569ZM156.74 187.37C156.74 189.163 156.072 190.545 154.736 191.518C153.4 192.491 151.525 192.977 149.111 192.977C146.556 192.977 144.564 192.573 143.135 191.764V189.057C144.06 189.526 145.051 189.895 146.105 190.165C147.172 190.434 148.197 190.569 149.181 190.569C150.705 190.569 151.877 190.329 152.697 189.848C153.517 189.356 153.927 188.612 153.927 187.616C153.927 186.866 153.599 186.227 152.943 185.7C152.299 185.161 151.033 184.528 149.146 183.801C147.353 183.133 146.076 182.553 145.314 182.061C144.564 181.557 144.002 180.989 143.627 180.356C143.263 179.723 143.082 178.967 143.082 178.088C143.082 176.518 143.72 175.282 144.998 174.379C146.275 173.465 148.027 173.008 150.254 173.008C152.328 173.008 154.355 173.43 156.336 174.274L155.299 176.647C153.365 175.85 151.613 175.452 150.043 175.452C148.66 175.452 147.617 175.668 146.914 176.102C146.211 176.536 145.859 177.133 145.859 177.895C145.859 178.411 145.988 178.85 146.246 179.213C146.515 179.577 146.943 179.922 147.529 180.25C148.115 180.579 149.24 181.053 150.904 181.674C153.189 182.506 154.73 183.344 155.527 184.188C156.336 185.032 156.74 186.092 156.74 187.37ZM167.726 190.569C168.242 190.569 168.74 190.534 169.22 190.463C169.701 190.381 170.082 190.299 170.363 190.217V192.45C170.047 192.602 169.578 192.725 168.957 192.819C168.347 192.924 167.797 192.977 167.304 192.977C163.578 192.977 161.715 191.014 161.715 187.088V175.627H158.955V174.221L161.715 173.008L162.945 168.895H164.633V173.36H170.222V175.627H164.633V186.965C164.633 188.125 164.908 189.016 165.459 189.637C166.01 190.258 166.765 190.569 167.726 190.569Z" fill="white"></path> <g filter="url(#filter0_b_28_8800)"> <g filter="url(#filter1_f_28_8800)"> <path d="M107.85 58.3504C119.917 58.3504 129.7 48.5678 129.7 36.5004C129.7 24.433 119.917 14.6504 107.85 14.6504C95.7826 14.6504 86 24.433 86 36.5004C86 48.5678 95.7826 58.3504 107.85 58.3504Z" fill="url(#paint0_linear_28_8800)" fill-opacity="0.6"></path> </g> <path d="M139.95 47.2703C139.785 46.5811 139.468 45.9377 139.021 45.3873C138.575 44.837 138.01 44.3938 137.37 44.0903C134.95 42.8803 131.96 43.9503 129.56 44.8003C128.26 45.2403 126.95 45.7403 125.69 46.2803C125.148 46.5026 124.709 46.9201 124.46 47.4503C124.332 47.7133 124.258 47.9997 124.245 48.2921C124.231 48.5844 124.277 48.8764 124.38 49.1503C124.599 49.695 125.019 50.1346 125.553 50.3784C126.088 50.6222 126.695 50.6515 127.25 50.4603C127.82 50.2503 128.36 50.0303 128.87 49.8303C129.67 49.5203 130.42 49.2203 131.07 49.0003L131.88 48.7603C133.31 48.3103 134.93 47.8103 135.68 48.1003C135.68 48.1003 135.84 48.2203 135.93 48.6003C136.54 50.1203 134.82 51.4303 134.83 51.4303C133.93 51.8803 116.2 62.5003 112.95 64.6703C110.74 66.3603 107.25 65.5203 107.22 65.5203L79.6299 58.2503V46.8203H110.98C112.98 46.8203 114.27 47.2403 114.27 47.9103C114.269 48.3879 114.122 48.8536 113.848 49.2451C113.575 49.6366 113.188 49.935 112.74 50.1003L101 50.8403C100.43 50.9357 99.9167 51.2392 99.5583 51.6918C99.1998 52.1445 99.0222 52.7141 99.0599 53.2903C99.1539 53.8597 99.4507 54.3758 99.8955 54.7434C100.34 55.111 100.903 55.3053 101.48 55.2903L113.36 54.1903H113.84C115.237 53.7975 116.467 52.9584 117.343 51.801C118.219 50.6437 118.692 49.2316 118.69 47.7803C118.69 46.4803 118.13 42.2703 110.98 42.2703H77.6099C77.3159 42.256 77.0222 42.3034 76.7476 42.4094C76.473 42.5154 76.2236 42.6777 76.0154 42.8858C75.8073 43.094 75.6451 43.3434 75.5391 43.618C75.433 43.8926 75.3857 44.1863 75.4 44.4803V59.8803C75.3951 60.355 75.5446 60.8185 75.8259 61.2008C76.1073 61.5832 76.5053 61.8638 76.9599 62.0003L106.29 69.7003C107.16 69.9232 108.052 70.0506 108.95 70.0803H109.33C111.03 70.0803 113.5 69.9003 115.23 68.3703C117.34 66.8703 126.66 61.2903 132.23 57.9603C136.51 55.4003 136.84 55.2003 136.86 55.1703C139.05 53.7303 141.2 50.7703 139.95 47.2703Z" fill="white"></path> <path d="M81.8304 15.2903H77.4004V22.3103H81.8304V15.2903Z" fill="white"></path> <path d="M131.7 0.590263H84.0201C82.276 0.579702 80.5967 1.2507 79.3401 2.46026C78.7428 3.02276 78.2642 3.69928 77.9327 4.44986C77.6012 5.20044 77.4235 6.00985 77.4102 6.83026V7.93026V12.3403H81.8401V6.83026C81.9029 6.3053 82.1632 5.82393 82.5681 5.484C82.9731 5.14407 83.4922 4.97111 84.0201 5.00026H131.7C132.213 5.02699 132.703 5.21863 133.097 5.54661C133.492 5.87459 133.77 6.32135 133.89 6.82026V29.5703C133.825 30.0961 133.563 30.5775 133.156 30.9173C132.75 31.257 132.229 31.4296 131.7 31.4003H84.0201C83.7557 31.4264 83.4888 31.3995 83.2349 31.3213C82.9809 31.2431 82.7451 31.115 82.5413 30.9447C82.3374 30.7743 82.1695 30.565 82.0474 30.329C81.9253 30.093 81.8514 29.8351 81.8301 29.5703V26.2303H77.4102V29.5703C77.4829 31.2662 78.2141 32.8668 79.4484 34.0321C80.6828 35.1973 82.3229 35.8353 84.0201 35.8103H131.7C133.421 35.811 135.074 35.1407 136.308 33.9419C137.543 32.7431 138.261 31.1102 138.31 29.3903V6.83026C138.293 5.98416 138.108 5.14985 137.766 4.37608C137.423 3.60231 136.93 2.90458 136.314 2.32365C135.699 1.74272 134.974 1.29023 134.182 0.99261C133.389 0.694993 132.546 0.558214 131.7 0.590263V0.590263Z" fill="white"></path> </g> <defs> <filter id="filter0_b_28_8800" x="-88.6025" y="-163.414" width="392.922" height="397.495" filterUnits="userSpaceOnUse" color-interpolation-filters="sRGB"> <feFlood flood-opacity="0" result="BackgroundImageFix"></feFlood> <feGaussianBlur in="BackgroundImage" stdDeviation="82"></feGaussianBlur> <feComposite in2="SourceAlpha" operator="in" result="effect1_backgroundBlur_28_8800"></feComposite> <feBlend mode="normal" in="SourceGraphic" in2="effect1_backgroundBlur_28_8800" result="shape"></feBlend> </filter> <filter id="filter1_f_28_8800" x="76" y="4.65039" width="63.7" height="63.7" filterUnits="userSpaceOnUse" color-interpolation-filters="sRGB"> <feFlood flood-opacity="0" result="BackgroundImageFix"></feFlood> <feBlend mode="normal" in="SourceGraphic" in2="BackgroundImageFix" result="shape"></feBlend> <feGaussianBlur stdDeviation="5" result="effect1_foregroundBlur_28_8800"></feGaussianBlur> </filter> <linearGradient id="paint0_linear_28_8800" x1="86" y1="14.6504" x2="138.672" y2="38.7026" gradientUnits="userSpaceOnUse"> <stop stop-color="#00CAE7"></stop> <stop offset="0.482292" stop-color="#897BFF"></stop> <stop offset="1" stop-color="#EB00FF"></stop> </linearGradient> </defs> </svg> 